<svg xmlns="http://www.w3.org/2000/svg" width="194.552" height="194.234" viewBox="0 0 194.552 194.234">
  <g id="Groupe_4" data-name="Groupe 4" transform="translate(-2090.845 -1487.672)">
    <path id="Tracé_585" data-name="Tracé 585" d="M2242.523,1534.662l-12.757,12.8c6.089,6.733,11.109,14.28,13.6,23.067,1.784,6.292,2.565,12.876,3.659,19.353.348,2.053.017,4.266-2.668,4.337-2.636.071-2.915-2.061-3.043-4.17-.945-15.563-6.158-28.368-15.45-38.258l-12.734,12.769c8.9,10.935,12.288,23.7,8.636,37.927a40.907,40.907,0,0,1-16.784,23.95c-17.445,12.14-40.434,9.343-55.156-6.58-13.836-14.965-14.428-38.564-1.4-54.482,12.5-15.28,38.165-23.162,60.256-5.592l12.524-12.7a56.557,56.557,0,0,0-30.781-14.642c-34.52-4.788-64.59,17.558-69.144,52.34a58.9,58.9,0,0,0,32.979,60.994c35.623,16.849,74.736-1.272,85.332-39.2.594-2.13.761-5.328,4.037-4.42,3.408.944,2.027,3.853,1.352,6.128-8.3,27.986-26.942,44.423-55.688,49.054-27.041,4.356-56.755-12.123-67.755-37.227-11.366-25.942-8.04-50.125,10.1-71.683,22.821-27.128,64.386-30.115,91.476-7.2.794.671,1.623,1.3,2.1,1.678l12.936-12.909a82.239,82.239,0,0,0-24.411-15.715c-30.723-13.028-67.562-6.131-91.209,17.146-32.04,31.54-34.359,80.84-5.42,115.24.3.355.609.7.9,1.059,1.24,1.521,2.35,3.193.431,4.841-1.875,1.612-3.591.569-4.705-1.1-4.8-7.2-10.453-14.027-14.052-21.8-12.423-26.821-11.741-53.966,2.047-79.95,13.726-25.865,35.68-41.682,64.758-46.432,25.989-4.245,49.646,1.868,70.493,18.2a12.462,12.462,0,0,0,1.128.808,6.109,6.109,0,0,0,1.14.3c-.175-2.721-.292-5.3-.518-7.865a9.474,9.474,0,0,1,2.944-8.147c5.732-5.57,11.24-11.375,17.061-16.849a7.713,7.713,0,0,1,5.307-2.041c2.6.251,2.972,2.772,3.063,5.117a28.045,28.045,0,0,0,1.448,8.256c1.573-1.784,3.106-3.605,4.73-5.341,1.416-1.513,3.068-2.872,4.993-.868,1.747,1.819.555,3.4-.889,4.752-1.745,1.636-3.534,3.224-6.051,5.511,3.979.346,6.771.293,9.4.923,1.7.406,3.841,1.489,4.5,2.878.544,1.146-.322,3.637-1.382,4.755-5.9,6.219-11.907,12.349-18.2,18.159-1.563,1.442-4.28,2-6.54,2.227-2.8.286-5.669-.19-8.914-.357,3.34,5.047,6.778,9.419,9.345,14.254,15.7,29.561,15.746,59.291-.482,88.567a84.746,84.746,0,0,1-50.6,40.987c-27.855,8.558-54.262,4.612-78.588-11.777-1.247-.84-2.421-1.79-3.666-2.636-1.806-1.228-3.769-2.635-2.08-4.983,1.833-2.549,3.742-.8,5.656.429,5.055,3.238,9.974,6.818,15.365,9.386,49.383,23.52,108.576-6.289,118.559-59.9,4.921-26.429-1.364-50.3-18.741-71.052-.521-.621-1.066-1.222-1.621-1.812A4.709,4.709,0,0,0,2242.523,1534.662Zm-37.626,30.252c-13.533-13.235-36.733-12.052-49.953,1.788-14.354,15.027-13.546,37.829,1.85,52.2,14.191,13.243,37.772,12.134,50.99-2.343,14.905-16.326,10.458-38.467.314-48.309-3.164,3.359-6.155,6.927-9.571,10.025-2.31,2.094-2.469,3.673-1.03,6.411,3.476,6.616,1.666,14.786-4.028,20.326-5.578,5.428-13.564,6.5-20.887,2.8a18.068,18.068,0,0,1,16.814-31.987c.994.481,2.839.678,3.514.1C2197.03,1572.4,2200.925,1568.614,2204.9,1564.913Zm-17.123,16.729c-6.792-3.465-12.907-2.215-16.738,2.953a12.414,12.414,0,0,0,17.442,17.258c5.149-3.917,6.36-10.2,2.707-16.687-2.558,2.769-4.991,5.379-7.4,8.014-1.416,1.548-3,2.435-4.73.646-1.756-1.814-.657-3.339.83-4.727C2182.418,1586.738,2184.919,1584.345,2187.774,1581.642Zm89.863-69.64c-7.127-2.124-12.98-1.677-17.407,4.676-1.818,2.607-4.5,4.614-6.771,6.9-1.228,1.236-2.434,2.493-4.2,4.308,4.059.223,7.143.483,10.23.5a4.258,4.258,0,0,0,2.748-1.049C2267.342,1522.369,2272.354,1517.291,2277.637,1512Zm-16.541-16.7c-5.443,5.424-10.606,10.531-15.7,15.7a3.285,3.285,0,0,0-.835,2.166c.083,3.3.322,6.592.5,9.888l.889.481c3.152-3.335,5.931-7.164,9.542-9.893,6.02-4.551,7.783-10.108,6.005-17.146C2261.447,1496.289,2261.361,1496.084,2261.1,1495.3Z" transform="translate(0 0)"/>
  </g>
</svg>
