<svg xmlns="http://www.w3.org/2000/svg" width="332.456" height="225" viewBox="0 0 332.456 225">
  <g id="Group_73" data-name="Group 73" transform="translate(-353.112 -60.627)" opacity="0.4">
    <path id="Path_1631" data-name="Path 1631" d="M645.568,202.74s.112-.21.322-.612a9.315,9.315,0,0,1,.781-1.332,6.3,6.3,0,0,1,1.234-1.426,7.93,7.93,0,0,1,2.345-1.474,13.186,13.186,0,0,1,3.626-.959,26.321,26.321,0,0,1,4.637-.187,62.623,62.623,0,0,1,10.693,1.613c7.355,1.67,14.7,4.056,20.344,5.388a47.906,47.906,0,0,0,6.9,1.221,16.758,16.758,0,0,0,1.958.055l.689-.018s-.239-.028-.688-.075a18.67,18.67,0,0,1-1.906-.319,47.207,47.207,0,0,1-6.557-2.124c-5.344-2.069-12.22-5.405-19.527-8.171a67.561,67.561,0,0,0-11.232-3.3,32.513,32.513,0,0,0-5.689-.555,20.011,20.011,0,0,0-5.474.663,15.6,15.6,0,0,0-4.619,2.032,14.409,14.409,0,0,0-3.143,2.711,17,17,0,0,0-1.453,1.833c-.261.363-.405.558-.405.558Z" transform="translate(-33.402 -15.201)" fill="#59731e"/>
    <path id="Path_1632" data-name="Path 1632" d="M642.324,198.323l-1.6.35c-.506.112-1.124.248-1.833.4-.842.263-1.793.561-2.831.882a23.725,23.725,0,0,0-3.144,1.4,13.61,13.61,0,0,0-1.618,1.05,8.988,8.988,0,0,0-1.575,1.267,20.58,20.58,0,0,0-1.447,1.528c-.4.579-.793,1.169-1.2,1.761a17.844,17.844,0,0,0-1.522,3.8,24.942,24.942,0,0,0-.722,3.739c-.161,1.214-.7,2.658-.795,3.786-.177,2.221-3.2,12.784-3.466,14.514a23.822,23.822,0,0,1-.4,2.364,12.553,12.553,0,0,1-.433,1.806c-.292,1-.459,1.57-.459,1.57s.29-.52.793-1.433a12.581,12.581,0,0,0,.839-1.7c.3-.668.649-1.427.944-2.279.664-1.7,4.6-12.5,5.263-14.633.333-1.049.666-2.147,1.058-3.191a21.441,21.441,0,0,1,1.316-3.012,13.3,13.3,0,0,1,1.7-2.458c.334-.3.665-.612,1-.91.346-.27.742-.465,1.084-.7a4.857,4.857,0,0,1,1.141-.529,7.117,7.117,0,0,1,1.136-.406,16.939,16.939,0,0,1,2.272-.436c.694-.057,1.331-.109,1.9-.159.724,0,1.354.01,1.879.018,1.038.008,1.638.008,1.638.008Z" transform="translate(-31.162 -16.121)" fill="#59731e"/>
    <path id="Path_1633" data-name="Path 1633" d="M632.7,189.755l9.839-7.659c1.474-1.148,3.069-2.394,4.766-3.707,1.677-1.339,3.359-2.95,5.144-4.508,3.53-3.156,7.293-6.519,11.061-9.884,3.529-3.551,7.066-7.1,10.38-10.434,1.638-1.682,3.288-3.226,4.724-4.827s2.774-3.131,4.016-4.536l8.26-9.342s-3.677,3.362-9.2,8.406c-1.372,1.259-2.863,2.622-4.438,4.058s-3.39,2.8-5.177,4.281c-3.613,2.932-7.463,6.056-11.314,9.184-4,2.877-7.994,5.748-11.737,8.444-1.888,1.324-3.621,2.678-5.418,3.826-1.821,1.133-3.54,2.2-5.127,3.185-6.355,3.944-10.587,6.575-10.587,6.575Z" transform="translate(-32.172 -8.691)" fill="#59731e"/>
    <path id="Path_1634" data-name="Path 1634" d="M626.878,193.32s-.715.562-1.977,1.547c-.635.513-1.377,1.041-2.294,1.849-.9.775-1.949,1.628-3,2.6-1.026.988-2.188,2-3.307,3.169-1.15,1.145-2.326,2.366-3.5,3.662-2.364,2.568-4.737,5.369-7.136,8.053-1.212,1.326-2.42,2.652-3.677,3.88-1.226,1.259-2.518,2.394-3.793,3.477-.649.527-1.289,1.043-1.913,1.549-.659.47-1.307.925-1.929,1.369-1.238.933-2.542,1.6-3.682,2.326-1.165.692-2.3,1.213-3.273,1.738s-2.039,1.029-2.765,1.362l-2.3,1,2.425-.66c.764-.228,1.888-.588,2.934-.983s2.272-.74,3.551-1.266c1.256-.568,2.7-1.067,4.1-1.831.713-.363,1.449-.737,2.2-1.12l2.219-1.315c1.482-.924,3.012-1.929,4.472-3.037,1.488-1.091,2.925-2.27,4.366-3.445,2.838-2.379,5.563-4.787,8.175-6.9,1.294-1.072,2.576-2.055,3.788-2.965,1.2-.937,2.4-1.7,3.472-2.476,1.077-.739,2.082-1.325,2.954-1.895.833-.551,1.751-1.032,2.426-1.43l2.178-1.249Z" transform="translate(-26.837 -15.536)" fill="#59731e"/>
    <path id="Path_1635" data-name="Path 1635" d="M630.006,186.015s3.336-3.131,8.329-7.827c1.253-1.179,2.6-2.455,4.038-3.8,1.455-1.318,2.848-2.9,4.362-4.424,2.99-3.1,6.181-6.412,9.373-9.72,3.069-3.4,6.14-6.8,9.013-9.988,2.9-3.167,5.516-6.188,7.78-8.774,4.51-5.167,7.523-8.612,7.523-8.612l-8.006,8.159c-2.407,2.449-5.2,5.319-8.26,8.3-3.053,3.016-6.306,6.222-9.558,9.43-3.338,3.09-6.679,6.176-9.821,9.072-1.585,1.425-3.023,2.887-4.558,4.125-1.51,1.262-2.932,2.451-4.246,3.557-5.261,4.4-8.767,7.338-8.767,7.338Z" transform="translate(-32.091 -8.458)" fill="#59731e"/>
    <path id="Path_1636" data-name="Path 1636" d="M624.07,190.89s-.064,0-.188.014c-.093.007-.214.02-.362.035a5.341,5.341,0,0,0-1.3.345c-.115.057-.232.109-.353.164l-.168.105c-.1.064-.2.132-.314.207a5.022,5.022,0,0,0-.614.462,12.961,12.961,0,0,0-1.076,1.025c-1.371,1.447-2.875,3.371-4.8,5.6A81.3,81.3,0,0,1,607.975,206a63.229,63.229,0,0,1-19.333,12.077c-1.722.672-3.405,1.271-5.039,1.749-1.617.529-3.188.882-4.631,1.254-1.459.288-4.066.939-5.27,1.109s-2.4.551-3.271.635l-2.727.319s1-.018,2.754-.052c.878,0,2.094-.254,3.315-.325,1.225-.046,3.867-.562,5.369-.717,1.494-.222,3.124-.426,4.821-.8,1.707-.319,3.487-.763,5.32-1.278a65.527,65.527,0,0,0,11.162-4.313,67.691,67.691,0,0,0,10.274-6.311,85.984,85.984,0,0,0,8.032-6.8c2.216-2.1,4-3.944,5.141-4.92a5.154,5.154,0,0,1,.673-.518.292.292,0,0,1,.147-.086l.034-.015s.026-.018-.005,0c-.059.04-.128.07-.183.1a1.577,1.577,0,0,1-.73.123c-.168-.011-.041-.01-.022-.006h.1c.123.006.182.007.182.007Z" transform="translate(-25.124 -15.251)" fill="#59731e"/>
    <path id="Path_1637" data-name="Path 1637" d="M616.485,175.237s.675-.825,1.869-2.264a33.7,33.7,0,0,0,2.078-2.818,42.614,42.614,0,0,0,2.458-3.807c.879-1.388,1.689-2.962,2.564-4.612.9-1.639,1.668-3.443,2.556-5.269.783-1.866,1.662-3.767,2.409-5.747.784-1.972,1.55-3.975,2.258-6,2.907-8.088,5.2-16.335,6.9-22.512,1.672-6.187,2.782-10.311,2.782-10.311s-1.364,4.048-3.414,10.115c-2.075,6.059-4.871,14.129-8.236,21.938-.823,1.959-1.7,3.891-2.59,5.775-.861,1.9-1.832,3.706-2.709,5.48-.977,1.721-1.83,3.436-2.793,4.957-.942,1.537-1.81,3.005-2.735,4.266a38.691,38.691,0,0,1-2.488,3.391,29.143,29.143,0,0,1-2.074,2.481l-2.006,2.143Z" transform="translate(-30.465 -6.002)" fill="#59731e"/>
    <path id="Path_1638" data-name="Path 1638" d="M583.83,162.531l-2.215,1.671c-1.426,1.052-3.341,2.459-5.836,4.052-1.227.819-2.615,1.573-4.061,2.432-1.5.75-3.041,1.648-4.729,2.35-1.657.792-3.436,1.451-5.25,2.119-1.852.65-3.661,1.149-5.675,1.776a56.089,56.089,0,0,0-5.826,2.093c-1.869.8-3.675,1.64-5.377,2.512-3.415,1.725-6.485,3.47-9.191,4.792-1.355.657-2.608,1.237-3.753,1.66a22.017,22.017,0,0,1-3.011.959,12.977,12.977,0,0,1-2.01.371l-.72.1.72-.019a13.072,13.072,0,0,0,2.062-.166,22.239,22.239,0,0,0,3.148-.655c1.207-.31,2.538-.764,3.974-1.287,2.872-1.05,6.123-2.474,9.637-3.816,1.759-.675,3.583-1.308,5.449-1.885a53.384,53.384,0,0,1,5.7-1.406c1.894-.381,4.035-.781,5.995-1.269,1.975-.532,3.928-1.057,5.763-1.731,1.878-.592,3.6-1.382,5.273-2.045,1.62-.769,3.191-1.449,4.56-2.194,2.768-1.419,5.067-2.8,6.578-3.714,1.5-.933,2.369-1.466,2.369-1.466Z" transform="translate(-20.262 -11.931)" fill="#59731e"/>
    <path id="Path_1639" data-name="Path 1639" d="M567.752,142.2l1.4-2.449c.46-.76.968-1.8,1.568-2.93.622-1.137,1.222-2.438,1.9-3.848,1.343-2.827,2.759-6.178,4.156-9.807,1.381-3.635,2.732-7.545,3.936-11.5a51.856,51.856,0,0,0,1.551-6.03c.405-2.01.694-4,.938-5.916.476-3.849.746-7.447.94-10.524s.341-5.644.449-7.441c.136-1.791.217-2.817.217-2.817s-.143,1.02-.385,2.8c-.217,1.784-.524,4.337-.894,7.4s-.852,6.618-1.551,10.385c-.356,1.885-.759,3.821-1.274,5.755a46.193,46.193,0,0,1-1.854,5.746c-1.457,3.821-3.05,7.582-4.652,11.054s-3.218,6.639-4.7,9.289c-.753,1.321-1.424,2.548-2.072,3.57-.656,1.04-1.16,1.931-1.687,2.684-1,1.495-1.568,2.349-1.568,2.349Z" transform="translate(-24.71 -2.144)" fill="#59731e"/>
    <path id="Path_1640" data-name="Path 1640" d="M561.817,148.612a4.27,4.27,0,0,0-.7-.337,5.818,5.818,0,0,0-1.867-.28,6.139,6.139,0,0,0-2.5.63c-.914.384-1.941.817-3.065,1.286-2.235.956-4.827,2.091-7.591,3.343-1.377.64-2.8,1.3-4.246,1.967-1.438.69-2.916,1.351-4.34,2.13-5.722,3.067-11.439,6.228-15.293,9.365a20.115,20.115,0,0,0-4.264,4.224,4.964,4.964,0,0,0-.714,1.533c-.064.378-.089.58-.089.58s.07-.188.2-.534a4.766,4.766,0,0,1,.96-1.263,19.89,19.89,0,0,1,4.742-3.162,119.64,119.64,0,0,1,16.188-6.442c6.029-2,12.138-3.767,16.729-5.02,2.3-.6,4.212-1.1,5.549-1.445l2.077-.494Z" transform="translate(-19.206 -10.229)" fill="#59731e"/>
    <path id="Path_1641" data-name="Path 1641" d="M540.936,132.334s.074-.985.2-2.711.229-4.325.222-7.291c.038-6-.37-13.9-.7-21.79a51.584,51.584,0,0,0-.454-5.97,37.9,37.9,0,0,0-1.358-5.666,43.684,43.684,0,0,0-4.289-9.269,43.055,43.055,0,0,0-4.24-5.805c-.564-.655-1.032-1.15-1.361-1.473l-.493-.515s.158.192.459.542.74.869,1.261,1.557a43.512,43.512,0,0,1,7.416,15.323,36.92,36.92,0,0,1,.945,5.5c.074.927.131,1.863.113,2.866.012.924-.039,1.954-.054,2.928-.213,7.9-.349,15.8-.787,21.644-.109,1.459-.2,2.8-.339,3.957-.128,1.171-.207,2.161-.347,3.027-.247,1.715-.386,2.693-.386,2.693Z" transform="translate(-20.529 -1.313)" fill="#59731e"/>
    <path id="Path_1642" data-name="Path 1642" d="M426.683,135.124s-.329-.481-.82-1.281c-.232-.394-.519-.875-.84-1.429-.331-.588-.7-1.256-1.114-1.982-.823-1.471-1.753-3.211-2.922-5.07q-.465-.7-.946-1.415c-.4-.539-.715-.871-1.085-1.32a17.681,17.681,0,0,0-2.723-2.5,20.342,20.342,0,0,0-6.271-2.929c-2.03-.625-3.9-1.166-5.477-1.731s-2.877-1.088-3.769-1.489-1.406-.64-1.406-.64l1.3.833c.833.529,2.048,1.241,3.553,2.035s3.316,1.614,5.2,2.5a18.228,18.228,0,0,1,5.218,3.384,14.936,14.936,0,0,1,1.907,2.318c.614.97,1.074,1.751,1.565,2.654.945,1.778,1.739,3.568,2.452,5.086.359.769.688,1.476.981,2.1s.6,1.223.833,1.688c.479.912.75,1.376.75,1.376Z" transform="translate(-5.409 -6.172)" fill="#59731e"/>
    <path id="Path_1643" data-name="Path 1643" d="M467.91,122.382s-.346-.8-.953-2.2c-.629-1.4-1.436-3.392-2.565-5.79s-2.349-5.208-3.9-8.115c-.75-1.464-1.528-2.977-2.319-4.51-.855-1.5-1.723-3.022-2.591-4.545a79.609,79.609,0,0,0-5.447-8.775,23.132,23.132,0,0,0-12.269-9c-1.447-.488-2.3-.7-2.3-.7s.826.285,2.225.886a24.906,24.906,0,0,1,5.42,3.093,23.941,23.941,0,0,1,5.712,6.557,93.329,93.329,0,0,1,4.665,8.992c.746,1.563,1.5,3.125,2.232,4.665.672,1.559,1.327,3.1,1.964,4.6,1.326,2.959,2.328,5.816,3.264,8.227s1.615,4.5,2.139,5.924c.507,1.439.8,2.258.8,2.258Z" transform="translate(-9.654 -2.121)" fill="#59731e"/>
    <path id="Path_1644" data-name="Path 1644" d="M607.192,165.829s.524-.954,1.435-2.624c.89-1.663,2.222-4.2,3.639-7.152,2.9-5.938,6.482-13.939,9.7-22.078a210.417,210.417,0,0,0,7.747-22.777c.389-1.6.785-3.042,1-4.365a25.433,25.433,0,0,0,.511-3.415,10.966,10.966,0,0,0,.056-2.22c-.021-.509-.028-.781-.028-.781s-.019.276-.044.784a10.139,10.139,0,0,1-.258,2.178,24.218,24.218,0,0,1-.8,3.319c-.326,1.278-.846,2.678-1.368,4.212a208.628,208.628,0,0,1-9.694,21.765c-3.906,7.739-8.151,15.3-11.5,20.825-1.674,2.791-3.076,4.957-4.137,6.563-1.059,1.584-1.663,2.49-1.663,2.49Z" transform="translate(-29.113 -4.659)" fill="#59731e"/>
    <path id="Path_1645" data-name="Path 1645" d="M588.807,167.9l-.392.5c-.123.154-.275.341-.448.561-.124.14-.268.3-.429.479a19.143,19.143,0,0,1-1.7,1.572c-.728.614-1.617,1.286-2.635,1.989a109.357,109.357,0,0,1-16.567,8.975,177.785,177.785,0,0,1-17.919,6.994,57.023,57.023,0,0,1-6.12,1.678,9.2,9.2,0,0,1-1.756.222,2.468,2.468,0,0,1-.621-.063,2.6,2.6,0,0,0,.613.159,9.788,9.788,0,0,0,1.806.041,58.534,58.534,0,0,0,6.385-.754,180.128,180.128,0,0,0,19.058-4.313,113.71,113.71,0,0,0,18.706-6.787c1.264-.615,2.424-1.238,3.447-1.861a26.816,26.816,0,0,0,2.683-1.82c.408-.337.767-.639,1.082-.9.237-.214.433-.4.6-.547.3-.284.458-.434.458-.434Z" transform="translate(-21.906 -12.559)" fill="#59731e"/>
    <path id="Path_1646" data-name="Path 1646" d="M640.036,196.518s.669-.631,1.849-1.733c.585-.547,1.3-1.221,2.12-1.988.819-.751,1.742-1.672,2.756-2.55l3.3-2.679c1.163-.962,2.406-1.981,3.811-2.953,2.717-2,5.74-4.1,8.8-6.165,1.522-1.077,3.04-2.156,4.537-3.216,1.511-1.022,2.886-2.257,4.269-3.327q1.026-.818,2.008-1.607c.615-.576,1.213-1.144,1.8-1.7q1.74-1.661,3.267-3.11c1-.965,1.781-1.99,2.541-2.822.74-.848,1.385-1.587,1.917-2.2,1.057-1.215,1.663-1.9,1.663-1.9s-.7.6-1.926,1.652c-.609.526-1.35,1.165-2.2,1.893-.864.709-1.764,1.594-2.877,2.4s-2.324,1.65-3.606,2.562q-.96.671-1.963,1.378l-2.169,1.278c-1.489.839-2.927,1.809-4.554,2.6-1.6.822-3.224,1.649-4.844,2.481-3.315,1.61-6.625,3.254-9.744,4.927-1.565.778-3.054,1.671-4.474,2.538s-2.765,1.665-4.008,2.416c-1.194.766-2.188,1.512-3.125,2.151-.921.641-1.721,1.205-2.383,1.665l-2.077,1.45Z" transform="translate(-32.97 -11.467)" fill="#59731e"/>
    <path id="Path_1647" data-name="Path 1647" d="M658.111,180.945c-2.893,3.562-7.3,6.217-9.367,10.345,6.733,3.689,15.04,2,22.148,5.294-6.57-.977-24.822-7.032-27.832,2.24A46.73,46.73,0,0,1,636,193.15c2.733.724,6.417-2.043,10.055-2.479C646.056,190.67,654.66,183.141,658.111,180.945Z" transform="translate(-33.12 -14.087)" fill="#36471a"/>
    <path id="Path_1648" data-name="Path 1648" d="M631.728,195.709s-.5.476-1.367,1.316c-.433.42-.965.927-1.569,1.512-.619.643-1.317,1.37-2.085,2.162s-1.52,1.668-2.339,2.583-1.629,1.922-2.472,2.952c-1.673,2.07-3.346,4.354-4.935,6.659-3.18,4.606-13.3,16.051-15.872,19.194a24.354,24.354,0,0,1-1.832,2.07c-.579.6-1.154,1.032-1.6,1.437-.985.682-1.549,1.076-1.549,1.076l1.748-.77c.512-.314,1.188-.647,1.889-1.138a25.925,25.925,0,0,0,2.281-1.748c3.25-2.711,14.286-13.617,18.174-17.412,1.937-1.905,3.918-3.737,5.841-5.351.965-.8,1.88-1.59,2.8-2.273s1.757-1.383,2.556-1.919c.794-.559,1.52-1.067,2.163-1.52.7-.456,1.319-.856,1.824-1.186l1.595-1.031Z" transform="translate(-28.45 -15.815)" fill="#59731e"/>
    <path id="Path_1649" data-name="Path 1649" d="M635.533,201.178a8.633,8.633,0,0,0,1.665,2.066c-2.447,1.562-4.894,3.12-6.23,5.692a21.134,21.134,0,0,1,.524-2.367,15.63,15.63,0,0,1-5.829,3.867c.62-1.486,2.035-2.7,2.621-4.483-3.957-1.546-9.623,1.594-13.32,3.159a59.368,59.368,0,0,1,9.7-4.92c1.657-.588,4.764.539,6.143-.5,1.527-1.286,3.348-.923,3.754-4.468Z" transform="translate(-30.658 -16.228)" fill="#36471a"/>
    <path id="Path_1650" data-name="Path 1650" d="M614.761,169.137l1.673-3c.53-.956,1.177-2.114,1.914-3.445.769-1.284,1.536-2.906,2.359-4.68.819-1.757,1.717-3.66,2.66-5.676.888-2.019,1.693-4.161,2.588-6.364s1.8-4.479,2.573-6.836c.809-2.351,1.628-4.729,2.454-7.111.734-2.4,1.468-4.807,2.191-7.176.752-2.352,1.363-4.707,1.988-6.975,1.275-4.523,2.316-8.78,3.2-12.424.93-3.631,1.548-6.7,2.039-8.827s.751-3.352.751-3.352-.4,1.181-1.1,3.253c-.722,2.061-1.655,5.041-2.957,8.55-1.259,3.521-2.736,7.624-4.471,11.955-.85,2.174-1.7,4.43-2.684,6.667-.955,2.252-1.927,4.535-2.9,6.818-1.05,2.242-2.1,4.483-3.135,6.691-1,2.221-2.1,4.336-3.2,6.369s-2.093,4.036-3.129,5.849c-1.071,1.77-2.082,3.444-3.018,4.985a45.981,45.981,0,0,1-2.688,4.19c-.879,1.243-1.643,2.328-2.27,3.222-1.262,1.784-1.98,2.805-1.98,2.805Z" transform="translate(-29.798 -3.822)" fill="#59731e"/>
    <path id="Path_1651" data-name="Path 1651" d="M478.288,126.6s-.393.385-1.067,1.062c-.688.657-1.649,1.7-2.839,2.684-.6.526-1.24,1.09-1.921,1.685-.728.577-1.5,1.184-2.287,1.813-1.566,1.286-3.366,2.509-5.125,3.79-1.8,1.225-3.593,2.47-5.328,3.557-1.714,1.123-3.352,2.121-4.751,2.976-2.823,1.687-4.707,2.809-4.707,2.809s2.007-.886,5.015-2.221c1.5-.69,3.25-1.482,5.1-2.4,1.864-.879,3.81-1.907,5.774-2.922,1.929-1.078,3.894-2.1,5.657-3.209.893-.545,1.754-1.079,2.568-1.576l2.274-1.556c1.461-.955,2.47-1.821,3.244-2.406l1.189-.928Z" transform="translate(-11.374 -7.724)" fill="#59731e"/>
    <path id="Path_1652" data-name="Path 1652" d="M624.1,175.549s3.129-4.579,7.826-11.441c1.182-1.724,2.4-3.674,3.714-5.695,1.26-2.081,2.615-4.246,3.869-6.593.662-1.153,1.3-2.346,1.889-3.589s1.267-2.443,1.787-3.752q.821-1.936,1.653-3.892l1.425-4.012a75.743,75.743,0,0,0,2.188-8.156c.649-2.705.984-5.417,1.348-8.016.291-2.618.447-5.149.577-7.538.008-2.4.1-4.664.036-6.747-.1-2.082-.187-3.985-.265-5.674-.1-1.686-.3-3.151-.4-4.359-.242-2.407-.375-3.78-.375-3.78s0,1.382.014,3.8c-.009,1.206.04,2.673-.018,4.352-.085,1.677-.175,3.566-.277,5.625-.133,2.06-.433,4.275-.663,6.612-.354,2.324-.743,4.773-1.267,7.27-.591,2.485-1.159,5.049-2.027,7.572a72.869,72.869,0,0,1-2.814,7.531l-1.706,3.647c-.637,1.175-1.273,2.347-1.9,3.51-.6,1.171-1.362,2.256-2.024,3.367s-1.37,2.177-2.1,3.211c-1.393,2.1-2.892,4.051-4.277,5.91-1.451,1.832-2.789,3.575-4.109,5.154-5.295,6.348-8.827,10.576-8.827,10.576Z" transform="translate(-30.939 -3.709)" fill="#59731e"/>
    <path id="Path_1653" data-name="Path 1653" d="M605.4,178.28s-.916.737-2.528,2.027c-.781.6-1.732,1.414-2.8,2.175-1.044.8-2.332,1.614-3.747,2.508-1.522.934-3.171,1.943-4.915,3.013-1.718,1.087-3.531,2.233-5.4,3.42s-3.764,2.388-5.726,3.558-3.956,2.335-6.006,3.4c-2.035,1.093-4.116,2.1-6.2,3-2.075.942-4.179,1.725-6.217,2.485-2.061.689-4.06,1.376-5.995,1.883-1.925.583-3.779.978-5.49,1.391-1.7.428-3.3.658-4.7.948s-2.644.453-3.657.606c-2.041.3-3.205.479-3.205.479l3.236-.123c1.029-.044,2.288-.07,3.718-.207s3.061-.191,4.818-.434c1.763-.219,3.681-.417,5.69-.791,2.025-.3,4.126-.773,6.315-1.247,2.171-.545,4.42-1.117,6.662-1.846,2.252-.7,4.521-1.507,6.742-2.4,2.238-.866,4.437-1.842,6.567-2.822s4.211-1.995,6.2-2.968c1.97-.964,3.879-1.9,5.688-2.782l5.1-2.4c1.685-.787,3.237-1.517,4.594-2.3,1.364-.743,2.414-1.436,3.341-1.978,1.755-1.079,2.758-1.693,2.758-1.693Z" transform="translate(-21.742 -13.775)" fill="#59731e"/>
    <path id="Path_1654" data-name="Path 1654" d="M609.489,183.034l-.509.57c-.317.344-.845.951-1.518,1.753-.582.693-1.285,1.536-2.093,2.5-.788.913-1.7,1.883-2.749,2.9-1.039.972-2.343,2.055-3.6,3q-1.123.764-2.309,1.569c-.758.463-1.534.937-2.322,1.423a89.153,89.153,0,0,1-10.946,5.258c-7.764,3.157-15.915,5.622-22,7.5-6.1,1.857-10.652,3.254-10.652,3.254s4.668-.9,10.95-2.01c6.28-1.141,14.675-2.6,23.012-4.866a93.9,93.9,0,0,0,12.139-4.131c.961-.41,1.922-.881,2.858-1.313.859-.442,1.7-.876,2.514-1.3a52.4,52.4,0,0,0,4.77-2.973c1.4-1.024,2.641-2.021,3.683-2.936.987-.9,1.851-1.678,2.562-2.32.607-.547,1.093-.986,1.5-1.32.38-.323.583-.5.583-.5Z" transform="translate(-23.144 -14.331)" fill="#59731e"/>
    <path id="Path_1655" data-name="Path 1655" d="M630.659,184.09s.657-.957,1.8-2.629c1.154-1.707,2.776-3.981,4.785-6.781,4.023-5.607,9.711-12.931,15.049-20.636,1.346-1.914,2.629-3.884,3.875-5.824,1.2-1.984,2.424-3.89,3.446-5.856,1.092-1.913,1.994-3.848,2.859-5.675.795-1.855,1.542-3.609,2.1-5.278a47.549,47.549,0,0,0,1.362-4.591,34.639,34.639,0,0,0,.766-3.6c.3-2.01.47-3.155.47-3.155l-.826,3.075a34.588,34.588,0,0,1-1.155,3.441,45.935,45.935,0,0,1-1.837,4.322c-.726,1.558-1.649,3.183-2.617,4.881-1.038,1.67-2.12,3.43-3.389,5.164-1.19,1.769-2.6,3.5-3.972,5.269-1.431,1.747-2.885,3.511-4.409,5.228-6.051,6.9-12.534,13.527-17.243,18.724-2.357,2.595-4.363,4.825-5.662,6.345-1.327,1.53-2.089,2.407-2.089,2.407Z" transform="translate(-31.712 -6.96)" fill="#59731e"/>
    <path id="Path_1656" data-name="Path 1656" d="M617.33,186.436l-6.086,6.719c-.453.487-.92,1.044-1.413,1.532-.5.471-1.006.955-1.535,1.452s-1.066,1.02-1.623,1.55c-.615.456-1.248.921-1.89,1.387s-1.307.962-1.972,1.447l-.507.37a4.538,4.538,0,0,1-.5.313l-1.151.682c-1.553.973-3.081,1.752-4.632,2.58s-3.215,1.551-4.8,2.325c-1.624.677-3.22,1.392-4.789,2.009-1.58.581-3.1,1.194-4.576,1.687-1.482.475-2.878.923-4.17,1.34-1.316.353-2.518.675-3.583.963-1.071.317-2.82.6-3.6.789-1.562.321-2.455.509-2.455.509s.91-.057,2.506-.15c.793-.07,2.576-.218,3.676-.378,1.111-.134,2.36-.284,3.729-.446,1.361-.224,2.832-.474,4.389-.735,1.557-.277,3.18-.673,4.875-1.03,1.681-.392,3.406-.876,5.175-1.328,1.74-.558,3.515-1.044,5.295-1.678s3.6-1.272,5.212-1.98l1.24-.514c.234-.1.343-.132.682-.3l.619-.323,2.44-1.291c.8-.432,1.595-.853,2.369-1.272.72-.5,1.424-1,2.107-1.479s1.357-.959,2-1.415,1.152-.933,1.7-1.373c4.244-3.5,7.072-5.834,7.072-5.834Z" transform="translate(-25.165 -14.73)" fill="#59731e"/>
    <path id="Path_1657" data-name="Path 1657" d="M575.022,146.186s1.808-4.338,4.523-10.846c.675-1.627,1.416-3.39,2.195-5.262.8-1.842,1.558-3.888,2.357-5.977s1.677-4.217,2.318-6.521,1.52-4.527,1.975-6.9c.478-2.357.952-4.717,1.415-7.04.215-2.349.421-4.659.622-6.893a49.418,49.418,0,0,0,.117-6.42c-.03-2.034-.058-3.956-.083-5.73-.691-7.026-1.157-11.712-1.157-11.712s-.064,4.687-.164,11.719c-.17,1.741-.358,3.627-.554,5.622a48.088,48.088,0,0,1-.811,6.211c-.434,2.116-.881,4.3-1.334,6.522-.693,2.148-1.393,4.328-2.093,6.508-.677,2.178-1.769,4.237-2.608,6.316s-1.934,4.053-2.92,5.979-1.929,3.775-2.941,5.537c-.978,1.76-1.9,3.421-2.757,4.958-3.426,6.156-5.708,10.262-5.708,10.262Z" transform="translate(-25.09 -1.435)" fill="#59731e"/>
    <path id="Path_1658" data-name="Path 1658" d="M565.03,152.181s-.509.6-1.4,1.655c-.409.373-.846.668-1.363,1.154-.645.456-1.507,1-2.414,1.565-1,.5-2.015,1.119-3.228,1.643-1.185.544-2.447,1.116-3.805,1.649-2.68,1.109-5.644,2.183-8.6,3.288s-5.944,2.2-8.686,3.4a58.535,58.535,0,0,0-7.323,3.646,31.9,31.9,0,0,0-2.686,1.874,22.28,22.28,0,0,0-1.867,1.685c-.881,1.07-1.379,1.686-1.379,1.686s.563-.543,1.565-1.487a22.808,22.808,0,0,1,2.019-1.408,31.15,31.15,0,0,1,2.814-1.474,57.913,57.913,0,0,1,7.529-2.633c2.806-.822,5.87-1.524,8.929-2.251s6.157-1.423,9.068-2.216c1.458-.372,2.863-.8,4.205-1.228,1.34-.386,2.605-.943,3.78-1.362,1.182-.533,2.235-1.024,3.223-1.557,1.026-.66,1.987-1.3,2.628-1.8,1.02-.935,1.6-1.471,1.6-1.471Z" transform="translate(-19.805 -10.719)" fill="#59731e"/>
    <path id="Path_1659" data-name="Path 1659" d="M600.751,161.421s.716-.894,1.972-2.454c.314-.389.662-.825,1.045-1.293.377-.564.787-1.177,1.229-1.826a36.077,36.077,0,0,0,2.667-4.4c.426-.814.891-1.65,1.331-2.539.38-.906.778-1.846,1.186-2.809a24.052,24.052,0,0,0,1.113-3c.335-1.037.7-2.086,1.02-3.164.532-2.184,1.144-4.411,1.492-6.715.466-2.29.674-4.633.964-6.956.163-2.33.377-4.654.415-6.936.106-2.281.077-4.522.093-6.68-.054-4.324-.192-8.337-.345-11.773-.272-6.866-.449-11.438-.449-11.438s-.347,4.564-.868,11.418c-.244,3.426-.57,7.412-1.008,11.655-.262,2.12-.485,4.31-.845,6.506-.291,2.209-.757,4.411-1.167,6.618-.53,2.173-.982,4.361-1.663,6.433-.566,2.107-1.38,4.076-2.081,6-.405.942-.841,1.842-1.245,2.734a20.161,20.161,0,0,1-1.3,2.54q-.675,1.2-1.317,2.335c-.486.709-.959,1.4-1.409,2.057A28.03,28.03,0,0,1,599,151.068c-.388.47-.754.907-1.09,1.316-.43.421-.822.811-1.18,1.163-1.431,1.407-2.243,2.211-2.243,2.211Z" transform="translate(-28.26 -3.373)" fill="#59731e"/>
    <path id="Path_1660" data-name="Path 1660" d="M600.289,173.812s-.185.163-.535.463c-.173.146-.381.328-.63.54-.216.171-.465.371-.746.592-.558.44-1.387,1.053-2.318,1.7s-2.034,1.384-3.241,2.167A194.261,194.261,0,0,1,574.3,189.75c-3.431,1.609-7.176,3.123-10.524,4.552-3.392,1.422-6.571,2.716-9.316,3.769s-5.054,1.865-6.7,2.335a12.949,12.949,0,0,1-1.929.433,2.091,2.091,0,0,1-.7-.01,2.153,2.153,0,0,0,.7.1,12.855,12.855,0,0,0,2-.183c1.713-.257,4.127-.771,7-1.467s6.211-1.579,9.773-2.556c3.593-1.006,7.289-2,11.183-3.191a198.428,198.428,0,0,0,20.43-8.055c1.375-.64,2.628-1.24,3.745-1.807,1.132-.574,2.06-1.067,2.931-1.58.893-.519,1.54-.918,1.889-1.156l.589-.381Z" transform="translate(-22.481 -13.252)" fill="#59731e"/>
    <path id="Path_1661" data-name="Path 1661" d="M589.327,155.041s.378-1.029,1.037-2.833c.675-1.827,1.6-4.22,2.84-7.289s2.677-6.62,4.224-10.439c1.528-3.855,3.078-8.034,4.456-12.273.626-2.153,1.31-4.269,1.8-6.422.575-2.122.94-4.271,1.331-6.323.27-2.083.615-4.08.681-6,.049-.955.1-1.887.142-2.788s-.039-1.77-.05-2.6c-.034-.831-.031-1.628-.1-2.384-.094-.75-.182-1.463-.263-2.133a23,23,0,0,0-.564-3.435c-.414-1.878-.657-2.948-.657-2.948s.111,1.091.3,3a22.877,22.877,0,0,1,.143,3.434c0,.659,0,1.366,0,2.107-.026.74-.123,1.517-.186,2.326-.082.811-.116,1.65-.249,2.516-.151.86-.307,1.751-.463,2.665-.286,1.824-.852,3.711-1.346,5.66-.619,1.924-1.2,3.914-2,5.88-.71,1.993-1.626,3.96-2.47,5.933-1.814,3.917-3.793,7.765-5.743,11.347-1.982,3.594-3.836,6.943-5.426,9.824-1.592,2.856-2.954,5.437-3.816,7.12-.867,1.71-1.37,2.687-1.37,2.687Z" transform="translate(-26.749 -3.108)" fill="#59731e"/>
    <path id="Path_1662" data-name="Path 1662" d="M577.2,156.91s-.682.521-1.879,1.433c-1.159.863-2.809,2.064-4.9,3.514-4.166,2.864-9.884,6.505-15.821,9.784-1.5.788-2.977,1.632-4.476,2.354-1.484.764-2.966,1.474-4.414,2.123a79.428,79.428,0,0,1-8.076,3.2c-1.22.341-2.329.744-3.345.942s-1.891.449-2.63.538c-1.486.178-2.337.273-2.337.273s.859.035,2.365.09c.758.026,1.67-.081,2.725-.128s2.23-.276,3.529-.433a81.1,81.1,0,0,0,8.684-1.965c1.568-.432,3.186-.919,4.807-1.459,1.638-.5,3.258-1.12,4.908-1.683,6.531-2.389,12.919-5.187,17.646-7.464,2.348-1.136,4.349-2.165,5.721-2.9,1.324-.714,2.077-1.126,2.077-1.126Z" transform="translate(-20.63 -11.273)" fill="#59731e"/>
    <path id="Path_1663" data-name="Path 1663" d="M594.558,159.595a13.12,13.12,0,0,0,1-2.137c.259-.71.517-1.587.871-2.5.358-.931.7-1.994,1.208-3.151.931-2.326,2.181-4.994,3.575-7.871s2.944-5.966,4.294-9.182c.685-1.6,1.267-3.252,1.817-4.885a47.005,47.005,0,0,0,1.24-4.894,42.123,42.123,0,0,0,.683-4.653c.136-1.482.12-2.9.183-4.189-.054-1.288-.1-2.473-.14-3.52-.027-1.047-.19-1.952-.257-2.7-.167-1.493-.26-2.343-.26-2.343s.008.855.022,2.352c-.014.747.058,1.658-.018,2.692s-.14,2.206-.221,3.475c-.189,1.266-.315,2.631-.6,4.058a47.129,47.129,0,0,1-2.638,8.994c-.659,1.516-1.348,3.037-2.141,4.522-1.558,2.983-3.33,5.875-4.984,8.635-1.648,2.776-3.174,5.405-4.357,7.758-.623,1.146-1.116,2.3-1.583,3.27a23.961,23.961,0,0,0-1.08,2.537,13.474,13.474,0,0,0-.592,2.292Z" transform="translate(-27.804 -5.497)" fill="#59731e"/>
    <path id="Path_1664" data-name="Path 1664" d="M563.635,140.029s.353-1,.978-2.763c.307-.9.686-1.951,1.152-3.069.46-1.143.939-2.43,1.591-3.872,1.223-2.878,2.794-6.234,4.468-9.883.822-1.848,1.717-3.722,2.527-5.717.852-1.956,1.609-4.026,2.357-6.083a57.733,57.733,0,0,0,1.737-6.354A22.475,22.475,0,0,0,579,99.1a31.141,31.141,0,0,0,.314-3.137c.011-1.034.033-2.047.049-3.044-.005-.991-.166-1.959-.238-2.893a34.236,34.236,0,0,0-.925-5.186,42.386,42.386,0,0,0-1.32-4.213,23.675,23.675,0,0,0-1.3-3.121c-.785-1.694-1.228-2.661-1.228-2.661s.322,1.014.888,2.786a23.915,23.915,0,0,1,.894,3.218,41.747,41.747,0,0,1,.773,4.234,32.6,32.6,0,0,1,.263,5.034c-.042.888,0,1.8-.117,2.727s-.259,1.862-.4,2.816A28.549,28.549,0,0,1,576,98.517a19.178,19.178,0,0,1-.874,2.864,52.989,52.989,0,0,1-2.333,5.666c-.946,1.844-1.879,3.683-2.937,5.456-1,1.786-2.1,3.522-3.123,5.212-2.1,3.384-4.1,6.558-5.737,9.386-.837,1.377-1.566,2.763-2.227,3.952-.686,1.211-1.2,2.236-1.6,3.058-.832,1.671-1.31,2.624-1.31,2.624Z" transform="translate(-23.738 -1.665)" fill="#59731e"/>
    <path id="Path_1665" data-name="Path 1665" d="M529.354,134.3s-.527.346-1.452.947c-.457.313-1.024.658-1.652,1.118-.634.49-1.351,1.047-2.132,1.655-.8.6-1.535,1.285-2.377,1.989-.818.694-1.681,1.428-2.574,2.187a63.4,63.4,0,0,1-5.805,4.393,76.053,76.053,0,0,1-11.931,6.748c-1.712.781-3.2,1.3-4.239,1.663l-1.663.5,1.723-.255c1.093-.209,2.658-.507,4.5-1.037a66.41,66.41,0,0,0,12.96-5.4c2.256-1.2,4.48-2.551,6.483-3.878,1.948-1.341,3.765-2.592,5.326-3.663.741-.517,1.421-.99,2.024-1.408.644-.416,1.208-.773,1.667-1.075.925-.606,1.452-.954,1.452-.954Z" transform="translate(-16.674 -8.625)" fill="#59731e"/>
    <path id="Path_1666" data-name="Path 1666" d="M489.8,127.178s-.361.311-.993.861-1.527,1.359-2.614,2.2c-2.123,1.756-5.221,4.07-8.242,6.4-3.021,2.354-6.061,4.7-8.171,6.673-.526.5-1.038.9-1.441,1.336l-1.046,1.1c-.576.606-.9.95-.9.95l1.022-.818c.329-.259.723-.576,1.175-.935s1.015-.705,1.6-1.11c2.326-1.641,5.634-3.537,8.928-5.441,3.328-1.893,6.638-3.714,9.174-5.274,1.293-.747,2.258-1.411,2.966-1.867s1.1-.718,1.1-.718Z" transform="translate(-13.263 -7.792)" fill="#59731e"/>
    <path id="Path_1667" data-name="Path 1667" d="M549.53,134.836s.333-1,.922-2.737c.584-1.76,1.4-4.27,2.314-7.317A147.024,147.024,0,0,0,557.843,102a71.9,71.9,0,0,0,.59-12.513,35.838,35.838,0,0,0-2.056-10.734,20.5,20.5,0,0,0-1.911-3.918,16.167,16.167,0,0,0-2-2.662,12.7,12.7,0,0,0-1.519-1.488c-.367-.321-.564-.5-.564-.5s.173.2.5.562a13.144,13.144,0,0,1,1.307,1.643,16.492,16.492,0,0,1,1.6,2.808,20.019,20.019,0,0,1,1.332,3.939,33.838,33.838,0,0,1,.645,10.318,67.665,67.665,0,0,1-2.065,11.749,141.584,141.584,0,0,1-7.616,21.116c-1.248,2.81-2.348,5.13-3.124,6.745-.789,1.63-1.241,2.558-1.241,2.558Z" transform="translate(-22.081 -1.119)" fill="#59731e"/>
    <path id="Path_1668" data-name="Path 1668" d="M548.5,143.249a10.641,10.641,0,0,0-1.945.263c-.63.218-1.414.456-2.278.821l-2.726,1.216c-3.94,1.811-9,4.424-14.028,7.069s-10.046,5.284-13.813,7.27c-1.888.966-3.475,1.761-4.614,2.233a8.094,8.094,0,0,1-1.343.5c-.325.082-.5.129-.5.129s.178-.029.509-.073a8.6,8.6,0,0,0,1.4-.337c1.2-.35,2.87-.966,4.861-1.711,3.984-1.527,9.24-3.692,14.5-5.816s10.53-4.2,14.5-5.575c2.015-.7,3.6-1.166,4.7-1.474,1.212-.279,1.9-.442,1.9-.442Z" transform="translate(-18.047 -9.673)" fill="#59731e"/>
    <path id="Path_1669" data-name="Path 1669" d="M555.887,136.194s.339-1.072.947-2.952c.312-.921.637-2.129,1.033-3.47.394-1.311.837-2.8,1.322-4.412.456-1.615,1.06-3.275,1.688-5.053.587-1.773,1.415-3.714,2.116-5.722a99.2,99.2,0,0,0,3.782-12.954,54.327,54.327,0,0,0,1.268-13.451,40.9,40.9,0,0,0-2.191-11.505,80.975,80.975,0,0,1-2.5-7.758,17.045,17.045,0,0,1-.336-2.253c-.025-.524-.041-.8-.041-.8s-.009.282-.026.809a16.137,16.137,0,0,0,.143,2.292,79.875,79.875,0,0,0,1.838,7.974,39.589,39.589,0,0,1,1.17,11.246,52.049,52.049,0,0,1-2.3,12.694,97.577,97.577,0,0,1-4.68,12.09c-.9,1.906-1.776,3.75-2.6,5.5-.845,1.807-1.655,3.518-2.272,5.108-.636,1.571-1.223,3.011-1.74,4.286-.5,1.255-.9,2.325-1.308,3.237l-1.225,2.847Z" transform="translate(-23.048 -0.613)" fill="#59731e"/>
    <path id="Path_1670" data-name="Path 1670" d="M550.358,144.148s-.09.1-.26.305a4.673,4.673,0,0,1-.695.622,40.6,40.6,0,0,1-4.122,2.809c-.9.548-1.9,1.12-2.965,1.682-.531.274-1.077.548-1.638.812l-1.823.809c-1.254.541-2.583,1.156-3.942,1.818-1.336.66-2.672,1.331-3.98,2.053-5.284,2.824-10.158,6.145-14.162,7.832a20.45,20.45,0,0,1-2.794.981,15.28,15.28,0,0,1-2.254.443,12.575,12.575,0,0,1-1.485.1l-.531.021s.18.019.528.051a12.247,12.247,0,0,0,1.5.1,15.431,15.431,0,0,0,2.355-.125,21.791,21.791,0,0,0,3.01-.612c4.377-1.179,9.724-3.837,15.18-5.838,1.356-.523,2.74-.992,4.079-1.434s2.66-.845,4.012-1.22q1.017-.3,2-.586c.677-.218,1.325-.448,1.953-.681,1.25-.463,2.4-.947,3.458-1.416a47.294,47.294,0,0,0,5.078-2.6,11.706,11.706,0,0,0,1.675-1.193l.486-.451Z" transform="translate(-18.334 -9.779)" fill="#59731e"/>
    <path id="Path_1671" data-name="Path 1671" d="M509.337,125.731s-.015-.71-.036-1.954c-.012-.626-.026-1.382-.042-2.251.014-.849-.109-1.894-.191-2.992-.113-1.1-.135-2.311-.348-3.548-.192-1.237-.389-2.542-.6-3.892-.3-1.331-.6-2.7-.9-4.1-.411-1.374-.755-2.785-1.221-4.158-.5-1.363-.916-2.749-1.5-4.047-.527-1.324-1.1-2.6-1.712-3.8-.563-1.227-1.251-2.345-1.829-3.431-.655-1.049-1.232-2.063-1.856-2.942a51.014,51.014,0,0,0-3.1-4.156c-.4-.479-.713-.853-.927-1.108s-.3-.413-.3-.413.079.155.261.44.471.679.826,1.2a50.863,50.863,0,0,1,2.673,4.386c.535.917,1.006,1.972,1.555,3.05.466,1.12,1.035,2.264,1.469,3.516.489,1.225.93,2.514,1.317,3.842.454,1.308.73,2.69,1.089,4.04.326,1.359.528,2.75.8,4.094l.5,4c.072,1.3.15,2.562.223,3.757.1,1.2.006,2.3.022,3.336-.024,1.035.014,1.944-.078,2.828-.066.865-.124,1.621-.171,2.244-.092,1.24-.146,1.952-.146,1.952Z" transform="translate(-16.586 -2.612)" fill="#59731e"/>
    <path id="Path_1672" data-name="Path 1672" d="M516.988,132.07s-.1.107-.294.308-.487.526-.817.839a35.717,35.717,0,0,1-2.971,2.6,79.136,79.136,0,0,1-10.561,6.924c-4.082,2.275-8.315,4.385-11.455,6.1a36.664,36.664,0,0,0-3.725,2.231,5.637,5.637,0,0,0-.939.8,1.55,1.55,0,0,0-.244.353,1.61,1.61,0,0,1,.313-.283,5.542,5.542,0,0,1,1.056-.53c.955-.383,2.366-.813,4.05-1.357,3.4-1.046,7.94-2.474,12.391-4.283,2.228-.9,4.449-1.866,6.485-2.9a59.022,59.022,0,0,0,5.465-3.135,38.742,38.742,0,0,0,3.688-2.785l.927-.819c.2-.186.312-.284.312-.284Z" transform="translate(-15.556 -8.364)" fill="#59731e"/>
    <path id="Path_1673" data-name="Path 1673" d="M523.931,134.227l-1.149.958a9.164,9.164,0,0,1-1.271.954c-.5.32-.951.661-1.655,1.094l-2.258,1.409c-.79.525-1.618,1.08-2.477,1.649-1.693,1.143-3.5,2.352-5.3,3.562a28.03,28.03,0,0,1-2.719,1.711c-.919.518-1.819,1.03-2.694,1.524-1.738,1.007-3.393,1.929-4.865,2.61-2.9,1.476-4.9,2.339-4.9,2.339s2.1-.55,5.208-1.572c1.579-.458,3.367-1.123,5.295-1.876.969-.369,1.967-.752,2.982-1.14a30.79,30.79,0,0,0,3-1.3c1.97-.93,3.937-1.853,5.78-2.72.915-.428,1.8-.836,2.635-1.228.848-.363,1.647-.708,2.39-1.028s1.569-.73,2.228-1.043a13.386,13.386,0,0,0,1.62-.874c.813-.5,1.279-.775,1.279-.775Z" transform="translate(-16.57 -8.617)" fill="#59731e"/>
    <path id="Path_1674" data-name="Path 1674" d="M533.354,130.135s.137-.283.4-.809a11.263,11.263,0,0,0,.5-1.078c.226-.585.47-1.265.713-2.031a27.835,27.835,0,0,0,.788-4.573,46.582,46.582,0,0,0,.132-5.548c-.072-1.992-.241-4.106-.509-6.31s-.626-4.5-1.076-6.856-.965-4.768-1.589-7.2c-.31-1.219-.644-2.437-1.01-3.676l-.034-.113-.087-.277-.008-.026-.024-.053-.093-.216-.184-.426-.373-.857-.749-1.715-.748-1.711-.992-1.728c-.668-1.135-1.335-2.265-1.99-3.382q-1.138-1.53-2.247-3.017c-.375-.494-.742-.985-1.1-1.474-.415-.448-.822-.893-1.229-1.335q-1.206-1.32-2.374-2.591c-.81-.807-1.674-1.534-2.469-2.274A47.825,47.825,0,0,0,512.249,67a42.712,42.712,0,0,0-4.268-2.862c-.649-.4-1.251-.781-1.813-1.131-.588-.3-1.131-.577-1.617-.826l-3.059-1.557s1.046.679,2.875,1.869c.455.293.956.624,1.5.978l1.671,1.308a40.662,40.662,0,0,1,3.872,3.245,45.656,45.656,0,0,1,4.2,4.224c.7.792,1.444,1.571,2.135,2.426q.984,1.33,2,2.711c.34.458.682.919,1.023,1.387.3.492.6.994.891,1.5l1.8,3.035q.722,1.579,1.443,3.177l.721,1.58.561,1.784.565,1.782.277.889.136.447.072.222.017.057.012.023c-.156-.488-.042-.119-.072-.22l.015.108c.219,1.187.411,2.373.585,3.556.349,2.374.587,4.732.781,6.994.186,2.277.29,4.469.325,6.532s-.021,4-.146,5.739a38.733,38.733,0,0,1-.6,4.605,19.889,19.889,0,0,1-.869,3.1,4.943,4.943,0,0,0-.307.695,6.144,6.144,0,0,1-.486.823c-.315.491-.479.753-.479.753Z" transform="translate(-17.372)" fill="#59731e"/>
    <path id="Path_1675" data-name="Path 1675" d="M524.9,128.684s.1-.28.273-.8c.087-.264.2-.589.324-.973.125-.467.267-1.01.427-1.613a28.093,28.093,0,0,0,.615-4.124,36.275,36.275,0,0,0,.028-5.207,55.241,55.241,0,0,0-2.416-12.37c-.663-2.174-1.447-4.381-2.356-6.572-.449-1.132-.9-2.121-1.451-3.345-.564-1.048-1-2.066-1.723-3.168a33.028,33.028,0,0,0-4.481-5.836,51.041,51.041,0,0,0-5.168-4.666c-3.532-2.758-6.965-5.016-9.838-7.057-2.881-2.025-5.2-3.824-6.776-5.136-1.566-1.335-2.436-2.128-2.436-2.128s.793.864,2.247,2.331c1.463,1.451,3.632,3.457,6.344,5.735,2.692,2.29,5.931,4.849,9.117,7.813a48.79,48.79,0,0,1,4.519,4.845,30.445,30.445,0,0,1,3.6,5.6,32.521,32.521,0,0,1,1.373,3.155c.329.943.757,2.113,1.07,3.165.7,2.153,1.267,4.3,1.723,6.388a50.456,50.456,0,0,1,1.284,11.391,31.157,31.157,0,0,1-.383,4.393,20.947,20.947,0,0,1-.742,3.162c-.128.388-.237.727-.343,1.024-.155.366-.29.675-.4.926-.221.505-.341.776-.341.776Z" transform="translate(-16.018 -0.593)" fill="#59731e"/>
    <path id="Path_1676" data-name="Path 1676" d="M542.271,131.212l.194-.777c.11-.525.318-1.214.512-2.242a70.628,70.628,0,0,0,1.211-8.217c.313-3.384.445-7.315.678-11.436.13-2.061.274-4.188.563-6.313.252-2.109.731-4.265,1.115-6.478a38.138,38.138,0,0,0,.515-6.8,31.036,31.036,0,0,0-.764-6.535,27.411,27.411,0,0,0-2.02-5.794,24.513,24.513,0,0,0-2.96-4.6,23.026,23.026,0,0,0-3.233-3.265,24.454,24.454,0,0,0-2.859-2.069c-.808-.55-1.522-.846-1.97-1.111-.46-.244-.706-.376-.706-.376l.684.417c.428.293,1.12.63,1.889,1.225a24.48,24.48,0,0,1,2.7,2.211,22.764,22.764,0,0,1,2.957,3.38,23.667,23.667,0,0,1,2.58,4.606,26.546,26.546,0,0,1,1.595,5.641,28.986,28.986,0,0,1,.333,6.249,34.826,34.826,0,0,1-.864,6.37c-.514,2.153-1.119,4.31-1.521,6.53-.427,2.2-.7,4.367-.949,6.454-.479,4.188-.833,8.031-1.323,11.27a66,66,0,0,1-1.574,7.653c-.215.874-.482,1.647-.62,2.13-.155.5-.235.769-.235.769Z" transform="translate(-21.008 -0.535)" fill="#59731e"/>
    <path id="Path_1677" data-name="Path 1677" d="M543.176,140.205s-.149.044-.424.121c-.294.092-.654.162-1.229.373s-1.339.506-2.073.845c-.69.351-1.5.714-2.325,1.169-3.33,1.758-7.514,4.33-11.68,6.911s-8.3,5.163-11.522,6.9a29,29,0,0,1-3.985,1.884,5.216,5.216,0,0,1-1.183.328c-.282.05-.437.083-.437.083s.156-.013.444-.041a5.041,5.041,0,0,0,1.23-.2,28.888,28.888,0,0,0,4.213-1.458c3.42-1.393,7.844-3.531,12.256-5.65s8.828-4.207,12.162-5.53c.826-.344,1.586-.587,2.257-.845.6-.177,1.122-.335,1.553-.466s.917-.167,1.18-.22c.286-.05.433-.073.433-.073Z" transform="translate(-18.171 -9.317)" fill="#59731e"/>
    <path id="Path_1678" data-name="Path 1678" d="M519.14,126.865s.132-.909.358-2.5l.091-.627c.009-.276.02-.564.034-.865.015-.607.03-1.268.045-1.965a26.423,26.423,0,0,0-.351-4.325c-.183-1.53-.645-3.084-1.023-4.754-.561-1.6-.994-3.338-1.757-4.988q-.534-1.25-1.077-2.536-.626-1.238-1.263-2.5c-.83-1.69-1.859-3.292-2.82-4.916-1.063-1.569-2.057-3.162-3.209-4.619-1.079-1.5-2.252-2.888-3.384-4.221s-2.326-2.54-3.419-3.706c-1.181-1.086-2.219-2.181-3.3-3.058s-2.015-1.742-2.958-2.374-1.676-1.277-2.387-1.668c-1.381-.833-2.164-1.308-2.164-1.308s.7.581,1.945,1.6c.637.478,1.293,1.214,2.1,1.967s1.622,1.715,2.536,2.719,1.777,2.21,2.753,3.407c.893,1.278,1.869,2.589,2.763,4.023s1.816,2.909,2.629,4.477c.89,1.527,1.606,3.173,2.384,4.77.676,1.648,1.414,3.261,1.944,4.913.278.818.548,1.633.815,2.433.212.814.428,1.612.631,2.4.471,1.564.606,3.111.9,4.542.1,1.436.315,2.793.266,4.011a18.931,18.931,0,0,1-.2,3.157c-.058.411-.117.8-.17,1.155-.022.177-.049.351-.071.514-.057.209-.118.415-.173.606-.455,1.544-.718,2.419-.718,2.419Z" transform="translate(-16.091 -1.792)" fill="#59731e"/>
    <path id="Path_1679" data-name="Path 1679" d="M511.134,132.29s-.032.115-.1.333c.06-.06-.091.271-.315.565a9.383,9.383,0,0,1-1.171,1.248c-.539.508-1.213,1.068-1.99,1.829-.657.607-1.458,1.363-2.248,2.017-.786.689-1.7,1.4-2.621,2.139-1.87,1.451-3.925,2.936-6.015,4.385-4.188,2.89-8.527,5.591-11.851,7.479-1.671.929-3.075,1.693-4.086,2.161-1.008.486-1.608.711-1.608.711s.618-.17,1.67-.559,2.535-1,4.29-1.778c3.514-1.58,8.107-3.871,12.6-6.382,2.239-1.263,4.463-2.573,6.512-3.876,1.021-.671,2-1.3,2.937-1.967.968-.667,1.733-1.271,2.551-1.889a31.836,31.836,0,0,0,3.944-2.849,5.773,5.773,0,0,0,1.191-1.539c.165-.338.253-.516.253-.516Z" transform="translate(-14.754 -8.39)" fill="#59731e"/>
    <path id="Path_1680" data-name="Path 1680" d="M535.525,136.858s-.165.059-.476.174c-.339.142-.716.235-1.414.558a26.515,26.515,0,0,0-2.4,1.215c-.8.47-1.7,1-2.606,1.611-3.7,2.415-8.2,5.842-12.846,9.038-2.318,1.592-4.675,3.134-6.949,4.454a54.21,54.21,0,0,1-6.4,3.272,24.471,24.471,0,0,1-2.683,1.044,15.762,15.762,0,0,1-2.126.656l-1.9.47,1.95-.2a15.416,15.416,0,0,0,2.222-.361,26.2,26.2,0,0,0,2.862-.667,56.79,56.79,0,0,0,6.958-2.415c2.5-1.016,5.1-2.24,7.667-3.525,5.126-2.558,10.119-5.358,13.849-7.1.933-.462,1.776-.8,2.518-1.1.779-.345,1.221-.408,1.686-.6.444-.157,1.039-.245,1.328-.323.325-.069.5-.109.5-.109Z" transform="translate(-16.697 -8.925)" fill="#59731e"/>
    <path id="Path_1681" data-name="Path 1681" d="M501,123.331s.084-.909.225-2.489c.067-.8.067-1.879.1-3.058-.051-1.163-.049-2.474-.219-3.877-.253-2.824-.876-6.008-1.462-9.325l-.221-1.256L499.164,102q-.264-1.286-.532-2.6a55.654,55.654,0,0,0-1.583-5.373,24.35,24.35,0,0,0-1.039-2.6,20.66,20.66,0,0,0-1.248-2.492A24.482,24.482,0,0,0,491.65,84.5c-.573-.664-1.218-1.241-1.812-1.836-.654-.526-1.259-1.086-1.914-1.542a35.284,35.284,0,0,0-3.758-2.386c-2.4-1.331-4.441-2.307-5.839-3.065s-2.184-1.207-2.184-1.207l2.086,1.378c1.333.863,3.306,2.012,5.561,3.506a32.612,32.612,0,0,1,3.472,2.605c.594.483,1.123,1.062,1.709,1.605.514.611,1.079,1.195,1.567,1.863a22.916,22.916,0,0,1,2.571,4.355,19.17,19.17,0,0,1,.979,2.417,22.8,22.8,0,0,1,.785,2.52c.494,1.7.768,3.434,1.082,5.12.212,1.767.419,3.5.619,5.181.4,3.417.8,6.519.869,9.13.079,1.311,0,2.5-.016,3.545-.1,1.034-.137,1.888-.245,2.662-.24,1.571-.376,2.472-.376,2.472Z" transform="translate(-14.404 -1.62)" fill="#59731e"/>
    <path id="Path_1682" data-name="Path 1682" d="M506.36,130.058s-.078.119-.228.346-.367.592-.611.9a26.864,26.864,0,0,1-2.508,2.939c-1.15,1.2-2.58,2.552-4.182,3.956-.814.7-1.654,1.422-2.5,2.16-.845.72-1.784,1.494-2.62,2.321a42.542,42.542,0,0,1-5.168,4.1,39.6,39.6,0,0,1-5.028,2.931,24.291,24.291,0,0,1-3.846,1.5c-.967.269-1.535.382-1.535.382s.575-.042,1.573-.2a24.387,24.387,0,0,0,4.062-1.067,40.931,40.931,0,0,0,5.465-2.385,44.178,44.178,0,0,0,5.87-3.641c.886-.695,1.8-1.287,2.755-1.934.939-.64,1.865-1.272,2.765-1.881,1.792-1.246,3.443-2.479,4.823-3.622a30.687,30.687,0,0,0,3.259-3.063c.419-.448.628-.729.811-.94s.26-.325.26-.325Z" transform="translate(-14.637 -8.129)" fill="#59731e"/>
    <path id="Path_1683" data-name="Path 1683" d="M500.377,129.964s-.056.125-.163.351a4.728,4.728,0,0,1-.454.854,12.669,12.669,0,0,1-.778,1.168c-.353.5-.775,1.064-1.285,1.658a43.643,43.643,0,0,1-3.661,3.921c-.7.687-1.495,1.323-2.266,2.016-.832.61-1.643,1.28-2.52,1.867-7.2,4.842-14.418,9.687-14.418,9.687s7.744-3.935,15.486-7.864c1-.5,1.946-1.105,2.909-1.649.9-.63,1.83-1.206,2.661-1.842a46.474,46.474,0,0,0,4.41-3.7c.622-.569,1.171-1.142,1.648-1.663a14.227,14.227,0,0,0,1.3-1.55,8.633,8.633,0,0,0,.7-1.019l.2-.335Z" transform="translate(-14.251 -8.118)" fill="#59731e"/>
    <path id="Path_1684" data-name="Path 1684" d="M495.634,122.559s-.024-.94-.072-2.578c.017-.756-.161-2.014-.266-3.262-.1-1.327-.382-2.633-.637-4.117-.222-1.479-.687-3.009-1.06-4.66-.471-1.618-.96-3.322-1.563-5.047a79.593,79.593,0,0,0-4.487-10.443c-.918-1.7-1.841-3.391-2.868-4.986a52.938,52.938,0,0,0-3.2-4.552,49.483,49.483,0,0,0-3.382-3.939,44.841,44.841,0,0,0-3.449-3.1,24.634,24.634,0,0,0-3.239-2.188,18.545,18.545,0,0,0-2.675-1.332c-1.556-.537-2.444-.846-2.444-.846s.829.425,2.285,1.175a17.557,17.557,0,0,1,2.4,1.65,23.713,23.713,0,0,1,2.787,2.518,44.1,44.1,0,0,1,2.842,3.4,46.793,46.793,0,0,1,2.657,4.161,48.432,48.432,0,0,1,2.392,4.692c.751,1.63,1.395,3.345,2.025,5.042a75.452,75.452,0,0,1,2.785,10.268c.325,1.655.551,3.272.768,4.788.12,1.528.347,2.962.356,4.281.031,1.308.119,2.553.042,3.509-.07,1.031-.013,1.752-.143,2.633-.186,1.632-.291,2.561-.291,2.561Z" transform="translate(-13.251 -1.274)" fill="#59731e"/>
    <path id="Path_1685" data-name="Path 1685" d="M476.173,122.179s-.092-.886-.254-2.428c-.042-.388-.09-.823-.14-1.3q-.139-.78-.3-1.693a35.711,35.711,0,0,0-.848-3.914,43.045,43.045,0,0,0-1.324-4.363c-.487-1.533-1.137-3.091-1.821-4.687-.642-1.618-1.52-3.186-2.3-4.815-.926-1.567-1.737-3.208-2.782-4.725l-1.5-2.289c-.547-.735-1.082-1.462-1.619-2.183-1.06-1.447-2.253-2.767-3.372-4.05a44.676,44.676,0,0,0-3.533-3.418,31.745,31.745,0,0,0-3.475-2.693c-1.119-.776-2.259-1.316-3.208-1.853-1.04-.393-1.915-.767-2.659-1.008l-2.406-.483s.828.3,2.28.829c.688.336,1.489.831,2.4,1.341.839.662,1.833,1.323,2.779,2.214A30.329,30.329,0,0,1,455,83.7a42.045,42.045,0,0,1,2.833,3.7c.871,1.369,1.8,2.758,2.586,4.262.4.749.8,1.5,1.205,2.258l1.074,2.345c.755,1.535,1.276,3.186,1.912,4.74.484,1.611,1.08,3.151,1.435,4.7.4,1.538.775,3.025,1,4.446a38.312,38.312,0,0,1,.585,3.99,27.114,27.114,0,0,1,.214,3.247c.018.466.034.9.049,1.309-.016.461-.032.886-.05,1.267-.067,1.553-.109,2.44-.109,2.44Z" transform="translate(-10.716 -1.833)" fill="#59731e"/>
    <path id="Path_1686" data-name="Path 1686" d="M456.094,125.115s-.168-.732-.464-2.005c-.074-.32-.154-.67-.243-1.054q-.2-.64-.428-1.377a26.141,26.141,0,0,0-1.149-3.178c-.235-.552-.481-1.129-.736-1.721-.3-.573-.606-1.161-.923-1.77-.6-1.229-1.412-2.4-2.179-3.658-.858-1.187-1.691-2.452-2.675-3.608-.937-1.2-1.964-2.338-2.986-3.473-4.159-4.468-8.7-8.372-12.018-11.372-3.339-2.983-5.462-5.088-5.462-5.088s1.829,2.367,4.753,5.775c2.9,3.421,6.882,7.9,10.267,12.683.827,1.2,1.655,2.4,2.371,3.634.773,1.2,1.376,2.451,2.009,3.623.537,1.225,1.13,2.362,1.5,3.509.2.566.405,1.111.6,1.643.154.541.294,1.066.431,1.566a20.826,20.826,0,0,1,.586,2.667c.071.391.138.757.2,1.091.035.393.072.753.1,1.081.126,1.3.2,2.043.2,2.043Z" transform="translate(-8.631 -3.065)" fill="#59731e"/>
    <path id="Path_1687" data-name="Path 1687" d="M449.755,126.516s-.416.619-1.146,1.708c-.177.269-.382.57-.6.9-.213.264-.449.554-.7.859a20.756,20.756,0,0,1-1.781,2.067q-.548.568-1.127,1.173c-.426.376-.862.765-1.308,1.159-.875.833-1.942,1.556-2.992,2.372-1.12.728-2.244,1.542-3.5,2.228-1.215.738-2.513,1.4-3.811,2.065-5.261,2.588-10.893,4.624-15.076,6.249-4.195,1.6-6.928,2.814-6.928,2.814s2.869-.836,7.222-1.866c4.351-1.06,10.2-2.329,15.989-4.272,1.439-.509,2.882-1.019,4.281-1.629,1.414-.546,2.75-1.257,4.073-1.894,1.266-.736,2.549-1.382,3.658-2.176.57-.382,1.119-.757,1.652-1.115.507-.405,1-.789,1.468-1.164a25.145,25.145,0,0,0,2.523-2.248c.366-.358.716-.7,1.033-1.006.262-.3.5-.567.72-.811.864-.98,1.361-1.538,1.361-1.538Z" transform="translate(-6.753 -7.714)" fill="#59731e"/>
    <path id="Path_1688" data-name="Path 1688" d="M488.192,122.572s-.038-.783-.111-2.149c-.093-1.4-.252-3.435-.541-5.791-.134-1.187-.342-2.47-.532-3.82-.261-1.349-.456-2.774-.8-4.236-.3-1.468-.688-2.974-1.141-4.493-.184-.762-.509-1.516-.768-2.28l-.432-1.179-.5-1.063a43.383,43.383,0,0,0-2.124-4.214,39.279,39.279,0,0,0-2.424-3.919c-.8-1.251-1.689-2.376-2.516-3.45-.8-1.09-1.674-2.03-2.417-2.943-1.545-1.769-2.834-3.246-3.733-4.279-.856-1.072-1.338-1.683-1.338-1.683s.432.652,1.195,1.791c.809,1.105,1.966,2.684,3.359,4.576.659.967,1.44,1.971,2.139,3.11.724,1.123,1.5,2.3,2.175,3.582a38.071,38.071,0,0,1,2.011,3.954,40.874,40.874,0,0,1,1.723,4.292l.407,1.1.285,1.048c.18.734.419,1.432.535,2.183.3,1.469.55,2.922.72,4.359.218,1.414.286,2.816.43,4.131.073,1.32.166,2.565.2,3.717.08,2.325.072,4.2.052,5.536-.047,1.372-.072,2.153-.072,2.153Z" transform="translate(-13.546 -1.925)" fill="#59731e"/>
    <path id="Path_1689" data-name="Path 1689" d="M444.446,128.37s-.395-.608-1.09-1.653-1.784-2.622-3.1-4.352c-.645-.887-1.4-1.811-2.183-2.8-.762-.992-1.668-1.978-2.548-3.029-.937-1.01-1.874-2.076-2.916-3.089a37.877,37.877,0,0,0-3.291-2.96c-1.2-1.008-2.374-1.693-3.544-2.538-1.173-.8-2.466-1.489-3.633-2.2-1.234-.607-2.4-1.246-3.556-1.717s-2.252-.924-3.285-1.256c-2.056-.705-3.781-1.2-4.973-1.6-1.176-.449-1.848-.7-1.848-.7s.645.323,1.774.883c1.15.518,2.829,1.195,4.778,2.087.986.426,2.01.967,3.083,1.55,1.082.566,2.147,1.3,3.273,1.992,1.06.805,2.173,1.538,3.254,2.447,1.038.919,2.266,1.848,3.186,2.78a36.224,36.224,0,0,1,2.842,3.035c.909,1.037,1.722,2.144,2.534,3.182.764,1.088,1.546,2.1,2.207,3.122.673,1.009,1.324,1.957,1.87,2.865,1.15,1.809,1.982,3.286,2.6,4.376.6,1.107.948,1.737.948,1.737Z" transform="translate(-6.482 -4.665)" fill="#59731e"/>
    <path id="Path_1690" data-name="Path 1690" d="M481.589,122.344s.044-.229.12-.662a12.49,12.49,0,0,0,.177-2.3,31.85,31.85,0,0,0-1.091-7.16,89.711,89.711,0,0,0-3-9.324c-.645-1.681-1.276-3.337-2.069-5.118a33.726,33.726,0,0,0-2.759-5.041,74.388,74.388,0,0,0-6.842-8.79c-2.355-2.644-4.65-5-6.626-7.015s-3.622-3.677-4.738-4.883a22.7,22.7,0,0,1-1.662-1.969,23.162,23.162,0,0,0,1.541,2.072c1.042,1.276,2.592,3.043,4.44,5.168s3.987,4.617,6.153,7.372a73.233,73.233,0,0,1,6.166,8.993,31.812,31.812,0,0,1,2.319,4.933c.6,1.64,1.1,3.445,1.587,5.1a86.027,86.027,0,0,1,2.134,9.2,27.831,27.831,0,0,1,.445,6.336,6.805,6.805,0,0,1-.233,1.482c-.111.424-.174.651-.174.651Z" transform="translate(-11.706 -1.107)" fill="#59731e"/>
    <path id="Path_1691" data-name="Path 1691" d="M495.277,128.7s-.047.117-.15.343c-.182.4-.042.108-.12.326a9.877,9.877,0,0,1-2.161,2.123c-1.127.894-2.62,1.879-4.269,2.931-.839.541-1.71,1.1-2.591,1.663-.878.594-1.763,1.2-2.654,1.8a77.515,77.515,0,0,0-9.083,7.359,25.058,25.058,0,0,0-2.576,2.86,7.7,7.7,0,0,0-.762,1.237,7.946,7.946,0,0,1,.949-1.075,24.429,24.429,0,0,1,2.965-2.323,75.168,75.168,0,0,1,9.96-5.548c.9-.412,1.911-.9,2.809-1.238l2.814-1.061c1.865-.7,3.636-1.39,5.177-2.152a15.731,15.731,0,0,0,3.848-2.48,9.644,9.644,0,0,0,1.153-1.366c.143-.2.221-.309.221-.309Z" transform="translate(-13.792 -7.97)" fill="#59731e"/>
    <path id="Path_1692" data-name="Path 1692" d="M580.149,152.7s.612-.757,1.671-2.083c.527-.6,1.188-1.711,1.916-2.783a42.622,42.622,0,0,0,2.094-3.722c.675-1.374,1.342-2.885,1.993-4.486.609-1.618,1.27-3.307,1.8-5.091,1.152-3.542,2.107-7.362,2.942-11.184,1.677-7.648,2.877-15.3,3.907-21.028C597.483,96.6,598.3,92.8,598.3,92.8s-1.283,3.671-3,9.248c-1.778,5.554-3.752,13.074-6.222,20.342-1.226,3.637-2.558,7.22-4.011,10.433-.687,1.63-1.477,3.122-2.193,4.545-.76,1.39-1.511,2.68-2.238,3.822a34.963,34.963,0,0,1-2.1,2.922c-.69.79-1.073,1.4-1.728,2.03a7.007,7.007,0,0,0-1.135,1.627,4.881,4.881,0,0,0-.25.71Z" transform="translate(-26.029 -3.767)" fill="#59731e"/>
    <path id="Path_1693" data-name="Path 1693" d="M570.709,155.314l-.408.519c-.062.04-.029.05-.162.177a5.478,5.478,0,0,1-.6.482,40.273,40.273,0,0,1-5.626,2.981c-1.283.615-2.688,1.3-4.161,2.069-1.467.75-3.022,1.7-4.52,2.5-3.051,1.654-6.408,3.3-9.793,4.9-6.784,3.171-13.708,6.095-18.94,8.174-2.62,1.035-4.82,1.859-6.369,2.392-.779.262-1.4.453-1.819.559a2.06,2.06,0,0,1-.494.072c-.137-.021,0-.128-.023-.112.03-.018-.125.081.022.127a1.772,1.772,0,0,0,.5-.03c.434-.066,1.074-.2,1.875-.395,1.6-.39,3.872-1.014,6.578-1.816,5.422-1.6,12.6-3.9,19.7-6.477,3.549-1.292,7.085-2.645,10.371-4.068,1.661-.753,3.161-1.308,4.654-1.846s2.907-.982,4.251-1.4a45.281,45.281,0,0,0,6.827-2.492,12.663,12.663,0,0,0,1.236-.719,11.343,11.343,0,0,0,1.09-.865c.327-.309.5-.475.5-.475Z" transform="translate(-19.276 -11.086)" fill="#59731e"/>
    <path id="Path_1694" data-name="Path 1694" d="M596.939,171.543s-1,.427-2.74,1.17c-.856.354-1.95.882-3.178,1.442-1.25.56-2.595,1.218-4.067,1.936-5.887,2.863-13.566,6.886-21.243,10.863-7.683,3.96-15.375,7.893-21.334,10.4-1.495.61-2.857,1.2-4.1,1.6a24.419,24.419,0,0,1-3.24,1,9.657,9.657,0,0,1-2.146.373l-.775.078.776-.01a9.671,9.671,0,0,0,2.2-.172,25.861,25.861,0,0,0,3.36-.706c1.3-.3,2.713-.759,4.275-1.237,6.223-1.966,14.283-5.2,22.318-8.445,8.023-3.269,16.02-6.566,22.04-8.833,1.5-.57,2.884-1.1,4.088-1.51s2.229-.81,3.151-1.095l2.829-.912Z" transform="translate(-21.191 -12.986)" fill="#59731e"/>
    <path id="Path_1695" data-name="Path 1695" d="M440.693,130.223l-.647-1.467c-.166-.415-.544-1.156-.962-1.943a18.672,18.672,0,0,0-1.472-2.419,32.646,32.646,0,0,0-4.254-5.026c-.849-.821-1.738-1.637-2.677-2.4-.916-.794-1.918-1.5-2.886-2.221A77.507,77.507,0,0,0,416.47,108.2c-3.182-1.517-5.344-2.393-5.344-2.393s1.916,1.348,4.644,3.514a74.164,74.164,0,0,1,9.211,8.574c.724.86,1.475,1.687,2.111,2.568.672.856,1.27,1.731,1.817,2.582a26.1,26.1,0,0,1,2.454,4.764,11.52,11.52,0,0,1,.607,1.851,14.27,14.27,0,0,1,.352,1.471c.192,1,.3,1.576.3,1.576Z" transform="translate(-6.792 -5.29)" fill="#59731e"/>
    <path id="Path_1696" data-name="Path 1696" d="M423.327,137.165s-.2-.441-.528-1.211c-.14-.337-.423-.935-.768-1.617-.173-.331-.351-.683-.546-1.056-.2-.319-.417-.656-.64-1.012a29.588,29.588,0,0,0-3.4-4.312,45.5,45.5,0,0,0-4.429-4.033,92.418,92.418,0,0,0-8.9-6.051l-4.108-2.5s1.309,1.414,3.272,3.526a89.553,89.553,0,0,1,6.693,7.96,29.527,29.527,0,0,1,4.462,8.536c.086.291.17.572.249.838.042.238.081.461.119.674.075.4.153.748.207,1.225l.177,1.313Z" transform="translate(-5.491 -6.409)" fill="#59731e"/>
    <path id="Path_1697" data-name="Path 1697" d="M405.241,143.75l-.86-1.21c-.3-.416-.67-.916-1.089-1.489-.429-.592-.926-1.191-1.466-1.862a66.953,66.953,0,0,0-8.7-8.839c-.879-.7-1.733-1.423-2.642-2.059-.888-.658-1.784-1.266-2.682-1.813a29.58,29.58,0,0,0-5.089-2.591,19.045,19.045,0,0,0-2.148-.711,13.46,13.46,0,0,0-1.692-.376c-.942-.133-1.477-.207-1.477-.207s.5.2,1.375.553a11.961,11.961,0,0,1,1.5.758,16.83,16.83,0,0,1,1.824,1.15,27.315,27.315,0,0,1,4.039,3.513c.687.695,1.361,1.446,2.014,2.238.67.773,1.283,1.625,1.912,2.447a61.578,61.578,0,0,1,5.765,9.778c.318.694.626,1.333.836,1.878.23.562.433,1.052.6,1.455.344.885.54,1.384.54,1.384Z" transform="translate(-2.844 -7.255)" fill="#59731e"/>
    <path id="Path_1698" data-name="Path 1698" d="M400.459,146.8s-.066-.1-.191-.275a8.75,8.75,0,0,0-.653-.884,25.665,25.665,0,0,0-2.583-2.612,20.573,20.573,0,0,1-1.467-1.481c-.44-.484-1-1.236-1.537-1.9-1.087-1.362-2.258-2.849-3.5-4.292a33.975,33.975,0,0,0-3.956-4.007,17.305,17.305,0,0,0-4.151-2.631,15.324,15.324,0,0,0-3.269-1.035l-1.272-.207s.446.137,1.223.387a15.007,15.007,0,0,1,2.995,1.463,16.437,16.437,0,0,1,3.511,3.022,32.686,32.686,0,0,1,3.148,4.317c.98,1.553,1.9,3.158,2.781,4.681.465.773.8,1.456,1.348,2.236a23.654,23.654,0,0,0,1.483,1.936,23.474,23.474,0,0,1,1.906,2.436,5.658,5.658,0,0,1,.395.694c.1.2.153.3.153.3Z" transform="translate(-2.9 -7.827)" fill="#59731e"/>
    <path id="Path_1699" data-name="Path 1699" d="M452.179,126.524s-.313-.567-.856-1.565c-.278-.51-.715-1.2-1.171-1.933-.463-.764-.993-1.469-1.57-2.323a105.936,105.936,0,0,0-9.326-11.158,76.373,76.373,0,0,0-10.72-9.625,25.338,25.338,0,0,0-2.258-1.457,15.432,15.432,0,0,0-1.851-.923,8.33,8.33,0,0,0-1.271-.389c-.292-.077-.45-.117-.45-.117s.151.063.434.185a8.116,8.116,0,0,1,1.167.569,14.621,14.621,0,0,1,1.642,1.161,21.489,21.489,0,0,1,1.953,1.734,74.851,74.851,0,0,1,8.9,10.868,101.5,101.5,0,0,1,7.206,11.923c.39.831.815,1.622,1.07,2.261.274.655.513,1.166.7,1.683.385,1.065.6,1.678.6,1.678Z" transform="translate(-8.148 -4.263)" fill="#59731e"/>
    <path id="Path_1700" data-name="Path 1700" d="M392.631,151.729s-.185-.317-.51-.873a10.411,10.411,0,0,0-.834-1.075,15.673,15.673,0,0,0-1.175-1.145c-.881-.74-1.948-1.523-3.038-2.334-.542-.416-1.095-.839-1.617-1.308a16.368,16.368,0,0,1-1.513-1.517c-.984-1.077-1.882-2.213-2.765-3.3a31.74,31.74,0,0,0-2.532-2.842,11.161,11.161,0,0,0-1.141-1,5.481,5.481,0,0,0-.943-.689c-.545-.349-.856-.547-.856-.547l.8.618a5.71,5.71,0,0,1,.869.763,10.827,10.827,0,0,1,1.026,1.089,30.811,30.811,0,0,1,2.237,3.011c.768,1.134,1.589,2.4,2.5,3.581a17.156,17.156,0,0,0,1.444,1.731c.515.554,1.055,1.049,1.569,1.521,1.052.939,1.993,1.774,2.742,2.527.327.387.7.739.9,1.042a7.416,7.416,0,0,1,.536.8c.275.583.432.918.432.918Z" transform="translate(-2.645 -8.719)" fill="#59731e"/>
    <path id="Path_1701" data-name="Path 1701" d="M387.434,155.76s-.026.256-.07.7c-.005.276-.107.341-.154.565a4.147,4.147,0,0,1-.358.773c-.356.6-.878,1.277-1.475,2.075a12.7,12.7,0,0,0-.863,1.3,9.154,9.154,0,0,0-.677,1.453c-.383.98-.674,2.008-.948,2.911a16.14,16.14,0,0,1-.9,2.432,5.669,5.669,0,0,1-.991,1.533c-.306.326-.483.513-.483.513s.2-.165.549-.449a5.866,5.866,0,0,0,1.214-1.434,16.439,16.439,0,0,0,1.233-2.363c.4-.89.794-1.8,1.277-2.683a7.758,7.758,0,0,1,.772-1.232,10.9,10.9,0,0,1,.924-1.06c.645-.668,1.316-1.333,1.836-2a5.95,5.95,0,0,0,.665-1.053,4.927,4.927,0,0,0,.371-.961c.1-.436.16-.687.16-.687Z" transform="translate(-3.209 -11.138)" fill="#59731e"/>
    <path id="Path_1702" data-name="Path 1702" d="M397.66,147.927s-.228-.3-.624-.818c-.2-.262-.442-.577-.718-.942a13.748,13.748,0,0,0-1.1-1.286c-.439-.477-.912-.988-1.414-1.529-.51-.488-1.061-.949-1.618-1.444a18,18,0,0,0-1.773-1.437c-.622-.457-1.24-.935-1.881-1.375-1.318-.826-2.588-1.687-3.875-2.336-1.243-.713-2.461-1.264-3.494-1.732-1.014-.5-1.932-.781-2.534-1.035-.613-.231-.961-.366-.961-.366s.3.222.831.609,1.307.891,2.146,1.633a37.564,37.564,0,0,1,2.831,2.51c1.022.916,1.98,2.033,2.961,3.092.446.562.9,1.125,1.339,1.678a15.23,15.23,0,0,1,1.2,1.665c.358.551.728,1.076,1.028,1.571.254.491.5.954.718,1.378a9.305,9.305,0,0,1,.592,1.238c.172.422.32.793.445,1.1.247.606.388.954.388.954Z" transform="translate(-2.875 -8.547)" fill="#59731e"/>
    <path id="Path_1703" data-name="Path 1703" d="M411.414,142.254s-.133-.406-.366-1.11a23.325,23.325,0,0,0-1.25-3.1,16.815,16.815,0,0,0-1.122-1.975c-.45-.664-.945-1.319-1.472-1.95-.52-.614-1.057-1.243-1.6-1.885s-1.121-1.28-1.691-1.93a43.645,43.645,0,0,0-7.19-6.2,27.5,27.5,0,0,0-2.63-1.632l-1.035-.548s.343.251.941.694a26.429,26.429,0,0,1,2.327,1.979,42.969,42.969,0,0,1,5.971,6.93c.445.707.953,1.44,1.341,2.115.428.713.85,1.411,1.259,2.092a15.031,15.031,0,0,1,1.633,3.631,19.656,19.656,0,0,1,.6,2.738c.117.735.183,1.156.183,1.156Z" transform="translate(-4.677 -7.176)" fill="#59731e"/>
    <path id="Path_1704" data-name="Path 1704" d="M428.585,136.767s-.194.381-.534,1.035a19.2,19.2,0,0,1-1.518,2.507,16.364,16.364,0,0,1-2.825,3.044c-1.2,1.031-2.477,2.126-3.8,3.179a43.158,43.158,0,0,1-7.9,4.747,26.349,26.349,0,0,1-2.838,1.155l-1.1.366,1.129-.281a27.772,27.772,0,0,0,2.933-.946,43.954,43.954,0,0,0,8.382-4.228c1.408-.957,2.789-1.955,4.081-2.9a18,18,0,0,0,3.328-3.05,21.188,21.188,0,0,0,1.878-2.593c.4-.629.617-.987.617-.987Z" transform="translate(-6.434 -8.914)" fill="#59731e"/>
    <path id="Path_1705" data-name="Path 1705" d="M404.3,145.082l-.2,1.151a18.725,18.725,0,0,1-.648,2.731,15.3,15.3,0,0,1-1.693,3.6l-1.3,2.071c-.4.668-.92,1.388-1.378,2.093A42.86,42.86,0,0,1,393,163.553a26.672,26.672,0,0,1-2.364,1.938c-.6.433-.947.675-.947.675s.377-.188,1.041-.528a28.7,28.7,0,0,0,2.658-1.586,44.03,44.03,0,0,0,7.3-6.074c.576-.638,1.15-1.275,1.72-1.9.554-.635,1.1-1.256,1.634-1.854.536-.624,1.041-1.271,1.507-1.927a18.627,18.627,0,0,0,1.155-1.948,23.7,23.7,0,0,0,1.3-3.089c.247-.7.388-1.1.388-1.1Z" transform="translate(-4.282 -9.888)" fill="#59731e"/>
    <path id="Path_1706" data-name="Path 1706" d="M389.407,152.743s-.225-.342-.629-.933a13.227,13.227,0,0,0-.886-1.171,13.5,13.5,0,0,0-1.283-1.4,23.084,23.084,0,0,0-3.513-2.822,31.219,31.219,0,0,0-4.424-2.381,32.655,32.655,0,0,0-4.685-1.589,26.559,26.559,0,0,0-4.212-.727,19.7,19.7,0,0,0-2.994-.055c-.719.058-1.128.094-1.128.094s.409.029,1.123.087a19.548,19.548,0,0,1,2.891.524,25.52,25.52,0,0,1,3.893,1.339,31.022,31.022,0,0,1,4.127,2.192,28.587,28.587,0,0,1,3.645,2.8,19.4,19.4,0,0,1,2.595,2.882,9.811,9.811,0,0,1,.8,1.216,8.553,8.553,0,0,1,.527.984c.3.649.473,1.023.473,1.023Z" transform="translate(-1.468 -9.484)" fill="#59731e"/>
    <path id="Path_1707" data-name="Path 1707" d="M385.508,155.951s-.283-.361-.776-.985c-.224-.293-.673-.8-1.095-1.286-.447-.5-.953-.971-1.522-1.5a21.066,21.066,0,0,0-4.288-2.954,21.29,21.29,0,0,0-5.431-1.936,23.225,23.225,0,0,0-5.551-.454,31.538,31.538,0,0,1-4.566-.3,8.776,8.776,0,0,1-3.061-.934,2.919,2.919,0,0,1-.719-.546c-.14-.155-.215-.242-.215-.242l.184.272a3.007,3.007,0,0,0,.658.65,9.129,9.129,0,0,0,3.021,1.384,35.1,35.1,0,0,0,4.595.937,21.427,21.427,0,0,1,4.816,1.694,18.083,18.083,0,0,1,4.044,2.764,16.343,16.343,0,0,1,2.664,3.116c.309.5.607.977.8,1.371.2.425.343.673.509,1.062.317.733.5,1.148.5,1.148Z" transform="translate(-0.606 -9.856)" fill="#59731e"/>
    <path id="Path_1708" data-name="Path 1708" d="M380.535,159.282l-.725-.826a9.838,9.838,0,0,0-.915-.971,13.13,13.13,0,0,0-1.391-1.219,14.451,14.451,0,0,0-3.919-2.127,26.175,26.175,0,0,0-4.769-1.052c-.809-.078-1.618-.149-2.41-.225s-1.548-.175-2.319-.17c-1.523-.014-2.93-.132-4.139-.043a23.6,23.6,0,0,0-2.909.19l-1.085.159,1.1-.024a23.465,23.465,0,0,1,2.872.167c1.193.064,2.562.353,4.02.543.728.084,1.49.3,2.258.452s1.528.335,2.3.5a24.667,24.667,0,0,1,4.245,1.5,11.774,11.774,0,0,1,3.009,2.153,10.023,10.023,0,0,1,.948,1.059,7.724,7.724,0,0,1,.7.956c.391.583.615.915.615.915Z" transform="translate(-0.333 -10.77)" fill="#59731e"/>
    <path id="Path_1709" data-name="Path 1709" d="M382.374,158.609s-.019.231-.053.636a8.294,8.294,0,0,1-.237,1.52A11.262,11.262,0,0,1,379.938,165a17.485,17.485,0,0,1-3.657,3.39,12.736,12.736,0,0,1-1.985,1.174,13.165,13.165,0,0,0,2.153-.892,18.174,18.174,0,0,0,4.265-2.959,12.6,12.6,0,0,0,3.066-4.418,9.962,9.962,0,0,0,.533-1.743c.094-.395.143-.622.143-.622Z" transform="translate(-2.48 -11.472)" fill="#59731e"/>
    <path id="Path_1710" data-name="Path 1710" d="M410.353,143.771s-.055.4-.154,1.088a8.263,8.263,0,0,1-.21,1.173,10.372,10.372,0,0,1-.384,1.366,11.968,11.968,0,0,1-1.754,3.26,25.076,25.076,0,0,1-3.154,3.21l-1.844,1.466c-.625.476-1.211,1-1.829,1.394-1.226.813-2.328,1.678-3.369,2.254a21.839,21.839,0,0,1-2.51,1.414c-.635.3-1,.466-1,.466s.379-.124,1.045-.336a23.176,23.176,0,0,0,2.692-1.1c1.125-.456,2.339-1.177,3.7-1.863.694-.335,1.323-.771,2.006-1.173s1.373-.833,2.066-1.261a26.379,26.379,0,0,0,3.818-3.041,14.413,14.413,0,0,0,2.587-3.634,13.774,13.774,0,0,0,.712-1.707,10.47,10.47,0,0,0,.395-1.271c.181-.678.283-1.065.283-1.065Z" transform="translate(-4.804 -9.734)" fill="#59731e"/>
    <path id="Path_1711" data-name="Path 1711" d="M420.608,139.128s-.1.388-.289,1.062a8.039,8.039,0,0,1-.359,1.134,10.366,10.366,0,0,1-.549,1.3,12.024,12.024,0,0,1-2.157,3.013,25.03,25.03,0,0,1-3.532,2.788c-.675.408-1.349.818-2.015,1.219s-1.331.838-1.991,1.151c-1.32.652-2.521,1.368-3.628,1.809a22.055,22.055,0,0,1-2.668,1.085c-.669.217-1.051.336-1.051.336s.392-.07,1.08-.2a22.9,22.9,0,0,0,2.814-.758c1.17-.307,2.465-.873,3.9-1.376.731-.248,1.411-.6,2.14-.907l2.207-.992a26.756,26.756,0,0,0,4.173-2.533,14.567,14.567,0,0,0,3.022-3.28,12.733,12.733,0,0,0,.923-1.606,9.281,9.281,0,0,0,.554-1.212l.418-1.016Z" transform="translate(-5.767 -9.191)" fill="#59731e"/>
    <path id="Path_1712" data-name="Path 1712" d="M374.811,163.624s-.295-.139-.814-.394c-.277-.116-.531-.28-.975-.436s-.936-.321-1.479-.509a17.271,17.271,0,0,0-3.61-.526c-.654.023-1.333-.005-2.009.081a17.917,17.917,0,0,0-2.024.3,24.947,24.947,0,0,0-6.888,2.545,19.026,19.026,0,0,0-2.772,1.775,18.686,18.686,0,0,1,2.975-1.323,24.062,24.062,0,0,1,6.881-1.423,15.83,15.83,0,0,1,1.866.007c.611.012,1.2.139,1.764.2a14.727,14.727,0,0,1,2.926.887c.365.188.7.363.994.513a8.307,8.307,0,0,1,.837.543c.472.322.745.506.745.506Z" transform="translate(-0.132 -11.84)" fill="#59731e"/>
    <path id="Path_1713" data-name="Path 1713" d="M399.088,149.468s-.047.324-.131.891a8.019,8.019,0,0,1-.17.992c-.1.342-.2.726-.321,1.148a15.4,15.4,0,0,1-1.374,2.835c-.351.465-.665.992-1.076,1.461a16.1,16.1,0,0,1-1.278,1.391A24.206,24.206,0,0,1,389,162.307,18.67,18.67,0,0,1,386,163.6a18.756,18.756,0,0,0,3.131-.992,24.911,24.911,0,0,0,6.3-3.632,16.587,16.587,0,0,0,1.5-1.341c.49-.456.891-.984,1.324-1.461a16.658,16.658,0,0,0,1.854-3.018c.2-.509.383-.972.538-1.385a9.74,9.74,0,0,0,.284-1.02c.141-.555.22-.871.22-.871Z" transform="translate(-3.851 -10.401)" fill="#59731e"/>
    <path id="Path_1714" data-name="Path 1714" d="M377.978,160.982l-.64-.653q-.311-.309-.742-.743c-.321-.29-.754-.627-1.189-.978a9.414,9.414,0,0,0-1.48-1,9.691,9.691,0,0,0-1.753-.871,12.716,12.716,0,0,0-4.085-.934,17.552,17.552,0,0,0-7.372,1.328c-.939.371-1.7.716-2.227.951l-.841.36s.323-.086.887-.23c.562-.16,1.362-.386,2.325-.611a16.592,16.592,0,0,1,7.023-.226,10.754,10.754,0,0,1,3.342,1.309,7.762,7.762,0,0,1,1.336.935,6.965,6.965,0,0,1,1.053.968c.293.324.565.577.8.865.237.329.445.616.619.851.346.469.542.737.542.737Z" transform="translate(-0.531 -11.141)" fill="#59731e"/>
    <path id="Path_1715" data-name="Path 1715" d="M371.814,165.789s-1.3-.049-3.255-.117c-1.008.033-2.195.017-3.424.106-1.205.064-2.548.208-3.843.4a17.3,17.3,0,0,0-3.767,1.011,7.022,7.022,0,0,0-2.767,1.972,9.793,9.793,0,0,0-1.261,2.011c-.244.517-.384.811-.384.811s.165-.277.455-.771a9.735,9.735,0,0,1,1.406-1.852,6.517,6.517,0,0,1,2.759-1.613,16.189,16.189,0,0,1,3.667-.637c1.288-.071,2.538-.093,3.767-.05,1.206.015,2.294.217,3.234.294,1.921.322,3.2.54,3.2.54Z" transform="translate(0 -12.299)" fill="#59731e"/>
    <path id="Path_1716" data-name="Path 1716" d="M416.554,140.916s-.615,1.145-1.527,2.867c-.512.793-1.014,1.776-1.735,2.74-.718,1-1.5,1.979-2.344,2.956A16.3,16.3,0,0,1,408.213,152a6.62,6.62,0,0,1-2.968,1.205,9.759,9.759,0,0,1-2.326-.021c-.565-.07-.886-.112-.886-.112l.876.2a9.981,9.981,0,0,0,2.361.228,7.02,7.02,0,0,0,3.252-.992,16.923,16.923,0,0,0,3.1-2.37c.945-.907,1.877-1.884,2.667-2.8.821-.917,1.529-1.869,2.169-2.645,1.135-1.593,1.891-2.658,1.891-2.658Z" transform="translate(-5.728 -9.4)" fill="#59731e"/>
    <path id="Path_1717" data-name="Path 1717" d="M360.687,178.792a3.157,3.157,0,0,1,.16-1.4,8.157,8.157,0,0,1,2.447-3.483,15.142,15.142,0,0,1,1.862-1.373,16.762,16.762,0,0,1,1.791-.983c.543-.287.977-.441,1.274-.63a2.648,2.648,0,0,0,.45-.3l-.681,2.03c-.162.044-.322.088-.493.153a15.886,15.886,0,0,0-1.783.675,14.831,14.831,0,0,0-1.93,1.039,9.406,9.406,0,0,0-1.671,1.385,5.167,5.167,0,0,0-1.071,1.561,2.99,2.99,0,0,0-.3,1.319,1.022,1.022,0,0,0,.145.511A1.085,1.085,0,0,1,360.687,178.792Z" transform="translate(-0.884 -12.878)" fill="#59731e"/>
    <path id="Path_1718" data-name="Path 1718" d="M462.918,123.05s-.436-.736-1.2-2.033c-.795-1.3-1.784-3.1-2.974-5.341s-2.492-4.925-3.886-7.83-2.917-6.019-4.675-9.034l-1.365-2.228c-.5-.715-.991-1.43-1.482-2.135a43.131,43.131,0,0,0-3.194-3.895,45.8,45.8,0,0,0-3.337-3.3c-1.095-1-2.23-1.836-3.224-2.669-1.051-.748-2.016-1.434-2.876-2.044-.844-.615-1.655-1.05-2.282-1.46-1.277-.79-2.006-1.245-2.006-1.245s.691.512,1.9,1.4c.6.458,1.363.943,2.159,1.625.8.663,1.7,1.419,2.684,2.238.917.89,1.966,1.8,2.964,2.862a43.755,43.755,0,0,1,2.994,3.46,41.665,41.665,0,0,1,2.79,3.989c.419.718.842,1.437,1.264,2.16l1.15,2.249c1.472,3.038,2.711,6.2,3.886,9.192s2.286,5.808,3.31,8.2c1.046,2.388,1.972,4.426,2.642,5.74.66,1.348,1.043,2.116,1.043,2.116Z" transform="translate(-9.051 -2.249)" fill="#59731e"/>
    <path id="Path_1719" data-name="Path 1719" d="M469.185,126.295s-.557.445-1.545,1.217c-.488.387-1.087.853-1.771,1.394s-1.467,1.114-2.291,1.84c-1.639,1.441-3.62,3.121-5.576,4.909-1,.879-2.012,1.852-3.073,2.725s-2.132,1.81-3.236,2.683c-1.148.8-2.3,1.6-3.424,2.379-1.16.742-2.409,1.271-3.569,1.9a16.072,16.072,0,0,1-1.749.833c-.6.2-1.195.4-1.767.594-1.153.39-2.243.763-3.252,1.1-2.071.45-3.829.758-5.057,1.006l-1.933.371s.713-.072,1.956-.192,3.033-.272,5.177-.541c1.052-.246,2.19-.517,3.4-.805l1.868-.442a16.656,16.656,0,0,0,1.877-.692c1.252-.532,2.613-.976,3.888-1.633,1.251-.705,2.525-1.428,3.8-2.145,1.215-.794,2.39-1.636,3.573-2.446s2.259-1.663,3.352-2.458c2.16-1.64,4.136-3.014,5.836-4.26.84-.615,1.709-1.125,2.427-1.607s1.368-.886,1.893-1.223c1.052-.681,1.652-1.066,1.652-1.066Z" transform="translate(-9.112 -7.688)" fill="#59731e"/>
    <path id="Path_1720" data-name="Path 1720" d="M432.32,132.543s-1.359-1.728-3.4-4.3c-.537-.638-.982-1.347-1.524-2.093-.52-.756-1.09-1.522-1.654-2.37l-1.732-2.655a31.8,31.8,0,0,0-2-2.733,18.252,18.252,0,0,0-2.386-2.439c-.871-.691-1.66-1.466-2.533-2.027-1.744-1.133-3.3-2.288-4.742-3.084l-4.717-2.8s1.735,1.336,4.34,3.333c1.333.963,2.717,2.281,4.272,3.58.784.653,1.426,1.467,2.161,2.206a16.679,16.679,0,0,1,1.9,2.471,30.619,30.619,0,0,1,1.536,2.745c.479.969.952,1.924,1.4,2.843s.973,1.826,1.426,2.68.879,1.7,1.321,2.376c1.717,2.8,2.86,4.672,2.86,4.672Z" transform="translate(-6.383 -5.551)" fill="#59731e"/>
    <path id="Path_1721" data-name="Path 1721" d="M437.782,132.172s-1.628,1.46-4.074,3.659c-.617.52-1.252,1.211-1.934,1.884s-1.407,1.391-2.114,2.145-1.421,1.531-2.158,2.325a30.339,30.339,0,0,1-2.28,2.2,16.839,16.839,0,0,1-2.554,1.844c-.926.5-1.783,1.1-2.72,1.5-1.867.8-3.571,1.668-5.124,2.212-3.065,1.17-5.109,1.952-5.109,1.952l5.272-1.488c1.6-.4,3.392-1.109,5.361-1.757.987-.32,1.939-.858,2.952-1.3a18.541,18.541,0,0,0,2.9-1.717,32.217,32.217,0,0,0,2.612-2.108c.8-.72,1.591-1.427,2.354-2.116s1.516-1.276,2.215-1.879c.721-.582,1.341-1.161,2.02-1.641l4.393-3.278Z" transform="translate(-6.627 -8.376)" fill="#59731e"/>
    <path id="Path_1722" data-name="Path 1722" d="M395.375,149.42s-.7,1.066-1.747,2.663c-.5.852-1.114,1.864-1.677,2.916-.285.524-.581,1.06-.881,1.609-.313.516-.584,1.093-.939,1.58s-.665,1.032-1.07,1.475-.8.9-1.192,1.332c-.873.773-1.663,1.55-2.41,2.134-1.513,1.165-2.52,1.936-2.52,1.936s1.119-.612,2.8-1.529c.838-.467,1.759-1.12,2.781-1.781.478-.387.97-.791,1.468-1.2a19.263,19.263,0,0,0,1.4-1.4c.469-.474.83-1.007,1.248-1.5.381-.5.76-.992,1.124-1.465.725-.955,1.4-1.75,1.984-2.468l2.138-2.361Z" transform="translate(-3.492 -10.396)" fill="#59731e"/>
    <path id="Path_1723" data-name="Path 1723" d="M414.156,139.279s-.192-.533-.527-1.471-.823-2.315-1.543-3.991a22.54,22.54,0,0,0-1.426-2.639,20.064,20.064,0,0,0-1.994-2.619,56.58,56.58,0,0,0-4.9-4.8,92.479,92.479,0,0,0-10.169-7.46,26.35,26.35,0,0,1-3.3-2.429,2.73,2.73,0,0,1-.881-1.255,2.77,2.77,0,0,0,.759,1.363,26.911,26.911,0,0,0,3.066,2.8,90.378,90.378,0,0,1,9.206,8.348,39.368,39.368,0,0,1,4.084,5.073,17.536,17.536,0,0,1,1.421,2.486,19.151,19.151,0,0,1,.891,2.352c.426,1.535.715,2.9.925,3.877s.332,1.532.332,1.532Z" transform="translate(-4.25 -6.087)" fill="#59731e"/>
    <path id="Path_1724" data-name="Path 1724" d="M407.079,143.5s-.155-.472-.423-1.3a29.906,29.906,0,0,0-1.394-3.471,13.747,13.747,0,0,0-1.34-2.192,16.22,16.22,0,0,0-1.938-2.047,49.74,49.74,0,0,1-4.119-4.069,61.146,61.146,0,0,0-7.989-7.534,28.29,28.29,0,0,0-3.031-1.974c-.781-.382-1.227-.607-1.227-.607l1.18.686a28.235,28.235,0,0,1,2.869,2.158,60.393,60.393,0,0,1,7.384,7.977,50.522,50.522,0,0,0,3.91,4.4,11.622,11.622,0,0,1,2.674,3.941,27.114,27.114,0,0,1,1.079,3.294c.216.843.34,1.323.34,1.323Z" transform="translate(-3.806 -6.987)" fill="#59731e"/>
    <path id="Path_1725" data-name="Path 1725" d="M462.455,128.856s-.316.393-.868,1.082c-.28.348-.612.769-1,1.245-.4.436-.86.923-1.356,1.454a31.692,31.692,0,0,1-3.775,3.331,46.979,46.979,0,0,1-4.914,3.174,30.1,30.1,0,0,1-5.183,2.725,21.08,21.08,0,0,1-4.958,1.176c-1.5.174-2.762.213-3.646.265s-1.386.088-1.386.088l1.388.015c.885.014,2.15.072,3.674.008a21.682,21.682,0,0,0,5.176-.825,28.532,28.532,0,0,0,5.5-2.408,48.669,48.669,0,0,0,5.23-2.971,33.921,33.921,0,0,0,4.174-3.285c.569-.547,1.089-1.045,1.553-1.487.414-.461.771-.859,1.063-1.188.6-.657.931-1.036.931-1.036Z" transform="translate(-9.631 -7.988)" fill="#59731e"/>
    <path id="Path_1726" data-name="Path 1726" d="M371.321,165.941a5.362,5.362,0,0,0-.783.568c-.194.186-.429.4-.7.658a8.249,8.249,0,0,1-.856.694,7.882,7.882,0,0,1-1.14.659,13.648,13.648,0,0,1-1.406.577c-1.062.308-2.181.549-3.35.772a43.262,43.262,0,0,0-6.382,1.464,13.478,13.478,0,0,0-1.977.88l-.7.417s.264-.129.73-.352a13.742,13.742,0,0,1,2.021-.692,42.969,42.969,0,0,1,6.426-.878,20.942,20.942,0,0,0,6.6-1.426,9.417,9.417,0,0,0,1.15-.664l.762-.509a2.134,2.134,0,0,1,.4-.215c.126-.058.194-.087.194-.087Z" transform="translate(-0.107 -12.33)" fill="#59731e"/>
    <path id="Path_1727" data-name="Path 1727" d="M377.505,161.943a5.03,5.03,0,0,0-.358.9c-.07.256-.152.571-.248.928a8.223,8.223,0,0,1-.35,1.047,8.056,8.056,0,0,1-.611,1.165,13.73,13.73,0,0,1-.883,1.24c-.735.822-1.55,1.625-2.42,2.438a43.344,43.344,0,0,0-4.621,4.645,13.545,13.545,0,0,0-1.2,1.8c-.235.465-.369.733-.369.733s.155-.253.429-.694a14,14,0,0,1,1.342-1.661,43.025,43.025,0,0,1,4.968-4.174,20.957,20.957,0,0,0,4.82-4.729,10.223,10.223,0,0,0,.619-1.178q.215-.486.373-.837a1.992,1.992,0,0,1,.22-.388c.078-.117.119-.177.119-.177Z" transform="translate(-1.561 -11.862)" fill="#59731e"/>
    <path id="Path_1728" data-name="Path 1728" d="M626.113,186.1c4.563-4.626,7.841-10.781,12.685-14.962-.161,4.169-10.669,14.93-8.232,17.289a12.52,12.52,0,0,0-4.807-1.162c-.13-.7.314-.982.617-1.489Z" transform="translate(-31.918 -12.938)" fill="#36471a"/>
    <path id="Path_1729" data-name="Path 1729" d="M642.792,143.764c-2.346,7.776-4.111,14.655-8.84,21.287-2.418,3.344-4.49,6.509-6.615,9.851-1.612,2.334-4.048,8.215-6.82,4.9,4.026-5.972,8.53-11.6,12.984-17.051,3.694-4.609,9.145-13.554,9.34-19.458Z" transform="translate(-31.308 -9.679)" fill="#36471a"/>
    <path id="Path_1730" data-name="Path 1730" d="M622.428,171.386c1.18-2.314,1.927-4.823,3.045-7.256-2.126,5.261-5.061,10.727-4.993,16.48a7.626,7.626,0,0,1-3.446-1.721c1.691-3.736,5.007-6.63,6.7-10.368Z" transform="translate(-30.9 -12.118)" fill="#36471a"/>
    <path id="Path_1731" data-name="Path 1731" d="M583.483,123.072c-1.168,2.1-1.755,5.607-2.728,8-1.164,2.927-2.246,5.812-3.526,8.713-.743,1.619-1.871,7.553-3.37,8.3-.871.446-7.123-1.516-8.1-2.244,2.8-4.6,6.522-8.748,8.488-13.853-1.765,2.473-4.3,8.475-3.707,11.537,4.783-1.167,6.883-10.641,9.305-14.378A37.1,37.1,0,0,0,584,121.6c.547-1.6.5-3.135,1.023-4.613s1.881-2.45,2.4-3.928c.389-1.184.626-1.964-.018-2.809Z" transform="translate(-24.896 -5.809)" fill="#36471a"/>
    <path id="Path_1732" data-name="Path 1732" d="M560.746,121.611a60.166,60.166,0,0,0-5.689,20.054,14.642,14.642,0,0,0-3.924-1.253c2.642-3.714,5.887-8.444,7.079-12.959Z" transform="translate(-23.184 -7.14)" fill="#36471a"/>
    <path id="Path_1733" data-name="Path 1733" d="M551.054,120.561c-.047,5.819-5.582,11.38-4.275,17.119-3.694-1.874-10.7-4.768-14.606-5.247,4.1-10.275,2.329-23.859-.238-34.27,3.1,2.4,3.126,10.059,3.927,13.772.922,4.886.407,10.222,1.665,14.9.484-3.908,1.765-7.542,2.251-11.444-.162,4.168-1.95,7.5-.208,11.7,1.627-4.323,3.866-9.655,3.667-14.381.147,7.1-3.6,14.493.251,21.272,4.061-3.209,6.7-8.646,7.72-13.676Z" transform="translate(-20.936 -4.395)" fill="#36471a"/>
    <path id="Path_1734" data-name="Path 1734" d="M524.429,133.07c2.962-.319,2.942-9.248,2.791-13.968,1.358,3.615,1.735,11.518,1.156,15.431A5.6,5.6,0,0,0,524.429,133.07Z" transform="translate(-20.058 -6.846)" fill="#36471a"/>
    <path id="Path_1735" data-name="Path 1735" d="M515.169,129.527c6.921,1.192,2.057-14.451-.18-19.444,3.42,2.67,3.888,8.318,4.425,12.359.094.878,1.08,6.353.775,6.859C519.128,131.072,517.1,129.858,515.169,129.527Z" transform="translate(-18.952 -5.79)" fill="#36471a"/>
    <path id="Path_1736" data-name="Path 1736" d="M509.308,128.685c1.276.03-.263-3.757-.136-5.077a14.161,14.161,0,0,0-.435-4.679c-.492-2.507-1.586-4.977-2.052-7.438,1.429,1.914.611,5.395,1.095,7.772.661,3.091-.887,6.278-.128,9.309A7.123,7.123,0,0,1,509.308,128.685Z" transform="translate(-17.98 -5.955)" fill="#36471a"/>
    <path id="Path_1737" data-name="Path 1737" d="M502.424,126.376s-.037-.4-.108-1.1a4.408,4.408,0,0,1,0-1.23c.044-.473.088-1.007.137-1.591a11.443,11.443,0,0,0,.1-2.008,10.665,10.665,0,0,0-.208-2.229c-.117-.745-.244-1.524-.367-2.309-.187-.788-.373-1.583-.562-2.38s-.367-1.572-.55-2.345c-.078-.772-.14-1.531-.177-2.3a19.155,19.155,0,0,0-.284-2.176c-.1-.69-.184-1.339-.268-1.941a15.062,15.062,0,0,0-.593-2.88,3.289,3.289,0,0,0-.528-.975,3.273,3.273,0,0,1,.487.991,15.844,15.844,0,0,1,.471,2.882c.056.606.121,1.262.189,1.957a18.622,18.622,0,0,1,.192,2.165c0,.746.037,1.556.092,2.372.151.786.3,1.585.455,2.379s.307,1.574.456,2.346c.092.8.185,1.572.274,2.325.042.374.082.745.125,1.107.011.339-.011.69-.012,1.02a11.451,11.451,0,0,1-.178,1.9c-.078.62-.15,1.191-.214,1.7a5,5,0,0,0-.05,1.32c.041.706.066,1.111.066,1.111Z" transform="translate(-17.083 -4.716)" fill="#36471a"/>
    <path id="Path_1738" data-name="Path 1738" d="M490.8,105.293c2.224,3.49,3.272,8.246,4.091,12.31.518,3.114,1.77,6.382,1.8,9.383-2.492-1.124-6.885-2.285-9.313-.533.046-4.515,1.05-8.178-.026-12.811.887,2.043,1.058,12.464,4.251,11.58C494.061,124.492,492.031,107.221,490.8,105.293Z" transform="translate(-15.717 -5.229)" fill="#36471a"/>
    <path id="Path_1739" data-name="Path 1739" d="M481.286,113.436c1.059,4.125,2.421,9.411,2.431,13.679a2.958,2.958,0,0,1-1.66.019c-.366-2.379.476-5.024.177-7.419C482.047,118.2,481.286,113.436,481.286,113.436Z" transform="translate(-15.007 -6.183)" fill="#36471a"/>
    <path id="Path_1740" data-name="Path 1740" d="M467.154,99.572c2.154,4.731,5.262,9.7,6.95,14.8.685,2.066,1.024,3.981,1.61,5.879.508,1.787,1.55,2.924,1.842,4.614a15.773,15.773,0,0,1-3.557.311c-1.542-.583-.873-1.244-.708-2.832.328-2.556-.678-5.359-1.06-7.93a44.641,44.641,0,0,0-4.065-13.135c-.336-.648-.761-1.314-1.151-1.927Z" transform="translate(-13.336 -4.534)" fill="#36471a"/>
    <path id="Path_1741" data-name="Path 1741" d="M461.322,108.944c.812,3,2.526,6.056,3.655,8.934,1.059,2.768,2.432,6.273,4.217,8.578-2.118,1.348-1.888-1.849-2.168-3.154-.437-1.914-1.612-3.512-2.048-5.425Z" transform="translate(-12.669 -5.657)" fill="#36471a"/>
    <path id="Path_1742" data-name="Path 1742" d="M456.759,111.923c1.939,2.676,2.88,6.2,4.484,9.091a55.294,55.294,0,0,1,3.268,5.741c-.932-.11-2.274.12-2.869-.441-.82-.806-.615-2.812-.833-3.77a40.581,40.581,0,0,0-2.053-6.049c-1.513-3.728-3.428-7.59-5.13-11.124Z" transform="translate(-11.768 -5.239)" fill="#36471a"/>
    <path id="Path_1743" data-name="Path 1743" d="M449.021,114.979c2.024,2.071,8.864,12.048,6.6,13.65-.743.551-5.674.8-6.215.438-1.37-.924-3.073-5.318-3.88-6.835-1.993-3.739-4.962-6.306-7.16-9.758,5.756,4.514,8.989,9.689,12.935,14.528,2.376-.809.931-3.567.592-5.7-.381-2.807-3.9-7.747-5.141-10.322Z" transform="translate(-9.981 -5.896)" fill="#36471a"/>
    <path id="Path_1744" data-name="Path 1744" d="M433.965,115.444a60.357,60.357,0,0,1,7.313,10.749c.529,1.073.6,2.666,1.426,3.709.928,1.209,1.918,1.05,3.337,1.552a35.559,35.559,0,0,0-4.876-8.63C439.514,120.593,435.425,117.092,433.965,115.444Z" transform="translate(-9.466 -6.418)" fill="#36471a"/>
    <path id="Path_1745" data-name="Path 1745" d="M427.251,117.284c3.439,2.819,7.23,6.19,9.6,9.922.607.944,2.361,2.954,2.589,4.061.3,1.687-.625,1.1-2.054,1.936-.854-4.544-3.337-10.078-6.987-13.23Z" transform="translate(-8.68 -6.633)" fill="#36471a"/>
    <path id="Path_1746" data-name="Path 1746" d="M424.936,124.048c1.529,1.3,2.575,3.916,3.838,5.535,1.371,1.786,3.386,3.473,4.466,5.289-2.17,1.385-2.662-.5-3.412-2.283-.7-1.591-1.781-3.165-2.336-4.77Z" transform="translate(-8.409 -7.425)" fill="#36471a"/>
    <path id="Path_1747" data-name="Path 1747" d="M415.777,121.3c3.371,1.609,5.456,4.112,7.4,7.407,1.54,2.545,3.039,5.264,4.559,7.893-1,.4-2.134.575-3.094,1.036.514-1.89-.994-5-1.614-6.953-.711-1.974-1.183-3.847-2.708-5.379Z" transform="translate(-7.337 -7.103)" fill="#36471a"/>
    <path id="Path_1748" data-name="Path 1748" d="M411.116,125.686c2.651,1.829,4.757,4.4,7.147,6.552,2.031,1.837,3.748,2.937,4.588,5.608A10.334,10.334,0,0,0,420.079,140c-1.146-1.3-1.293-4.732-2.464-6.566a32.073,32.073,0,0,0-3.532-5.142Z" transform="translate(-6.791 -7.617)" fill="#36471a"/>
    <path id="Path_1749" data-name="Path 1749" d="M405.859,127.166c1.669,2.378,3.7,4.455,5.254,6.9,1.665,2.616,1.561,5.029,2.751,7.635,2.834-.145-2.937-7.734-4.034-9.46Z" transform="translate(-6.176 -7.79)" fill="#36471a"/>
    <path id="Path_1750" data-name="Path 1750" d="M403.508,131.063c1.746,1.044,3.28,4.7,4.3,6.139,1.279,1.845,3.246,3.62,4.181,5.582-2.1.712-1.972-.312-2.689-2.1-.594-1.339-.936-3.1-1.94-4.187Z" transform="translate(-5.9 -8.247)" fill="#36471a"/>
    <path id="Path_1751" data-name="Path 1751" d="M408.2,144.4a4.58,4.58,0,0,1-1.034-1.438c-.435-.943-.939-2.237-1.617-3.457a15.648,15.648,0,0,0-2.381-2.979l-1.215-1.233s.47.509,1.174,1.268a16.424,16.424,0,0,1,2.279,3.023,33.7,33.7,0,0,1,1.517,3.478,5.23,5.23,0,0,1,.306,1.757Z" transform="translate(-5.718 -8.741)" fill="#36471a"/>
    <path id="Path_1752" data-name="Path 1752" d="M387.227,128.031c3.8,1.785,14.816,12.38,16.679,16.618a18.518,18.518,0,0,1-2.286.839c-1.662-4.574-3.344-8.538-7.065-11.6Z" transform="translate(-3.994 -7.892)" fill="#36471a"/>
    <path id="Path_1753" data-name="Path 1753" d="M397.854,145.85c1.74,2.734,1.062,1.528,2.706,3.3-1.758,2.472-4.016-4.464-4.832-6.24Z" transform="translate(-4.989 -9.633)" fill="#36471a"/>
    <path id="Path_1754" data-name="Path 1754" d="M388.479,141.483c2.1.958,3.389,3.072,4.958,4.763,1.114,1.131,4.918,3.234,2.445,4.587-2.208-3.042-4.047-6.553-7.017-9.145Z" transform="translate(-4.141 -9.467)" fill="#36471a"/>
    <path id="Path_1755" data-name="Path 1755" d="M385.876,146.51a48.323,48.323,0,0,0,6.741,5.907c-1.308,1.877-3.4-2.134-4.25-3.468Z" transform="translate(-3.836 -10.055)" fill="#36471a"/>
    <path id="Path_1756" data-name="Path 1756" d="M381.273,146.228c2.942,1.673,5.067,3.865,7.635,6.093-2.047-1.412-4.34-3.914-6.385-5.322Z" transform="translate(-3.297 -10.022)" fill="#36471a"/>
    <path id="Path_1757" data-name="Path 1757" d="M373.449,149.388c2.27,1.268,6.629,3.135,8.073,5.242.551-1.188,3.312,1.426,3.876,1.172-1.451-1.791-6.475-3.889-8.657-4.692" transform="translate(-2.381 -10.392)" fill="#36471a"/>
    <path id="Path_1758" data-name="Path 1758" d="M381.926,159.761c-1.6-.034-4.11-3.247-5.93-4.055a9.022,9.022,0,0,1,3.991,3.844C380.23,159.6,381.606,159.754,381.926,159.761Z" transform="translate(-2.679 -11.132)" fill="#36471a"/>
    <path id="Path_1759" data-name="Path 1759" d="M378.18,161.528c1.088-1.814-6.476-4.652-8.668-4.82a12.884,12.884,0,0,1,7.34,3.871C377.026,160.358,377.982,161.863,378.18,161.528Z" transform="translate(-1.92 -11.249)" fill="#36471a"/>
    <path id="Path_1760" data-name="Path 1760" d="M375,164.413c-.923-.576-7.245-1.684-8.588-1.484A13.012,13.012,0,0,1,375,164.413Z" transform="translate(-1.557 -11.958)" fill="#36471a"/>
    <path id="Path_1761" data-name="Path 1761" d="M371.992,167.046c-1.942-.862-4.429-.441-6.452-.511a24.152,24.152,0,0,1,3.608.008A7.6,7.6,0,0,1,371.992,167.046Z" transform="translate(-1.455 -12.391)" fill="#36471a"/>
    <path id="Path_1762" data-name="Path 1762" d="M369.379,169.251a6.686,6.686,0,0,1-3.842,1.252C366.825,169.994,368.322,170.294,369.379,169.251Z" transform="translate(-1.455 -12.718)" fill="#36471a"/>
    <path id="Path_1763" data-name="Path 1763" d="M367.63,172.394a6.217,6.217,0,0,0-2.409,1.115,9.212,9.212,0,0,1,2.228-1Z" transform="translate(-1.418 -13.086)" fill="#36471a"/>
    <path id="Path_1764" data-name="Path 1764" d="M378.112,165.393c.063.04.094-.217.146-.015a12.38,12.38,0,0,1-2.2,3.239,5.449,5.449,0,0,0,1.195-1.5c.414-.575.473-1.279.927-1.8Z" transform="translate(-2.686 -12.255)" fill="#36471a"/>
    <path id="Path_1765" data-name="Path 1765" d="M383.44,161.208c.4-1.115.08.682-.126.968a17.6,17.6,0,0,0-1.488,2.212A7.126,7.126,0,0,0,383.44,161.208Z" transform="translate(-3.362 -11.734)" fill="#36471a"/>
    <path id="Path_1766" data-name="Path 1766" d="M388.674,157.439c-.933,1.9-2.933,3.921-3.9,5.706.736-.939,1.317-2.065,1.979-2.985A24.775,24.775,0,0,0,388.674,157.439Z" transform="translate(-3.708 -11.335)" fill="#36471a"/>
    <path id="Path_1767" data-name="Path 1767" d="M395.182,153.277a6.106,6.106,0,0,1,1.392-.456c-.3.5-1.27.706-1.666,1.2a11.822,11.822,0,0,0-.862,1.6,14.993,14.993,0,0,1-2.282,3.171c.79-.505,1.272-2.305,1.793-3.025s.906-2.691,1.939-2.6Z" transform="translate(-4.525 -10.794)" fill="#36471a"/>
    <path id="Path_1768" data-name="Path 1768" d="M401.839,150.633c-.4.885-.929,1.118-.991,1.822a9.273,9.273,0,0,1-2.04,3.921C399.677,155.467,401.332,151.74,401.839,150.633Z" transform="translate(-5.35 -10.538)" fill="#36471a"/>
    <path id="Path_1769" data-name="Path 1769" d="M408.267,146.386c-.238.509-1.7,1.249-2.065,1.72-.34.449-.268,1.7-.42,2.271-.295,1.119-1.287,2.3-1.724,3.515.447-.4.564-1.143.894-1.664a16.425,16.425,0,0,1,1.165-1.49A28.446,28.446,0,0,0,408.267,146.386Z" transform="translate(-5.965 -10.041)" fill="#36471a"/>
    <path id="Path_1770" data-name="Path 1770" d="M412.748,144.987c.562-.167.732-.165,1.726-.491a50.316,50.316,0,0,1-5.14,7.76,38.765,38.765,0,0,0,2.455-3.888,7.5,7.5,0,0,0,.991-3.52Z" transform="translate(-6.582 -9.819)" fill="#36471a"/>
    <path id="Path_1771" data-name="Path 1771" d="M418.869,142.066c-.051.466-.66.36-.66.36.538.677-1.9,3.57-2.435,4.225C417.038,145.4,418.661,143.922,418.869,142.066Z" transform="translate(-7.336 -9.535)" fill="#36471a"/>
    <path id="Path_1772" data-name="Path 1772" d="M424.324,140.46c-.115.5-.687.426-1,.735.23,1.373-1.845,4.068-2.5,5.139A17.19,17.19,0,0,0,424.324,140.46Z" transform="translate(-7.927 -9.347)" fill="#36471a"/>
    <path id="Path_1773" data-name="Path 1773" d="M430.811,139.2a26.767,26.767,0,0,1-3.36,4.226A48.085,48.085,0,0,1,430.811,139.2Z" transform="translate(-8.704 -9.199)" fill="#36471a"/>
    <path id="Path_1774" data-name="Path 1774" d="M439.275,135.332c-3.166,1.729-5.045,6.151-8.079,7.457A27.275,27.275,0,0,1,439.275,135.332Z" transform="translate(-9.142 -8.746)" fill="#36471a"/>
    <path id="Path_1775" data-name="Path 1775" d="M455.139,131.858c.063-.9-5.121,2.072-6.892,3.932-2.568,2.7-8.747,5.376-11.512,6.93,5.784.342,14.785-9.847,18.254-10.853Z" transform="translate(-9.791 -8.32)" fill="#36471a"/>
    <path id="Path_1776" data-name="Path 1776" d="M465.226,131.23c-.881.837-4.4,3.739-5.306,4.684A33.888,33.888,0,0,0,465.226,131.23Z" transform="translate(-12.505 -8.266)" fill="#36471a"/>
    <path id="Path_1777" data-name="Path 1777" d="M471.511,130.078a10.311,10.311,0,0,1-2.232.013c-.488,1.039-2.272,1.761-3.144,2.524-1.03.92-2.012,1.91-3,2.9a24.43,24.43,0,0,1-5.147,4.689,71.509,71.509,0,0,0,6.61-4.525c1.375-1.035,2.836-2.017,4.165-3.121.795-.718,1.831-2.37,2.883-2.516Z" transform="translate(-12.279 -8.128)" fill="#36471a"/>
    <path id="Path_1778" data-name="Path 1778" d="M482.383,129.909c-4.042-.082-5.918,3.85-9.29,5.684h0a29.572,29.572,0,0,0,9.472-5.643Z" transform="translate(-14.038 -8.111)" fill="#36471a"/>
    <path id="Path_1779" data-name="Path 1779" d="M490.709,130.112c.1,2.715-4.241,4.335-6.635,5.478,1.982-2.206,4.832-3.235,6.568-5.591Z" transform="translate(-15.333 -8.122)" fill="#36471a"/>
    <path id="Path_1780" data-name="Path 1780" d="M498.1,130.328c-1.39.65-4.683,4.5-13.132,9.611,3.153-1.339,5.865-3.342,9.016-4.68,2.463-1.044,3.76-3.437,6.194-4.2Z" transform="translate(-15.438 -8.161)" fill="#36471a"/>
    <path id="Path_1781" data-name="Path 1781" d="M503.381,131.136c-1.073,2.4-5.3,6.908-7.346,8.9,3.73-1.52,6.239-5.548,8.1-8.675Z" transform="translate(-16.733 -8.255)" fill="#36471a"/>
    <path id="Path_1782" data-name="Path 1782" d="M508.293,132.231a7.458,7.458,0,0,1,1.731.387c-1.882,1.586-3.664,3.578-5.637,5.15-1.895,1.443-4.02,2.407-5.511,4.37.635-2.2,3.4-3.02,4.984-4.581,1.57-1.469,3.755-3.565,4.459-5.652Z" transform="translate(-17.066 -8.345)" fill="#36471a"/>
    <path id="Path_1783" data-name="Path 1783" d="M515.947,133.028c.478-1.13,2.21,1.254,3.219,1.859-1.436.448-3.157.447-4.522,1-1.477.63-2.236,1.894-3.409,2.877-2.494,1.977-5.355,3.254-7.869,5.089,1.726-1.957,4.431-3.6,6.554-5.19C511.761,137.257,515.042,135.169,515.947,133.028Z" transform="translate(-17.592 -8.442)" fill="#36471a"/>
    <path id="Path_1784" data-name="Path 1784" d="M521.774,134.108c.006,1.476,2.786,1.67,4.317,2.1a49.747,49.747,0,0,1-13.065,6.76C521.417,138.092,521.791,138.793,521.774,134.108Z" transform="translate(-18.723 -8.603)" fill="#36471a"/>
    <path id="Path_1785" data-name="Path 1785" d="M528.618,137.339c.275-.6.824,1.417,2.484.455-1.286,1.912-7.74,6.219-9.814,7.387C526.152,140.455,527.507,139.77,528.618,137.339Z" transform="translate(-19.69 -8.968)" fill="#36471a"/>
    <path id="Path_1786" data-name="Path 1786" d="M535.2,138.715c-.273,2.808,5.122,1.9,7.663,2.938-3.785.691-6.807,3.556-10.282,4.982,1.248-1.729,4.082-2.44,5.109-4.5-3.906-2.2-13.346,6.311-17.645,7.174C523.869,146.712,534.689,144.043,535.2,138.715Z" transform="translate(-19.545 -9.142)" fill="#36471a"/>
    <path id="Path_1787" data-name="Path 1787" d="M553.836,144.943c-2.045-3.214-7.357,1.715-10.714,3.068,2.86-.411,6.282-1.181,9-.1-1.21,2.023-5.886,3.282-8.359,4.074,2.281-.355,8.309-1.928,10.527-1.148-3.3,3.665-12.093,6.058-16.11,9.082,8.28-3.706,18.472-8.678,25.948-8.391C560.425,148.413,556.6,149.284,553.836,144.943Z" transform="translate(-21.668 -9.747)" fill="#36471a"/>
    <path id="Path_1788" data-name="Path 1788" d="M574.638,157.186a14.93,14.93,0,0,0-3.971-1.052s-8.659,3.141-12.047,3.9c2.723-.638,6.182-1.591,9.068-1.24-.637,2.44-3.885,3.726-5.675,5.338,2.609-.569,9.5-4.491,12.063-2.68s-3.236,5.975-5.42,7.209a112.67,112.67,0,0,0,13.244-6.715A59.757,59.757,0,0,0,574.638,157.186Z" transform="translate(-24.061 -11.182)" fill="#36471a"/>
    <path id="Path_1789" data-name="Path 1789" d="M588.136,165.448c.568-.742,1.92.811,2.455,1.407a38.089,38.089,0,0,1-13.608,6.635C581.369,171.09,585.313,169.122,588.136,165.448Z" transform="translate(-26.211 -12.249)" fill="#36471a"/>
    <path id="Path_1790" data-name="Path 1790" d="M606.343,178.1c.954-.89,1.769,1.06,2.59,2.107-6.4,3.45-14.228,4.68-20.958,7.871C593.633,183.691,601.039,183.043,606.343,178.1Z" transform="translate(-27.498 -13.727)" fill="#36471a"/>
    <path id="Path_1791" data-name="Path 1791" d="M611.611,182.726c1.341.874,1.794,1.83,2.867,3.026-2.294,1.308-6.576,1.218-9.381,2.219a69.636,69.636,0,0,0-8.063,4.042c-4.554,2.433-9.127,5.814-13.956,7.327C591.468,192.12,602.559,188.653,611.611,182.726Z" transform="translate(-26.924 -14.295)" fill="#36471a"/>
    <path id="Path_1792" data-name="Path 1792" d="M619.516,187.121c1.043.9,1.711,2.2,2.642,3.166-3.463,2.676-9.522,3.718-13.549,5.505-4.138,1.851-8.288,4.181-12.557,5.338C602.425,197.381,616.877,194.28,619.516,187.121Z" transform="translate(-28.443 -14.81)" fill="#36471a"/>
    <path id="Path_1793" data-name="Path 1793" d="M654.8,173.707c-5.938,6.5-14.888,11.991-20.635,18.936-1.369-1.165-2.886-2.072-4.293-3.053a34.811,34.811,0,0,1,6.617-6.56A8.593,8.593,0,0,0,634,188.21C634.521,188.039,648.634,178.264,654.8,173.707Z" transform="translate(-32.403 -13.239)" fill="#36471a"/>
    <path id="Path_1794" data-name="Path 1794" d="M629.065,195.521c-3.5,3.968-9.907,2.869-14.864,5.405,1.862-1.5,4.482-2.545,6.527-4s3.376-4.031,5.523-5.082C626.251,191.841,628.105,194.261,629.065,195.521Z" transform="translate(-30.568 -15.362)" fill="#36471a"/>
    <path id="Path_1795" data-name="Path 1795" d="M626.9,143.178c-2.6,3.533-1.7,9.076-4.033,12.583-3.08,4.626-4.554,7.92-6.912,12.078-.606,1.012-.405,5.415-1.659,5.9-2.26,1.12-3.5-.589-3.323-2.268.2-2.63,5.805-9.8,7.35-12.033,1.851-2.745,3.946-4.863,5.363-7.8,1.193-2.793,1.159-6.526,3.3-8.827Z" transform="translate(-30.189 -9.622)" fill="#36471a"/>
    <path id="Path_1796" data-name="Path 1796" d="M609.175,159.05c-2.5,2.218-6.557,5.429-6.482,8.978-3.031-.574-5.985-1.039-8.435-2.919,6.622-3.12,15.276-14.58,15.8-22.114-.718,2.805-8.587,20.6-.842,15.87Z" transform="translate(-28.233 -9.644)" fill="#36471a"/>
    <path id="Path_1797" data-name="Path 1797" d="M620.867,140.041c-2.315,2.695-9.111,14.663-10.094,17.854,2.455-2.172,9.371-14.936,10.35-18.123Z" transform="translate(-30.167 -9.266)" fill="#36471a"/>
    <path id="Path_1798" data-name="Path 1798" d="M591.891,161.7c-.115-2.636,2.407-4.245,3.571-6.345a35.349,35.349,0,0,1,3.993-6.5c-1.617,4.989-5.558,8.959-5.306,14.432A12.922,12.922,0,0,0,591.891,161.7Z" transform="translate(-27.956 -10.329)" fill="#36471a"/>
    <path id="Path_1799" data-name="Path 1799" d="M578.531,155.189c3.4,2.351,4.878-3.634,5.843-7.687.783-3.523,3.757-5.729,4.423-9.6.337,2.5-2.184,4.1-2.7,6.412a11.613,11.613,0,0,0,1.051,7.048c2.879-3.5,3.951-6.9,6.2-10.727,2.022-3.378,4.4-6.354,5.068-10.222.366,2.377-1.407,4.34-2.593,6.245a19.925,19.925,0,0,0-3.156,7.329,33,33,0,0,1-3.078,7.281c-1.23,2.659-.789,4.985-1.14,7.711-1.743-.769-2.961-1.867-4.8-2.466C581.929,155.94,580.02,156.221,578.531,155.189Z" transform="translate(-26.392 -8.171)" fill="#36471a"/>
    <path id="Path_1800" data-name="Path 1800" d="M572.426,117.253c-3.251,5.213-4.564,10.521-6.587,16.187-1.029,2.638-2.157,5.127-2.986,7.749-1.127,3.637-1.819,2.722-4.842,1.412C561.741,136.991,568.867,122.962,572.426,117.253Z" transform="translate(-23.989 -6.63)" fill="#36471a"/>
    <path id="Path_1801" data-name="Path 1801" d="M594.678,169.926c2.382-1.049,3.531,2.915,5.843,4.106-4.242,1.887-8.593,2.168-13.057,4.4-3.088,1.638-6.808,5.645-10.147,6.127a27.4,27.4,0,0,1,4.258-3.763c-3.255,1.433-6.8,2.081-10.051,3.505,4.077-2.087,9.389-3.482,13.155-6.165C587.933,175.856,591.428,171.357,594.678,169.926Z" transform="translate(-25.572 -12.776)" fill="#36471a"/>
    <path id="Path_1802" data-name="Path 1802" d="M364.853,177.132a6.1,6.1,0,0,1-.226-2.629,11.655,11.655,0,0,1,.986-3.643,19.993,19.993,0,0,1,2.154-3.774,30.155,30.155,0,0,1,2.832-3.3,34.408,34.408,0,0,1,2.655-2.4l.109-.1a85.838,85.838,0,0,1,9.984-7.435,140.838,140.838,0,0,1,16.993-9.1,230.472,230.472,0,0,1,23.283-8.961c4.349-1.444,8.871-2.783,13.658-4.1a125.061,125.061,0,0,1,15.035-2.891,133.31,133.31,0,0,1,33.012-.055,166.468,166.468,0,0,1,34.382,8.05,223.2,223.2,0,0,1,33.353,14.737c21.536,11.6,41.359,26.138,58.606,41.191a322.4,322.4,0,0,1,23.792,22.932,198.843,198.843,0,0,1,18.572,23.248c5.246,7.554,9.687,14.682,13.6,20.983,3.907,6.267,7.311,11.738,10.115,16.243,2.85,4.475,5.094,7.872,6.7,10.231s2.466,3.6,2.466,3.6l-5.26,3.533s-.835-1.269-2.4-3.649-3.855-5.986-6.629-10.528c-2.726-4.566-6.046-10.117-9.852-16.479-3.783-6.35-8.052-13.483-13.064-20.986a188.009,188.009,0,0,0-17.726-22.979,318.154,318.154,0,0,0-23.164-22.932c-16.84-15.108-36.247-29.749-57.352-41.494-21.046-11.743-43.993-20.42-66.436-23.364a131.341,131.341,0,0,0-32.482-.391,123.762,123.762,0,0,0-14.85,2.651c-2.363.613-4.669,1.215-6.934,1.932q-3.414,1.007-6.638,2.084a209.386,209.386,0,0,0-23.071,8.954,139.492,139.492,0,0,0-16.7,9.124,95.587,95.587,0,0,0-9.885,7.153c-.057.049-.109.089-.162.132-.608.517-1.25,1.064-1.906,1.638-.129.117-.259.233-.366.33s-.192.17-.276.249c-1.221,1.148-2.4,2.486-2.9,3.024-1.863,2.1-3.5,4.493-3.875,6.6a5.959,5.959,0,0,0-.035,2.551,1.942,1.942,0,0,0,.447.869A2.009,2.009,0,0,1,364.853,177.132Z" transform="translate(-1.343 -7.857)" fill="#36471a"/>
  </g>
</svg>
