<svg xmlns="http://www.w3.org/2000/svg" width="469.734" height="374.223" viewBox="0 0 469.734 374.223">
  <g id="Group_19" data-name="Group 19" transform="matrix(0.799, -0.602, 0.602, 0.799, -26.456, 152.709)">
    <path id="Path_586" data-name="Path 586" d="M244.351,139.137a74.224,74.224,0,0,1,15.825,17.8A102.789,102.789,0,0,1,272.02,182.81a123.62,123.62,0,0,1,5.219,31.487c.362,11.19.209,22.783-.423,34.54s-1.744,23.683-3.233,35.568c-2.951,23.77-7.445,47.338-11.731,69.42-2.138,11.049-4.219,21.734-5.928,31.92a281.479,281.479,0,0,0-3.6,28.911,121.637,121.637,0,0,0-.151,12.976c.1,2.06.263,4.072.5,6.014s.577,3.828.983,5.632c.005.023.011.045.016.066h1.19c-.023-.106-.049-.209-.07-.315-.364-1.768-.65-3.615-.859-5.526s-.359-3.9-.441-5.931a119.946,119.946,0,0,1,.272-12.827,282,282,0,0,1,3.849-28.714c1.8-10.133,3.972-20.789,6.217-31.813s4.558-22.422,6.69-34.057,4.076-23.5,5.654-35.424,2.8-23.907,3.525-35.731.971-23.5.7-34.8a126.825,126.825,0,0,0-4.989-32.406,106.535,106.535,0,0,0-11.972-26.944,78.153,78.153,0,0,0-16.508-18.911c-1.46-1.187-2.936-2.271-4.39-3.277q-2.2-1.484-4.336-2.7a59.051,59.051,0,0,0-8.162-3.825,56.154,56.154,0,0,0-12.264-3.108c-.714-.113-1.381-.17-1.943-.231s-1.022-.1-1.383-.128a1.755,1.755,0,0,0-.825.049.989.989,0,0,0-.291.138l-.278,3.9a1.033,1.033,0,0,0,.265.184,1.842,1.842,0,0,0,.814.159c.36.027.824.051,1.312.109.5.052,1.076.1,1.749.193a52.126,52.126,0,0,1,11.347,2.76,54.527,54.527,0,0,1,7.6,3.474q2,1.109,4.063,2.478C241.579,137.034,242.969,138.035,244.351,139.137Z" transform="translate(7.218 3.321)" fill="#59731e"/>
    <path id="Path_587" data-name="Path 587" d="M259.3,157.654a102.792,102.792,0,0,1,11.842,25.873,123.512,123.512,0,0,1,5.22,31.487c.362,11.191.209,22.784-.423,34.541s-1.745,23.681-3.234,35.567c-2.95,23.771-7.443,47.337-11.73,69.421-2.138,11.047-4.22,21.733-5.928,31.92a281.741,281.741,0,0,0-3.6,28.91,121.339,121.339,0,0,0-.15,12.975c.1,2.061.263,4.074.5,6.014q.328,2.562.839,4.958h1.2q-.486-2.459-.777-5.1-.325-2.877-.441-5.929a119.717,119.717,0,0,1,.272-12.829,281.7,281.7,0,0,1,3.849-28.714c1.8-10.132,3.972-20.788,6.216-31.812s4.559-22.421,6.691-34.057,4.077-23.5,5.655-35.424,2.8-23.906,3.523-35.73.973-23.5.7-34.806a126.824,126.824,0,0,0-4.99-32.4,106.5,106.5,0,0,0-11.972-26.945,78.129,78.129,0,0,0-16.508-18.911c-1.46-1.187-2.935-2.272-4.389-3.277q-2.2-1.484-4.336-2.7a59,59,0,0,0-8.163-3.825,56.208,56.208,0,0,0-12.263-3.109c-.715-.111-1.382-.169-1.943-.23s-1.021-.1-1.382-.129a1.783,1.783,0,0,0-.826.05.988.988,0,0,0-.291.138l-.277,3.9a1.024,1.024,0,0,0,.265.183,1.85,1.85,0,0,0,.813.161c.36.027.823.051,1.311.109.5.051,1.077.094,1.751.193a52.09,52.09,0,0,1,11.347,2.76,54.555,54.555,0,0,1,7.6,3.473c1.333.741,2.692,1.568,4.065,2.479s2.759,1.921,4.142,3.024A74.19,74.19,0,0,1,259.3,157.654Z" transform="translate(7.186 3.346)" fill="#bccb5a"/>
    <g id="Group_18" data-name="Group 18" transform="translate(10.817 29.606)">
      <g id="Group_17" data-name="Group 17" opacity="0.39">
        <path id="Path_588" data-name="Path 588" d="M49.038,122.031c-10.291,8.957-15.189,42.157-14.351,45.468s63.89-6.731,61.022,2.807-50.227,4.92-56.639,5.781c-11.323,1.52-20.084,17.328-21.955,22.64-3.806,10.824-5.265,30.816-6.275,34.181S40.88,249.5,49.183,248.329s21.687-12.455,22.87-16.383,17.419-22.527,17.135-13.434-27.4,38.259-29.027,39.608,27.506,8.739,35.955,10.632c6.668,1.489,23.379-1.58,27.163-21.424,4.981-26.121,7.411-42.639,17.963-48.6,14.029-7.933-3.347,42.974-7.617,49.031s-5.5,14.254-10.841,21.828,86.963,11.666,82.09-14.882-19.46-37.046-14.743-46.641,13.535-7.163,12.738,4.437c-.933,13.556,4.313,33.044,7.447,44.449,2.746,10,50.814-10.044,54.185-21.267s-26.744-35.564-30.4-44.614,3.66-21.43,7.572-12.049,11.567,37.211,31.114,47.755c0,0,22.721-12.868,20.023-32.4s-21.888-41.191-50.17-50.908-20.672-19.7-17.989-26.387c0,0,22.118-63.953-8.356-79.406-40.366-20.471-87,4.044-93.612,7.481-12.9,6.7-8.352,15.542-8.352,15.542s49.448,10.468,65.476,34.018c4.54,6.675-2.817,10.684-7.363,7.485S148.16,77.164,132.5,74.295s-45.522.507-52.56,5.075c-16.718,10.847-20.2,30.6-20.2,30.6s29.2,7.524,44.633,9.1,33.785,9.551,32.489,14.038c-1.029,3.556-6.526,2.548-17.863-.451C112.667,130.984,59.723,112.723,49.038,122.031ZM190.113,155.8l.047.1c2.79,6.305,7.335,13.725,8.025,20.959,1.133,6.1-2.611,14.673-9.108,7.809-3.3-3.884-4.246-13.835-4.3-18.208C184.464,159.361,184.105,141.8,190.113,155.8Zm-37.185,4.379.04.041c3.678,3.937,5.284,14.847,6.127,20.336.591,4.689-4.118,14.365-10.328,10.117-3.7-2.6-2.031-14.2-1.3-18.2a31.939,31.939,0,0,1,1.608-8.257C150.069,161.114,151.031,158.645,152.927,160.18Zm-4.01-35.635c-4.162-.191-23.273-5.979-13.428-12.353C141.725,108.048,156.924,123.939,148.917,124.545ZM107.278,180.16c6.03-3.461,4.211,8.156-.16,10.354-2.987,1.5-5.778-.208-4.8-3.6A30.7,30.7,0,0,1,107.278,180.16Zm-3.194-24.711c3.849,2.849,3.883,6.085-1.1,7.026-2.09.22-10.585-1.432-12.223-2.245C82.43,154.753,98.447,151.278,104.084,155.45Z" transform="translate(-10.817 -29.606)" fill="#59731e"/>
        <g id="Group_9" data-name="Group 9" transform="translate(82.867 49.599)">
          <g id="Group_8" data-name="Group 8">
            <g id="Group_6" data-name="Group 6" transform="translate(37.57)">
              <path id="Path_589" data-name="Path 589" d="M131.339,110.483a7.586,7.586,0,0,0-2.012,1.821c-.735-1.242-1.518-2.45-2.224-3.551a53.079,53.079,0,0,0,6.683-1.934c-1.587-1.139-2.262-3.547-3.3-4.778,2.865-1.309,6.174.109,9.168,1.3-1.765-2.229-3.938-5.23-4.153-8.276,4.133-.4,8.435,3.659,11.6,5.94-1.4-3.413-2.884-7.367-2.647-11.047,2.867.92,13.1,13.006,13.1,13.006.864.143,3.564-5.4,3.564-5.4,2.717,2.422,8.873,8.711,8.873,8.711s3.513-.094,4.081-3.245c2.444,1.279,3.6,3.32,4.878,2.745a34.771,34.771,0,0,0,3.564-19.247c.954.684,3.4,1.962,4.443,3.192a8.532,8.532,0,0,0,.649-6.266,16.283,16.283,0,0,1,4.307,4.055c1.911-2,2.645-4.746,3.744-7.893,3.49,2.506,2.063,9.178,3.778,12.813,2.873-4.668,3.795-9.294,3.991-14.923,4.039,2.416,5.059,10.366,7.092,14.23.911-1.267,3.32-1.944,4-2.9.586,1.861,1.945,3.322,1.986,5.275,6.109-3.538,8.124-10.016,11.5-15.786a157.783,157.783,0,0,1-5.3,29.7,20.59,20.59,0,0,0-3.827-4.507c-1.825,2.537-2.607,6.3-4.659,9.16-2.9-4-4.243-8.82-7.137-12.826a22.8,22.8,0,0,1-4.027,9.616,61.792,61.792,0,0,1-5.243-8.1c-.505,2.047-.375,4.539-1.108,6.9-1.132-1.776-2.12-4.414-4.024-5.781-2.65,4.354-2.894,11.393-4.042,16.339a27.7,27.7,0,0,1-2.967-11.271c-3.37,3.351-.524,8.762-2.079,12.938-2.4-2.689-4.344-6.009-7.2-8.06.13,2.5.579,5.224.163,7.812-3.4-1.964-5.521-6.375-8.465-8.969.126,2.5,1.209,5.68.475,8.038-3.58-3.055-6.473-7.057-10.509-9.476a69.2,69.2,0,0,1-.63,14.939c-3.678-.909-6.883-3.013-10.667-2.9C148.914,118.385,136.754,106.883,131.339,110.483Z" transform="translate(-127.103 -77.496)" fill="#36471a"/>
            </g>
            <g id="Group_7" data-name="Group 7" transform="translate(0 34.699)">
              <path id="Path_590" data-name="Path 590" d="M90.828,131.068c5.148-.845,9.78-3.352,14.6-4.575,5.316,1.609,9.253,2.876,10.712,3.262,11.337,3,16.833,4.006,17.863.451.707-2.461-4.5-5.976-11.9-8.907,1.507-.576,2.911-1.126,4.126-1.581-2.717-2.913-8.95-1.387-12.485-2.484,4.321-2.667,9.576-1.615,14.8-2.187-1.5-.592-4.514-2.085-4.064-4.047a28.759,28.759,0,0,0,5.392,1.919c-.159,4.79,12.835,8.568,16.184,8.722a3.547,3.547,0,0,0,1.042-.241,47.62,47.62,0,0,1,2.63,5.333c-1.09.18-3.727,1.173-5.453.895.5,1.317.311,3.589.8,4.909-5.273,1.98-11.4.466-16.719,3.856.952.684,1.218,2.321,1.626,3.092-9.992.519-20.977-1.6-30.827-1.945,4.133-.4,8.228-2.747,12.093-4.779-6.216-2.061-12.944,1.279-19.024-1.644Z" transform="translate(-90.828 -110.999)" fill="#36471a"/>
            </g>
          </g>
        </g>
        <path id="Path_591" data-name="Path 591" d="M182.641,221.257c-.49,4.7.315,9.6-.651,13.967-4.076-4.375-7.944-10.038-12.566-12.642q.8,4.911,1.608,9.811c-3.331-2.393-7.138-5.13-10.677-6.222-2.333,6.258-9.8,16.706-15.324,21.388-1.776-7.508,2.661-10.062.079-16.936-2.4-7.111-.061-6.857-.124-10.276-3.991-11.522,4.242-10.826,3.871-23.363a19.7,19.7,0,0,0,6.379,8.193c-.269-1.636.622-3.881.832-5.176a55.642,55.642,0,0,0,3.315,6c.071-2.112,3.155-4.962,2.407-6.938,1.488,3.952,1.136,8.522,2.964,12,2.542-7.551,2.569-16.685,3.815-24.446,5.084,7.98,7.434,19.771,13.548,26.325.832-5.172.373-10.554,1.543-16.2a16.273,16.273,0,0,0,2.7,3.985,15.918,15.918,0,0,0-.981,1.736c-2.734,5.556,1.007,11.411,5.587,20.513-.657,2.134-1.739,4.413-2.427,6.134C185.823,227.875,183.65,224.871,182.641,221.257Z" transform="translate(-6.067 -24.002)" fill="#5f7d1e"/>
        <path id="Path_592" data-name="Path 592" d="M186.97,198.55a43.882,43.882,0,0,1,.076-7.311c.613,1.158,2.518,2.525,3.128,3.686a32.806,32.806,0,0,0,2.138-10.009c5.843,4.923,8.682,12.013,13.027,18.018,2.946-5.1-2.892-15.212-2.538-20.73,1.563,1.847,8.229,6.786,10.133,8.155.147-4.224-1.948-9.338-1.323-13.221,3.327,2.391,5.291,6.69,9.3,8.131.076-2.11,1.652-5.308,1.594-8.236.859,1.19,2.881,1.4,4.39,1.947a14.79,14.79,0,0,0,.925,6.827c1.213,3,5.332,7.682,10.178,13.008a25.387,25.387,0,0,1-11.424-1.8,3.771,3.771,0,0,0-1.333-.705,13.126,13.126,0,0,0,1.333.705c2.719,2.121,5.566,8.1,6.73,10.792-6.338-1.668-9.711-6.186-14.2-7.972,2.1,5.115,6.65,9.827,7.454,14.734-4.761-3.42-12.3-11-14.1-1.471-2.035-2.187-4.489-1.781-6.734-2.672-.466,13.246-.609,9.907-8.969,6.2a61.146,61.146,0,0,1-.171-9.395C197.227,197.9,191.633,194.51,186.97,198.55Z" transform="translate(-4.534 -24.344)" fill="#5f7d1e"/>
        <path id="Path_593" data-name="Path 593" d="M228.206,172.087c.755-3.853,1.352-7.317,1.352-7.317s7.667,2.943,10.05,9.7c.549,1.549,5.112.547,4.25-3.279l2.8,2.809c3.268-.533,4.423-.195,8.168-.389-7.093,2.838-3.832,4.954-9.363,9.635,2.059,1.569,3.93,5.772,3.93,5.772-3.144-1.617-4.835-.048-4.835-.048-2.751,4.158,2.354,5.484,4.072,8.326-1.417.4-2.986.767-4.633,1.082-5.079-9.7-8.071-19.369-10.078-24.184C232.261,170.221,229.988,170.158,228.206,172.087Z" transform="translate(-3.058 -24.782)" fill="#5f7d1e"/>
        <g id="Group_11" data-name="Group 11" transform="translate(18.075 98.04)">
          <g id="Group_10" data-name="Group 10">
            <path id="Path_594" data-name="Path 594" d="M179.067,128.6c-32.143,9.038-113.212,74.543-140.913,89.737-6.94,3.811-9.886,5.885-9.886,5.885.91.265,8.8,1.643,12.945.022,8.589-3.93,12.007-8.686,18.223-14.322-1.441,4.014-2.615,9.667-1.6,13.278,5.129-7.139,12.939-18.585,28.331-23.641-.552,1.767-3.014,6.479-3.563,8.247,9.55-1.856,7.652-9.65,13.316-13.516.793,5.65-.417,18.713,1.2,23.482,2.129-4.964,3.144-17.481,4.45-22.309,1.1-3.54,5.8-3.051,6.155-8.567,6.39,3.151-1.265,12.806,3.965,16.564,3.7-8.162,1.951-13.753,10.277-19.317,5.768,7.031,3.05,20.242,1.015,26.7,6.8-4.721,6-27.432,13.376-33.678,2.643,3.342,1.338,8.176,1.666,12.74,5.11-3,4.723-13.04,8.325-17.637.169-1.268.355-2.375.5-3.172a31.939,31.939,0,0,1,1.608-8.257c.989-3.106,1.951-5.575,3.848-4.04l.04.041c3.678,3.937,5.284,14.847,6.127,20.336a12.886,12.886,0,0,1-3.649,9.543,16.469,16.469,0,0,1-.519,2.616c5.659-.005,11.65-26.256,18.86-23.238,5.918,2.808,3.292,17.51,5.864,22.966a149.634,149.634,0,0,1,5.138-25.674c0-.1-.011-.225-.013-.312-.312-7.1-.67-24.655,5.337-10.658l.047.1c2.79,6.305,7.335,13.725,8.025,20.959a13.038,13.038,0,0,1,.139,3.571,95.642,95.642,0,0,0,2.543-10.087c15.318,5.109,17.794,25.122,22.828,32.1,5.212-14.289-13.345-27.623-9.361-39.193,5.443,2.469,11.763,7.731,17.008,6.451-7.138-5.129-14.866-16.454,1.189-10.691,7.553,2.54,14.084,5.23,20.191,13.066,9.857-13.717-40.824-30.645-30.64-42.809C206.88,121.908,187.529,126.217,179.067,128.6ZM106.5,187.135c-2.987,1.5-5.778-.208-4.8-3.6a30.7,30.7,0,0,1,4.959-6.75C112.685,173.32,110.866,184.938,106.5,187.135Z" transform="translate(-28.269 -124.268)" fill="#849f27"/>
          </g>
        </g>
        <g id="Group_15" data-name="Group 15" transform="translate(51.895 112.284)">
          <g id="Group_14" data-name="Group 14" transform="translate(0)">
            <g id="Group_12" data-name="Group 12" transform="translate(25.536 13.593)">
              <path id="Path_595" data-name="Path 595" d="M85.929,152.154a8.618,8.618,0,0,1-.35-1.008c.327.054.7.1,1.051.154A2.693,2.693,0,0,0,85.929,152.154Z" transform="translate(-85.579 -151.146)" fill="#36471a"/>
            </g>
            <g id="Group_13" data-name="Group 13">
              <path id="Path_596" data-name="Path 596" d="M93.921,166.436c.687-2.275-2.38-3.432-7.453-3.929.891-2.69-1.2-2.845-3.022-5.358,1.724.274,3.813.491,5.359-.32-.122-.315-.268-.619-.414-.924.2.152.346.3.581.456,1.638.813,10.133,2.465,12.223,2.245,4.984-.941,4.95-4.177,1.1-7.026-1.926-1.429-5.063-1.942-8.03-1.809-1.623-4.1-3.857-10.226-4.375-11.75,4.14.266,9.386,4.78,18.957,4.745,3.332-.012,13.879,1.044,17.8-.336a131.19,131.19,0,0,1-18.866,10.075c1.479,1.065-4.878,4.034,4.267,6.115-5.037,3.437-20.287,12.835-25.865,15.245.424.307,2.628,2.368,3.2,2.461-4.853,4.53-21.4,15.449-28.464,15.242,2.638-4.177,13.97-6.9,15.835-12.616-3.57-1.277-8.706,1.85-12.484.414,5.991-3.273,13.739-4.215,19.949-8.029C89.449,170.427,93.185,168.91,93.921,166.436Z" transform="translate(-60.923 -138.021)" fill="#36471a"/>
            </g>
          </g>
        </g>
        <g id="Group_16" data-name="Group 16" transform="translate(55.011 65.904)">
          <path id="Path_597" data-name="Path 597" d="M125.76,149.465c4.094-2.351,19.124-9.216,4.025-13.3,5.119-3.779,17.3,1.69,19.546-3.436,2.01-4.8-5.841-6.6-8.556-9.516,8.394,1.707,17.566,3,25.433-1.923,9.962-5.832-.739-3.659-4.632-16.316,6.079,2.924,11.411,11.566,18.673,11.493,9.856.345,7.078-13.192,9.137-19.406,2.9,4,4.008,12.495,9.41,13.009.555-3.449,1.336-7.217,2.615-9.664.853,3.5,2.065,9.179,5.463,11.141,2.1-4.266,6.476.8,16.036-18.3,1.746,8.952-8.75,22.894-4.37,30.854l1.644,2.9c-10.854.379-26.681-2.054-36.773,1.274-11.863,4.465-24.128,8.079-35.722,14.179a153.948,153.948,0,0,0-16.037,11.088c-5.158,3.95-10.323,6.809-15.258,10.522-9.257,6.977-16.819,11.806-24.324,17.235-1.81,1.307-14.887,10.295-17.23,12.151-5.3,4.2-25.7,11.842,8.3-9.885.707-.455-2.6-.847-2.6-.847a55.084,55.084,0,0,1,9.92-6.178c6.871-3.379,15.136-10.095,7.664-9.211,1.792-2.151,5.27-3.073,9.3-5.061a48.881,48.881,0,0,0,6.752-4.741,5.864,5.864,0,0,0-1.105-1.78c-1.423-1.8-6.178-.71-9.468-1.29a9.76,9.76,0,0,0-1.256-1.134C108.975,150.205,118.5,154.418,125.76,149.465Z" transform="translate(-63.932 -93.239)" fill="#849f27"/>
        </g>
        <path id="Path_598" data-name="Path 598" d="M86.641,223.407a39.225,39.225,0,0,0,4.2-8.525,30.784,30.784,0,0,0,4.1,9.68,27.268,27.268,0,0,0,2.427-7.394c.813,1.547,2.627,2.369,3.348,3.367,1.6-2.218,1.7-5.034,2.746-7.164.408.773,1.451,2,1.852,2.777.874-3.227,2.61-6.308,3.8-9.3,1.119,5.135.059,10.627,2.269,15.582,2.014-4.809,4.393-10.795,8.533-14.555-.285,5.087-1.575,10.9-2.086,16.3l-.546.089c-5.781,4.025-8.89,12.371-12.131,18.218,1.965-3.394,2.657-7.711.941-11.349a48.18,48.18,0,0,0-3.7,6.488c-.759-2.956-1.841-6.137-3.834-8.049-2.277,3.17-3.927,6.8-5.658,9.884-.993-2.635-1.21-5.681-3.29-8.138a42.863,42.863,0,0,1-6.565,7.795c.009-3.36.477-7.355.484-10.714-2.583.625-5.543,3.6-8.483,3.8a119.663,119.663,0,0,0,8.627-12.123A7.383,7.383,0,0,0,86.641,223.407Z" transform="translate(-8.524 -23.28)" fill="#5f7d1e"/>
        <path id="Path_599" data-name="Path 599" d="M76.925,237.214c.59,6.2-4.557,15.774-4.557,15.774,7.98-2.641,8.886-8.067,8.983-9.624a18.308,18.308,0,0,1-4.7,12.212c3.411,2.06,25.8-17.592,25.8-17.592-.986,5.119-13,20.5-13,20.5,5.823.471,13.641-13.2,13.641-13.2a38.994,38.994,0,0,1-4.456,13.29c7.928-.283,19.467-26.751,19.467-26.751a33.411,33.411,0,0,1,1.5,14.444c-5.7,14.333-19.488,16.6-25.4,15.271-5.791-1.3-21.291-5.179-29.952-7.92A170.6,170.6,0,0,0,76.925,237.214Z" transform="translate(-8.909 -22.389)" fill="#849f27"/>
        <path id="Path_600" data-name="Path 600" d="M10.841,225.942c17.677-2.932,27.418.577,27.418.577-7.416,4.817-8.282,8.347-8.282,8.347l4.008-.674a33.21,33.21,0,0,1,17.1-.7,15.8,15.8,0,0,0-8.547,7.187C30.435,237.952,10.016,228.686,10.841,225.942Z" transform="translate(-10.817 -22.64)" fill="#849f27"/>
        <path id="Path_601" data-name="Path 601" d="M104,81.6s14.032,9.465,19.492,8.084a3.216,3.216,0,0,0,.637-.231c4.9-2.415-6.316,8.088-24.92,2.284,0,0,6.649,12.242,25.25,14.927A129.316,129.316,0,0,1,85.5,109.008s-6.505-2.18,8.571,5.04c0,0-4.081.43-9.23.58-13.425-2.719-26.789-6.161-26.789-6.161s3.484-19.754,20.2-30.6c7.039-4.567,36.9-7.939,52.56-5.075a28.986,28.986,0,0,1,6.5,2.1C128.426,74.323,107.282,73.829,104,81.6Z" transform="translate(-9.131 -28.102)" fill="#36471a"/>
        <path id="Path_602" data-name="Path 602" d="M29.566,175.55c1.106.331,3.543.3,7.708-.2l-7.539,3.964s-2.769,4.026,2.073,1.972l-3.43,4.413s4.116,2.328,12.839-.441l-10.757,9.966s5.886,3.513,14.3.174l-7.014,8.813s6.248,5.306,22.944-12.995c0,0,8.7,10.627-33.244,31.368-7.927,3.917-13.021,6.28-16.6,5.121,1.01-3.365,2.469-23.357,6.275-34.181C18.417,189.829,23.056,181.061,29.566,175.55Z" transform="translate(-10.816 -24.404)" fill="#36471a"/>
        <path id="Path_603" data-name="Path 603" d="M79.078,131.89s-12.23-1.306-16.594-6.459c0,0,11.3,17.365,22.391,14.351,0,0-6.34,4.758-16.848-.625,0,0-5.213,4.071,6.878,10.1,0,0-9.721,2.971-17.129-.514,0,0,4.661,8.828,14.261,9.043,0,0-8.181,2.864-17.489,6.425-11.163.787-20.361,1.441-20.681.191-.839-3.311,4.06-36.511,14.351-45.468,3.383-2.95,11.006-3.13,20.043-1.949C70.56,122.491,74.263,129.421,79.078,131.89Z" transform="translate(-9.997 -26.511)" fill="#36471a"/>
        <path id="Path_604" data-name="Path 604" d="M210.223,53.033S220.5,75.927,221.058,87.872c0,0-30.823-42.9-39.3-41.029,0,0,10.176,8.906,14.637,16.789,0,0-13.887-12.13-19.826-10.039,0,0,19.012,12.757,22.165,17.834,0,0-31.71-14.368-34.46-11.279a23.689,23.689,0,0,1,10.173,11.9S163.238,59.19,152.082,58.532c0,0,18.127,14.082,20.058,20.716,0,0-34.589-26.68-42.337-20.2,0,0,24.553,11.125,28.955,19.419,0,0-3.157-1.572-7.877-3.7C131.808,65.149,110.795,60.7,110.795,60.7s-4.552-8.846,8.352-15.542c6.616-3.436,53.246-27.952,93.612-7.481,9.227,4.679,13.629,13.8,15.288,24.242C223.237,57.336,216.563,52.49,210.223,53.033Z" transform="translate(-7.276 -29.606)" fill="#36471a"/>
        <path id="Path_605" data-name="Path 605" d="M199.969,126.547s.089-.144.259-.415a13.657,13.657,0,0,0,.722-1.254,16.978,16.978,0,0,0,.961-2.128,19.723,19.723,0,0,0,.821-2.846q.078-.4.162-.808.057-.416.12-.845c.093-.574.121-1.164.177-1.772a33.019,33.019,0,0,0-.016-3.8c-.083-1.3-.22-2.648-.427-3.986s-.44-2.7-.718-4.04c-.539-2.686-1.173-5.335-1.73-7.826-.274-1.239-.539-2.444-.764-3.591s-.416-2.228-.58-3.23c-.071-.505-.143-.986-.206-1.447s-.108-.9-.158-1.308c-.075-.826-.138-1.545-.162-2.138-.042-.594-.035-1.061-.045-1.379s-.008-.493-.008-.493-.01.173-.025.492-.047.783-.038,1.382c-.018.6,0,1.321.028,2.152.021.415.043.862.074,1.325s.073.954.118,1.464c.1,1.02.219,2.123.378,3.287s.34,2.386.541,3.649c.395,2.525.866,5.205,1.234,7.887.187,1.342.341,2.686.452,4s.165,2.61.17,3.856a31.4,31.4,0,0,1-.207,3.551c-.092.551-.146,1.093-.263,1.6-.054.254-.107.51-.156.756-.066.239-.127.481-.193.712a17.491,17.491,0,0,1-.874,2.451,14.976,14.976,0,0,1-.916,1.734c-.242.437-.549.837-.726,1.1s-.282.4-.282.4Z" transform="translate(-4.147 -27.692)" fill="#bccb5a"/>
        <path id="Path_606" data-name="Path 606" d="M192.154,126.467l.714.465c.234.149.517.34.857.558.3.224.659.485,1.046.774s.829.647,1.295,1.027.968.819,1.5,1.285,1.073.992,1.66,1.533c.573.562,1.178,1.145,1.8,1.772,1.255,1.264,2.615,2.631,4.057,4.076s3.048,2.943,4.8,4.377a37.016,37.016,0,0,0,5.805,3.938c2.062,1.1,4.18,2.193,6.283,3.28,4.217,2.174,8.414,4.36,12.258,6.57a88.918,88.918,0,0,1,10.124,6.634,30.308,30.308,0,0,1,6.047,6.015c.29.428.551.813.752,1.161.185.353.37.647.482.9.229.506.347.779.347.779s-.11-.277-.319-.791c-.1-.256-.277-.557-.453-.919s-.434-.752-.713-1.2a30.471,30.471,0,0,0-5.876-6.282,89.4,89.4,0,0,0-9.946-7.045c-3.782-2.359-7.919-4.7-12.056-7.026-2.067-1.165-4.128-2.323-6.141-3.5a35.175,35.175,0,0,1-5.385-3.946c-1.639-1.432-3.127-2.941-4.511-4.418-1.382-1.5-2.689-2.907-3.9-4.21-.606-.657-1.206-1.28-1.772-1.874-.586-.577-1.119-1.144-1.663-1.647s-1.027-.991-1.521-1.408-.913-.821-1.36-1.16c-.431-.339-.814-.647-1.154-.908-.327-.232-.608-.429-.832-.592-.454-.319-.7-.488-.7-.488Z" transform="translate(-4.345 -26.23)" fill="#bccb5a"/>
        <path id="Path_607" data-name="Path 607" d="M181.389,128.031s.932,1.476,2.562,4.065c.814,1.295,1.851,2.851,3.015,4.646,1.177,1.776,2.5,3.785,3.946,5.973s3.022,4.545,4.62,7.075c.8,1.263,1.653,2.547,2.471,3.887s1.653,2.708,2.5,4.1c.823,1.405,1.625,2.852,2.46,4.307.208.366.413.731.621,1.1.19.378.383.751.575,1.126.384.754.772,1.513,1.162,2.271.193.379.39.76.584,1.143.093.187.2.385.284.565l.27.589c.359.792.718,1.579,1.079,2.374.721,1.58,1.448,3.172,2.174,4.762s1.449,3.177,2.168,4.76c.364.8.723,1.583,1.081,2.373s.692,1.583,1.035,2.37c1.381,3.149,2.729,6.248,4.038,9.248.33.747.652,1.495.978,2.227.157.371.319.738.477,1.1l.236.547.212.545c.284.736.574,1.46.785,2.186.116.363.236.721.35,1.081s.2.726.3,1.082a75.682,75.682,0,0,1,1.708,8.253c.4,2.585.657,4.969.844,7.089s.309,3.971.375,5.5.086,2.73.1,3.551c-.005.815-.009,1.251-.009,1.251s.018-.433.039-1.251.028-2.026-.01-3.551-.1-3.389-.237-5.514-.34-4.529-.676-7.131a76.167,76.167,0,0,0-1.517-8.354c-.09-.367-.182-.731-.275-1.107s-.216-.739-.328-1.112c-.208-.759-.476-1.49-.744-2.234l-.2-.565-.224-.553-.456-1.116q-.455-1.115-.921-2.254c-1.239-3.039-2.517-6.178-3.818-9.363q-.486-1.2-.983-2.4t-1.02-2.4q-1.027-2.4-2.054-4.817t-2.058-4.813q-.508-1.2-1.018-2.4l-.256-.6c-.1-.218-.187-.4-.282-.6-.187-.391-.377-.783-.562-1.174-.376-.78-.748-1.558-1.125-2.33l-.555-1.159c-.2-.377-.4-.754-.6-1.127-.806-1.489-1.583-2.975-2.38-4.414q-1.234-2.138-2.425-4.2c-.789-1.374-1.617-2.679-2.388-3.973-1.549-2.587-3.082-4.976-4.464-7.209s-2.659-4.256-3.786-6.059c-1.112-1.808-2.1-3.36-2.878-4.673-1.568-2.629-2.462-4.132-2.462-4.132Z" transform="translate(-4.729 -26.144)" fill="#bccb5a"/>
        <path id="Path_608" data-name="Path 608" d="M155.452,136.267s.854,1.675,2.351,4.6c1.476,2.934,3.582,7.126,5.793,12.278,1.1,2.575,2.214,5.4,3.223,8.437a78.15,78.15,0,0,1,2.575,9.716,71.5,71.5,0,0,1,1.254,10.673c.084,1.833.092,3.685.035,5.544-.016.93-.077,1.857-.117,2.792l-.206,2.81c-.307,3.734-.726,7.47-1.2,11.141-.508,3.663-1.038,7.268-1.653,10.741-.285,1.741-.632,3.44-.927,5.113q-.508,2.493-.989,4.874c-.68,3.163-1.362,6.144-2.056,8.881s-1.381,5.229-2.021,7.431c-.331,1.1-.648,2.125-.935,3.076s-.6,1.81-.855,2.587c-.506,1.573-.984,2.776-1.281,3.6s-.472,1.273-.472,1.273l.5-1.26c.318-.822.825-2.019,1.364-3.574.274-.778.6-1.632.919-2.573s.649-1.964,1.008-3.055c.689-2.19,1.443-4.678,2.189-7.4s1.512-5.693,2.264-8.848q.53-2.372,1.1-4.864c.339-1.668.725-3.364,1.047-5.106.7-3.469,1.31-7.069,1.9-10.742.565-3.674,1.071-7.418,1.464-11.182a87.087,87.087,0,0,0,.549-11.309,72.9,72.9,0,0,0-1.039-10.963,80.474,80.474,0,0,0-2.409-10.014c-.964-3.131-2.031-6.036-3.09-8.684-2.129-5.286-4.16-9.558-5.577-12.543-1.438-2.976-2.258-4.678-2.258-4.678Z" transform="translate(-5.655 -25.843)" fill="#bccb5a"/>
        <path id="Path_609" data-name="Path 609" d="M118.148,159.565s.138.357.387,1.029c.118.33.217.713.361,1.174.115.482.266,1.039.385,1.672a35.3,35.3,0,0,1,.583,4.664,61.309,61.309,0,0,1,.074,6.164,119.575,119.575,0,0,1-1.679,15.456c-.472,2.809-1.031,5.707-1.665,8.638s-1.347,5.9-2.131,8.841c-.384,1.472-.8,2.938-1.22,4.4l-.319,1.093-.02.066-.012.033c.017-.037,0,.009,0,.009l-.052.135-.1.266-.191.535c-.271.7-.5,1.432-.8,2.113a75.564,75.564,0,0,1-3.746,7.938c-.664,1.265-1.381,2.469-2.066,3.668-.713,1.169-1.4,2.327-2.112,3.431-1.4,2.221-2.78,4.277-4.065,6.171-2.58,3.784-4.766,6.922-6.247,9.144-.748,1.108-1.324,1.99-1.714,2.589s-.6.92-.6.92.213-.318.62-.907.99-1.461,1.761-2.554c1.526-2.195,3.771-5.282,6.427-9.017,1.325-1.869,2.751-3.9,4.2-6.1.732-1.092,1.448-2.243,2.187-3.406.714-1.185,1.454-2.384,2.151-3.643a74.952,74.952,0,0,0,3.94-7.952c.32-.693.559-1.4.846-2.1l.205-.529.1-.266.05-.132.02-.057.015-.036.018-.065.345-1.091c.453-1.459.9-2.926,1.313-4.4.852-2.944,1.618-5.91,2.317-8.842s1.322-5.839,1.856-8.666a121.585,121.585,0,0,0,2.013-15.616c.122-2.311.136-4.439.045-6.334a35.992,35.992,0,0,0-.516-4.91c-.111-.677-.262-1.28-.377-1.811-.155-.531-.275-1.006-.39-1.348-.237-.677-.365-1.037-.365-1.037Z" transform="translate(-7.948 -24.991)" fill="#bccb5a"/>
        <path id="Path_610" data-name="Path 610" d="M69.3,193.693s-.032.181-.093.517-.141.845-.286,1.448-.292,1.342-.54,2.188c-.11.423-.239.869-.391,1.338s-.3.965-.485,1.472c-.357,1.021-.777,2.117-1.271,3.256-.249.571-.5,1.154-.788,1.743-.143.3-.283.59-.427.892s-.306.6-.461.9c-.614,1.209-1.312,2.431-2.041,3.659-.747,1.218-1.528,2.444-2.355,3.634-.822,1.206-1.7,2.366-2.571,3.5a23.649,23.649,0,0,1-2.86,3.036c-1.01.912-2.053,1.733-3.035,2.509s-1.92,1.509-2.756,2.226a25.5,25.5,0,0,0-2.178,2.064,14.831,14.831,0,0,0-1.436,1.813c-.173.273-.322.517-.455.724s-.206.409-.286.561c-.153.312-.234.471-.234.471s.09-.159.249-.463c.084-.145.178-.332.3-.549s.3-.445.48-.707a14.955,14.955,0,0,1,1.486-1.75A25.543,25.543,0,0,1,49.1,226.2c.852-.686,1.813-1.383,2.825-2.128s2.081-1.534,3.136-2.427a23.923,23.923,0,0,0,3.029-3.008c.92-1.11,1.841-2.257,2.709-3.443s1.709-2.39,2.508-3.6c.779-1.221,1.529-2.435,2.2-3.646.165-.3.335-.6.5-.9s.31-.6.462-.9c.313-.591.592-1.18.865-1.754.544-1.149,1.014-2.257,1.413-3.29.209-.515.381-1.022.551-1.5s.319-.934.452-1.37c.279-.858.475-1.633.639-2.271s.256-1.119.338-1.458.11-.512.11-.512Z" transform="translate(-9.62 -23.75)" fill="#bccb5a"/>
        <path id="Path_611" data-name="Path 611" d="M81.3,186.6l-2.549-.8c-.4-.125-.853-.269-1.34-.423-.5-.135-1.052-.254-1.635-.395a40.193,40.193,0,0,0-3.937-.834q-1.086-.179-2.264-.368a12.019,12.019,0,0,0-1.2-.136c-.41-.037-.821-.074-1.241-.113l-1.273-.114c-.216-.023-.432-.04-.648-.06s-.44-.008-.661-.018q-1.327-.023-2.7-.051c-.231-.006-.458-.009-.69-.012-.232.012-.463.019-.7.032-.467.022-.933.047-1.4.068-.941.048-1.9.072-2.851.211-.958.111-1.916.225-2.884.339-.959.174-1.919.352-2.88.528l-.72.133c-.267.044-.478.123-.721.178-.467.138-.939.229-1.4.41s-.933.319-1.383.5l-1.339.564c-1.75.8-3.426,1.675-5.016,2.567-3.18,1.79-6.084,3.565-8.641,4.954-.636.356-1.26.671-1.846.982s-1.162.572-1.69.832c-1.077.492-2.022.916-2.821,1.2-.4.139-.751.291-1.067.381s-.584.174-.806.24c-.437.126-.669.2-.669.2s.234-.063.672-.186c.219-.059.491-.135.808-.225s.671-.227,1.079-.362c.809-.265,1.762-.671,2.848-1.14.534-.251,1.115-.507,1.71-.8s1.223-.6,1.867-.947c2.588-1.346,5.525-3.068,8.733-4.792,1.6-.861,3.281-1.7,5.028-2.458.441-.174.883-.353,1.326-.531s.9-.3,1.353-.458.93-.252,1.394-.376c.231-.051.481-.13.7-.16l.717-.115q1.432-.241,2.857-.474,1.435-.141,2.857-.282c.944-.119,1.888-.127,2.819-.152.467-.018.926-.029,1.388-.045.233-.006.459-.01.689-.021.229.008.456.016.678.026q1.356.054,2.663.1c.215.01.432.018.649.028s.426.042.637.069c.423.05.842.089,1.251.136s.82.092,1.22.134.794.076,1.176.158q1.153.207,2.217.4c1.434.219,2.695.6,3.829.883.563.145,1.1.274,1.582.415.485.164.933.312,1.335.448l2.531.853Z" transform="translate(-10.406 -24.121)" fill="#bccb5a"/>
        <path id="Path_612" data-name="Path 612" d="M132.521,151.14l-.864-.369c-.285-.123-.632-.269-1.041-.444s-.874-.377-1.425-.58-1.145-.437-1.8-.681-1.373-.475-2.135-.735-1.581-.507-2.445-.765c-.432-.126-.87-.271-1.328-.4l-1.4-.372c-1.907-.515-4-.984-6.206-1.446-2.217-.432-4.561-.864-6.991-1.228-2.427-.38-4.944-.727-7.493-1.082q-1.912-.269-3.841-.567l-1.923-.318-1.912-.394c-1.282-.255-2.557-.552-3.842-.774s-2.577-.423-3.854-.633l-.951-.157c-.32-.04-.638-.08-.96-.116q-.948-.115-1.894-.233c-1.256-.148-2.489-.329-3.718-.4l-3.607-.291c-.59-.058-1.173-.071-1.749-.092s-1.153-.045-1.712-.065-1.115-.043-1.664-.062-1.081-.052-1.615-.039c-1.058,0-2.082.007-3.06.016-1.97-.03-3.765.107-5.36.174l-2.23.112c-.686.062-1.317.125-1.889.174l-3.581.34,3.589-.268c.57-.045,1.2-.094,1.889-.144.687-.02,1.433-.047,2.23-.071,1.591-.039,3.391-.137,5.347-.072l3.059.045c.527-.006,1.067.034,1.613.064l1.658.1c.555.03,1.125.063,1.7.1s1.157.056,1.743.123q1.757.18,3.588.358c1.221.1,2.449.3,3.7.47.622.09,1.251.176,1.882.266l.948.134.949.174,3.808.7c1.274.245,2.547.567,3.825.844l1.924.433c.643.12,1.289.241,1.933.358q1.934.337,3.842.64c2.548.4,5.047.8,7.458,1.217s4.727.882,6.913,1.354c2.182.5,4.238,1,6.109,1.541.467.134.926.267,1.376.395s.876.279,1.3.408c.845.274,1.649.524,2.389.8s1.445.507,2.076.756,1.213.487,1.732.7.989.409,1.4.6.753.336,1.029.462l.858.385Z" transform="translate(-9.417 -25.705)" fill="#bccb5a"/>
        <path id="Path_613" data-name="Path 613" d="M171.814,130.5l-.781-.735c-.5-.482-1.259-1.179-2.182-2.082s-2.055-2-3.347-3.278-2.765-2.708-4.363-4.276c-1.627-1.548-3.383-3.239-5.342-4.932-.955-.864-2.005-1.692-3.046-2.56-1.085-.832-2.165-1.7-3.339-2.5-1.139-.841-2.369-1.6-3.593-2.388-1.266-.722-2.523-1.5-3.861-2.145-.333-.171-.666-.339-1-.51l-.5-.252-.511-.229q-1.03-.454-2.056-.912c-.688-.3-1.4-.547-2.1-.823s-1.405-.547-2.112-.783c-1.4-.491-2.81-.986-4.209-1.476s-2.831-.909-4.23-1.364c-.7-.222-1.4-.444-2.1-.662s-1.39-.414-2.078-.623q-2.072-.606-4.087-1.2c-2.688-.76-5.28-1.5-7.746-2.2-1.231-.35-2.428-.694-3.585-1.021s-2.273-.669-3.343-.986-2.1-.611-3.073-.916l-2.756-.876c-.863-.273-1.674-.529-2.42-.77-.743-.257-1.421-.491-2.039-.709l-3.864-1.351s1.4.529,3.826,1.467c.612.226,1.285.485,2.016.765.744.26,1.549.539,2.406.836s1.767.621,2.728.956,1.989.657,3.047,1.009,2.172.7,3.317,1.079l3.557,1.122c2.439.771,5.015,1.581,7.677,2.424q2,.651,4.044,1.319,1.021.339,2.055.675,1.027.359,2.061.72c1.375.493,2.767.944,4.156,1.474s2.776,1.066,4.17,1.595c.7.261,1.375.548,2.053.833s1.367.546,2.026.86,1.319.635,1.979.95l.489.234.482.263.956.521c1.28.662,2.479,1.457,3.69,2.193,1.166.8,2.335,1.565,3.423,2.418,1.12.8,2.146,1.687,3.175,2.523,1,.883,1.992,1.711,2.911,2.59,1.865,1.711,3.548,3.429,5.114,5.008,1.547,1.6,2.965,3.078,4.224,4.382s2.359,2.455,3.278,3.4,1.639,1.656,2.137,2.154.753.759.753.759Z" transform="translate(-8.056 -27.524)" fill="#bccb5a"/>
        <path id="Path_614" data-name="Path 614" d="M192.914,127.28s-.01-.324-.027-.937-.038-1.5-.13-2.675c-.064-1.177-.2-2.574-.387-4.176-.116-.8-.208-1.655-.353-2.546s-.279-1.832-.481-2.8-.38-1.986-.631-3.02c-.117-.52-.242-1.048-.366-1.587s-.278-1.076-.415-1.621c-.268-1.1-.626-2.211-.946-3.355-.181-.564-.364-1.135-.549-1.718s-.371-1.157-.583-1.738c-.784-2.337-1.751-4.7-2.77-7.074-1.047-2.368-2.211-4.727-3.459-7.035-1.281-2.3-2.623-4.553-4.081-6.684a70.589,70.589,0,0,0-4.565-6.055c-.194-.237-.388-.469-.586-.706s-.4-.454-.6-.675q-.607-.674-1.2-1.334c-.413-.426-.819-.842-1.225-1.256-.2-.2-.4-.411-.6-.614s-.418-.386-.625-.583c-.409-.385-.813-.764-1.212-1.141-.414-.354-.817-.708-1.223-1.053-.785-.708-1.612-1.312-2.382-1.919-.382-.312-.78-.579-1.166-.85l-1.119-.793c-.749-.494-1.474-.929-2.143-1.36-1.381-.794-2.6-1.464-3.634-1.938-1.017-.52-1.862-.83-2.419-1.071s-.87-.357-.87-.357.3.135.854.383,1.385.6,2.382,1.15c1.02.5,2.208,1.214,3.556,2.05.65.448,1.358.905,2.08,1.421.356.266.719.543,1.091.823s.759.556,1.127.879c.742.628,1.542,1.25,2.3,1.98.388.354.781.717,1.18,1.08l1.16,1.169c.2.2.4.4.592.592s.384.419.578.628l1.167,1.282c.376.448.758.9,1.142,1.356.191.228.382.459.577.687.184.243.372.476.556.717a72.508,72.508,0,0,1,4.306,6.116c1.364,2.15,2.615,4.417,3.8,6.712,1.16,2.316,2.223,4.671,3.177,7.03.922,2.368,1.787,4.713,2.488,7.03.19.576.358,1.152.517,1.723s.319,1.136.477,1.7c.281,1.129.588,2.225.816,3.309.122.54.239,1.072.358,1.594q.154.788.307,1.561c.207,1.017.357,2.011.512,2.964s.259,1.87.384,2.738.174,1.7.257,2.472c.128,1.558.22,2.922.245,4.025.052,1.094.038,2,.035,2.611s0,.934,0,.934Z" transform="translate(-5.772 -28.571)" fill="#bccb5a"/>
        <path id="Path_615" data-name="Path 615" d="M213.723,126.42a62.9,62.9,0,0,0-11.565-.373,94.017,94.017,0,0,0-15.01,2.473,150.676,150.676,0,0,0-17.291,5.312c-3,1.156-6.056,2.435-9.129,3.843q-2.305,1.053-4.627,2.2c-1.513.746-3.017,1.6-4.53,2.48-6.056,3.547-12.145,7.617-18.3,11.78s-12.362,8.494-18.559,12.828c-12.392,8.672-24.751,17.41-36.431,25.467S55.6,207.886,45.984,213.922s-17.866,10.727-23.962,13.353a30.41,30.41,0,0,1-7.307,2.343c-.888.083-1.543.252-2,.279a2.742,2.742,0,0,1-.52,0c-.114-.011-.174-.024-.174-.024l.174.018a3.043,3.043,0,0,0,.52-.005c.455-.033,1.116-.221,1.994-.315a30.22,30.22,0,0,0,7.241-2.467c6.031-2.727,14.179-7.554,23.673-13.751s20.344-13.782,31.869-22.047,23.716-17.214,35.96-26.116c6.121-4.445,12.255-8.88,18.35-13.176,3.05-2.151,6.087-4.267,9.121-6.317s6.065-4.041,9.136-5.9c1.531-.923,3.088-1.813,4.692-2.623q2.355-1.19,4.7-2.28c3.125-1.452,6.233-2.764,9.293-3.957a120.889,120.889,0,0,1,17.659-5.6,97.382,97.382,0,0,1,15.555-2.284c4.688-.267,9.432-.616,12.788-.226,3.318.394,4.952.377,6.9.678a25.7,25.7,0,0,0,1.315,4.566c-.379-.1-1.346-.374-1.916-.5A51.965,51.965,0,0,0,213.723,126.42Z" transform="translate(-10.774 -26.285)" fill="#bccb5a"/>
        <path id="Path_616" data-name="Path 616" d="M128.617,248.573a31.248,31.248,0,0,0-.693,8.16c7.051-2.229,12.753-9.893,12.753-9.893-3.192,7.894,7.555,13.695,7.555,13.695-.5-6.987,5.575-14.123,5.575-14.123,1.128,11.487,6.6,8.326,6.6,8.326-1.1-10.023,5.384-13.926,5.384-13.926-6.6,8.253,4.918,22.133,4.918,22.133-3.061-4.944.083-15.28.083-15.28.891,8.052,12.5,13.128,12.5,13.128-3.582-4.815,3.239-23.087,3.239-23.087.782,9.791,4.592,11.115,6.9,10.994a39,39,0,0,0-.237,5.182,30.347,30.347,0,0,0,.678,5.844c-20.937,12.325-79.2,8.5-74.934,2.434a37.135,37.135,0,0,0,2.087-3.336Z" transform="translate(-6.966 -22.179)" fill="#476920"/>
        <path id="Path_617" data-name="Path 617" d="M208.165,217.993c-4.154,15.9,4.431,24.619,4.431,24.619,1.374-16.746,14.7-23.081,10.819-19.731a3.485,3.485,0,0,0-.434.455c-3.153,4.09.353,18.083.353,18.083,10.291-.76,13.506-23.455,13.506-23.455,1.879,5.2-3.507,22.237,5.631,18.314,3.754-1.609,4.305-23.442,4.305-23.442a32.978,32.978,0,0,1,7.517,11.675,25.564,25.564,0,0,0,.142,5.1c.161,1.189.375,2.388.651,3.579-10.873,11.285-49.053,26.1-51.492,17.221-1.314-4.79-3-11.006-4.452-17.613A105.538,105.538,0,0,1,208.165,217.993Z" transform="translate(-4.095 -23.066)" fill="#476920"/>
        <path id="Path_618" data-name="Path 618" d="M264.267,221.86a39.768,39.768,0,0,1-8.46-6.2c-.656-11.95-6.17-28.727-6.17-28.727,5.244,3.363,11.43,21.937,11.43,21.937,3.341-9.285-4.186-21.889-4.186-21.889a18.367,18.367,0,0,1,7.04,11.5c3.726-1.413,2.07-31.155,2.07-31.155,3.425,3.931,8.11,22.877,8.11,22.877,3.965-4.291-1.974-18.881-1.974-18.881,5.469,5.755,9.831,16.453,9.831,16.453,1.149-1.578.5-5.282-1.127-9.963a43.142,43.142,0,0,1,3.458,11.654C286.988,208.992,264.267,221.86,264.267,221.86Z" transform="translate(-2.293 -24.691)" fill="#476920"/>
      </g>
    </g>
  </g>
</svg>
