<svg xmlns="http://www.w3.org/2000/svg" width="144.404" height="331.368" viewBox="0 0 144.404 331.368">
  <g id="Group_30" data-name="Group 30" transform="translate(-428.62 -231.59)">
    <g id="Group_29" data-name="Group 29">
      <path id="Path_638" data-name="Path 638" d="M430.092,515.988a76.837,76.837,0,0,1-1.163-9.13c15.8.457,41.957,1.338,40.4-1.669-1.688-3.257-21.932-1.422-30.77-5.158a73.609,73.609,0,0,1-9.936-5.209c.147-8.121.854-16.235,1.559-23.027,6.506,1.991,29.766,14.335,30.72,8.895.066-.375-22.3-8.844-30.187-11.428.358-3.466.3-5.607.561-8.19,1.083-.982,39.061,14.107,38.16,10.918-2.816-9.96-28.855-11.521-36.754-20.231a3.064,3.064,0,0,1-.527-.929c1.641-6.114,7.081-26.39,9.44-35.468,6.426,8.578,32.53,20.572,31.7,17.183-.559-2.271-22.946-11.4-27.83-26.311.811-4.479,2.383-13.145,4.053-22.426,12.491,7.175,32.139,21.218,35.393,18.868.975-.7-35.043-20.816-35.043-20.816,1.818-10.1,3.7-20.637,4.819-27.13a.714.714,0,0,1,.328.227c6.43,8.658,36.928,30.637,37.944,19.369.157-1.732-39.312-21.23-38.359-34.325,1.584-7.024,4.346-19.306,6.592-29.412,5.515,4.757,25.047,21.322,27.947,19.888.99-.489-20.879-19.055-27.1-23.728,1.113-5.024,1.669-7.571,2.209-10.131,7.624-.706,35.62,24.269,34.819,17.945-.293-2.3-27.382-19.711-29.638-25.155s33.715-39.844,29.692-55.387c-3.467-13.394,59.341,32.228,59.617,47.395s-30.49,37.617-29.81,39.979c2.63,9.127,18.622-18.95,33-26.651.323-.173.67.014,1.035.445.385,2.26.907,5.327,1.516,8.894,0,0-32.58,33.42-31.71,33.206,10.627-2.628,32.336-29.543,32.336-29.543,2.27,13.282,5.447,31.808,7.92,45.962-3.34,7.954-30.338,15.379-32.48,27.476-.89,5.019,31.887-17,32.252-16.531-.354,6.577-1.185,22.125-1.766,33.778l-31.454,12.588c-2.41,3,15.878-3.732,31.328-10.052-.082,1.688-.159,3.262-.224,4.676-12.123,15.8-46.436,17.856-46.436,17.856,6.64,10.836,41.312-6.619,44.783-8.142a.8.8,0,0,1,.888.22c-.485,4.108-1.144,9.7-1.827,15.534-.985,8.422-2.022,17.363-2.666,23.182-.058.1-.14.188-.205.281-6.876,10.252-50.369,20.852-49.369,22.159,5.727,7.465,33.129-10.11,47.884-12.328a1.145,1.145,0,0,1,.541.049c-.785,8.217-1.035,16.974-2.343,24.755-.118.695-.266,1.327-.4,2,0,0-41.3,16.946-40.49,17.878,5.7,6.516,37.479-6.144,37.479-6.144-.53,1.585-1.061,3.07-1.581,4.338-.707,1.722-1.428,3.372-2.162,4.993-2.27.68-5.124,1.411-8.792,2.163-16.072,3.311-27.231-.485-31.524.841-3.956,1.224,10.85,2.939,13.8,3.28,5.2.6,15.525-.118,23.953-.9-25.637,50.85-63.663,45.37-67.415,44.91C453.427,558.736,435.489,543.076,430.092,515.988Z" fill="#384a1c"/>
    </g>
  </g>
</svg>
