<svg xmlns="http://www.w3.org/2000/svg" width="312.425" height="284.417" viewBox="0 0 312.425 284.417">
  <g id="Group_28" data-name="Group 28" transform="translate(-197.455 -34.609)" opacity="0.4">
    <path id="Path_619" data-name="Path 619" d="M377.643,89.048s1.83,2.873,1.193,14.088c-.462,8.112-4.864,12.393-7.336,13.977-1.954,1.252-3.934-1.331-3.837-4.849.363-13.413,8.262-21.648,5.145-32.474-.05-.174-.093-.346-.149-.52-2.383-7.563-19.692-18.374-26.484-22.242-.246-.142-.5-.287-.765-.433a146.464,146.464,0,0,0-13.441-6.472C338,45.648,344.7,41.151,351.335,39.262c6.127-1.746,36.635-14.1,58.308,10.419,0,0-39.571,4-30.981,15.133,4.122,5.341,22.137-11.839,33.607-10.116,11.986,1.633,38.458,23.031,37.875,32.665,0,0-46.7,1.141-38.356,19.6,4.743,10.5,26.6-19.336,42.693-14.344,8.975,2.783,30.033,25.1,33.018,40.8,0,0-27.111-13.126-35.29-6.647-13.528,10.869,21.35,9.574,24.84,9.763,13.477-.489,17.367,7.465,20.011,21.1,1.473,6.924,16.082,52.283,12.151,53.983-8.519.184-33.608-10.417-38.389-15.212-4.1-3.939-21.925-33.076-17.607-21.285,1.631,4.455,12.893,14.534,14.7,21.505,1.242,4.8-15.018-16.231-18.08-20.742-11.4-30.662-38.885-60.965-54.541-76.627C388.237,92.259,380.342,83.275,377.643,89.048Z" fill="#59731e"/>
    <g id="Group_21" data-name="Group 21">
      <g id="Group_20" data-name="Group 20">
        <path id="Path_620" data-name="Path 620" d="M341.336,85.946l21.269,35.815s21.88-5.622,27.295-1.74c18.3,13.114,62.351,45.655,71.879,54.22,4.641,4.167,6.95,5.817,6.95,5.817-.041-.747-1.07-6.969-3.355-9.63-5.158-5.363-9.585-6.666-15.394-9.819,3.361.025,3.473-2.054,10.289-2.266-6.235-6.3-17.188-4.779-24.954-14.906,1.458-.051,13.065,1.2,14.522,1.151-3.865-6.616-16.629-3.826-20.979-7.031,3.994-2.06,14.022-4.562,17.146-7.009-4.245-.289-13.815,2.215-17.745,2.5-2.919.1-3.779-3.514-7.973-2.345.679-5.572,9.851-2.395,11.282-7.262-7.034-.628-10.733,2.132-17.038-2.609,3.727-6.12,14.256-7.54,19.59-7.709-5.28-3.825-21.959,2.68-28.522-1.174,1.8-2.837-.334-7.248,2.972-8.681-3.561-3.019-22.914,3.938-22.266,2.129l.019-.042c4.809-14.288,17.841-15.4,18.576-15.436-1.477-4.206-40.378-2.918-31.536-11.029,0,0,.049-.044.063-.06,5.158-6.657,17.545-8.968,16.9-9.664-1.471-1.6-17.8.291-19.681.625-.19-12.718,8.7-12.863,12.575-18.422-4.211.6-8.6,8.9-18.244,8.946.42-4.689,5.173-10.271,2.855-13.838-11.365,12.794-26.719,6.975-22.482.394-12.764-3.755-17.477,37.976-29.172,33.572C316.39,83.445,341.336,85.946,341.336,85.946Zm79.45,45.61c1.894,1.828,1.35,4.349-1.431,4.507a24.236,24.236,0,0,1-6.309-1.93C408.9,130.552,418.014,128.877,420.786,131.556Z" fill="#849f27"/>
      </g>
    </g>
    <g id="Group_25" data-name="Group 25">
      <g id="Group_24" data-name="Group 24">
        <g id="Group_23" data-name="Group 23">
          <g id="Group_22" data-name="Group 22">
            <path id="Path_621" data-name="Path 621" d="M307.619,92.019a44.887,44.887,0,0,1-7.33-8.966c2.656-2.641,5.373-5.39,8.045-8.125a115.915,115.915,0,0,1,7.89,14.194C317.807,92.387,319.469,101.7,307.619,92.019Z" fill="#59731e"/>
          </g>
          <path id="Path_622" data-name="Path 622" d="M480.692,126.609s-9.522-4.581-13.369-3.492l8.783-4.316c-2.566-3.937-18.676-4.121-18.676-4.121,1.578-2.328,8.737-5.852,8.737-5.852-8.111-3.131-21.06,5.171-21.06,5.171,1.911-7.666,14.3-11.915,14.3-11.915-7.854-8.049-12.484-2.138-12.484-2.138s-.571-3.8,2.963-7.879a13.263,13.263,0,0,1,4.593.551c8.968,2.781,30,25.066,33.012,40.769l-.142-.038c-.761-.362-4.438-2.082-9.21-3.871h0S479.575,128.026,480.692,126.609Z" fill="#36471a"/>
        </g>
      </g>
    </g>
    <path id="Path_623" data-name="Path 623" d="M438.918,151.429l2.04-.2,1.072-.1c.4-.022.829-.023,1.29-.036a30.8,30.8,0,0,1,3.085,0c.562.026,1.15.055,1.757.086a9.2,9.2,0,0,1,.92.089c.312.038.629.076.948.113s.646.078.974.118c.165.017.33.038.494.058s.332.065.5.093c.664.129,1.344.261,2.036.392.173.033.345.066.519.1s.343.088.516.136l1.043.275c.7.186,1.412.358,2.105.613l2.109.714c.692.284,1.382.572,2.075.857l.519.214c.195.075.34.169.513.249.328.177.668.32.985.53s.648.388.959.6l.914.637c1.186.875,2.3,1.8,3.352,2.725,2.1,1.85,3.994,3.645,5.691,5.1.418.368.837.7,1.226,1.03s.782.615,1.135.894c.73.541,1.37,1.009,1.926,1.348.277.168.516.337.739.455l.566.309.47.254s-.166-.084-.475-.246c-.153-.079-.347-.18-.569-.3s-.468-.277-.751-.445c-.565-.327-1.215-.783-1.955-1.308-.362-.275-.754-.559-1.154-.875s-.822-.647-1.251-1.009c-1.725-1.422-3.654-3.182-5.784-4.987-1.063-.9-2.189-1.8-3.381-2.645-.3-.2-.6-.406-.908-.611s-.628-.37-.941-.559-.658-.337-.986-.5c-.166-.074-.34-.174-.5-.229l-.518-.2c-.693-.273-1.381-.541-2.069-.81-.7-.225-1.4-.448-2.1-.667a21.557,21.557,0,0,0-2.089-.566c-.349-.086-.691-.169-1.035-.255-.173-.041-.341-.08-.513-.125-.172-.029-.343-.06-.513-.088-.683-.118-1.354-.232-2.014-.347l-.491-.082c-.164-.018-.326-.036-.489-.05-.324-.031-.646-.067-.959-.1s-.631-.062-.937-.094-.609-.071-.908-.069c-.6-.019-1.175-.037-1.726-.052-1.111-.065-2.118.022-3.014.051-.445.02-.865.032-1.251.059l-1.073.124-2.036.236Z" fill="#bccb5a"/>
    <path id="Path_624" data-name="Path 624" d="M406.478,124.734l.672-.26c.222-.088.491-.191.809-.315s.681-.267,1.109-.407.887-.307,1.4-.478,1.062-.33,1.652-.509,1.227-.349,1.9-.525c.333-.086.673-.185,1.027-.269l1.082-.251c1.475-.346,3.088-.652,4.794-.95,1.71-.274,3.517-.545,5.389-.765s3.808-.432,5.769-.638q1.474-.159,2.958-.338l1.483-.195,1.475-.252c.99-.164,1.974-.358,2.965-.5s1.985-.257,2.97-.387l.732-.1c.245-.023.49-.045.739-.065q.727-.064,1.457-.131c.965-.081,1.916-.189,2.86-.214q1.413-.069,2.772-.132c.455-.029.9-.025,1.342-.026l1.315-.007,1.277,0c.416,0,.83-.013,1.238.011.811.031,1.6.058,2.344.088,1.511.028,2.884.178,4.1.269.609.051,1.179.1,1.708.143.522.066,1.005.13,1.442.181l2.735.351s-1-.106-2.742-.3c-.436-.049-.921-.1-1.445-.159-.526-.032-1.1-.072-1.707-.112-1.219-.069-2.6-.19-4.1-.191-.753-.013-1.537-.027-2.346-.043-.4-.018-.818,0-1.235.008l-1.274.032c-.427.009-.865.02-1.308.031s-.887.014-1.339.05c-.9.063-1.821.123-2.757.185-.938.042-1.885.169-2.845.266-.48.054-.964.1-1.45.156-.245.028-.487.053-.73.079l-.731.109-2.937.439c-.982.157-1.965.37-2.95.55l-1.487.284-1.491.225c-.995.14-1.979.269-2.96.393-1.964.242-3.889.483-5.746.743s-3.646.558-5.334.863c-1.683.326-3.272.656-4.721,1.027l-1.064.267c-.345.088-.68.192-1.007.28-.653.189-1.276.36-1.85.552s-1.121.353-1.612.528l-1.344.49c-.408.14-.768.289-1.084.422s-.586.238-.8.328l-.667.274Z" fill="#bccb5a"/>
    <path id="Path_625" data-name="Path 625" d="M359.9,98.229s.226-.178.648-.507,1.046-.811,1.812-1.437,1.71-1.386,2.787-2.267,2.3-1.873,3.632-2.96c1.351-1.067,2.81-2.235,4.426-3.39.79-.592,1.65-1.15,2.506-1.74.887-.559,1.772-1.15,2.725-1.676.93-.562,1.921-1.052,2.912-1.571,1.015-.462,2.031-.966,3.1-1.366l.8-.319.4-.157.407-.139q.818-.274,1.633-.552c.545-.183,1.108-.319,1.663-.481s1.112-.319,1.668-.449l3.317-.832c1.1-.274,2.225-.5,3.326-.745l1.648-.358c.544-.108,1.089-.218,1.63-.329,1.084-.211,2.153-.424,3.206-.632,2.105-.392,4.137-.776,6.069-1.137.964-.18,1.9-.358,2.809-.527l2.623-.518c.839-.169,1.644-.319,2.41-.483l2.164-.475c.679-.149,1.317-.287,1.9-.418s1.119-.275,1.607-.4l3.044-.76s-1.1.308-3.022.852c-.483.13-1.019.28-1.6.443-.584.146-1.218.3-1.893.469s-1.394.35-2.153.537-1.561.362-2.395.557-1.709.385-2.609.591l-2.8.607-6.031,1.311q-1.57.355-3.18.723-.8.186-1.617.371-.811.2-1.625.4c-1.084.28-2.179.526-3.278.833s-2.193.619-3.3.926c-.554.148-1.089.321-1.627.491s-1.082.321-1.607.513-1.052.393-1.576.587l-.392.145-.386.166-.764.331c-1.026.415-2,.938-2.974,1.414-.946.533-1.894,1.032-2.783,1.607-.911.536-1.758,1.138-2.6,1.7-.821.605-1.64,1.167-2.4,1.773-1.544,1.175-2.951,2.369-4.258,3.464l-3.532,3.05c-1.052.913-1.975,1.709-2.741,2.363s-1.368,1.15-1.783,1.5l-.629.526Z" fill="#bccb5a"/>
    <path id="Path_626" data-name="Path 626" d="M339.979,91.777s.049-.245.136-.707.21-1.128.422-2.009c.192-.884.466-1.925.8-3.115.185-.591.358-1.228.577-1.885s.432-1.353.7-2.063.528-1.458.842-2.212c.153-.378.311-.764.471-1.157l.51-1.176c.337-.8.742-1.6,1.122-2.425.2-.406.413-.816.624-1.236s.42-.831.652-1.244c.878-1.675,1.894-3.346,2.954-5.022,1.08-1.665,2.246-3.311,3.471-4.907,1.249-1.584,2.538-3.13,3.9-4.568a53.937,53.937,0,0,1,4.19-4.031c.175-.157.351-.308.529-.464s.362-.293.541-.438c.361-.291.719-.579,1.068-.865l1.08-.8q.267-.2.528-.392c.183-.125.365-.243.544-.367.356-.242.709-.48,1.055-.717.357-.218.705-.437,1.054-.649.681-.441,1.38-.8,2.037-1.165.327-.189.66-.344.984-.5l.945-.465c.626-.283,1.227-.525,1.787-.77,1.141-.434,2.141-.8,2.986-1.027.833-.271,1.51-.4,1.962-.518s.7-.165.7-.165-.241.066-.693.186-1.121.287-1.943.582c-.832.259-1.819.652-2.94,1.121-.547.262-1.138.522-1.747.826-.3.157-.609.322-.924.49s-.643.329-.961.53c-.639.385-1.319.759-1.977,1.221-.339.221-.679.448-1.027.675l-1.019.745-.52.377-.513.4-1.04.829q-.508.441-1.029.889c-.172.148-.344.3-.519.45s-.34.316-.508.475a55.346,55.346,0,0,0-4,4.109c-1.295,1.463-2.516,3.028-3.69,4.623-1.158,1.612-2.248,3.267-3.255,4.938-.987,1.68-1.926,3.353-2.738,5.022-.214.413-.41.828-.6,1.242s-.379.822-.568,1.226c-.348.821-.715,1.613-1.017,2.408-.159.393-.312.781-.465,1.163s-.282.767-.422,1.145c-.28.744-.513,1.479-.747,2.182s-.421,1.384-.621,2.027-.337,1.264-.5,1.84c-.285,1.165-.521,2.186-.673,3.018-.171.822-.272,1.511-.344,1.973s-.113.707-.113.707Z" fill="#bccb5a"/>
    <path id="Path_627" data-name="Path 627" d="M386.973,127.8a40.236,40.236,0,0,1,7.4.633,60.175,60.175,0,0,1,9.38,2.706,96.485,96.485,0,0,1,10.616,4.686c1.825.963,3.676,2.008,5.528,3.136q1.389.845,2.784,1.75c.906.591,1.8,1.248,2.7,1.923,3.591,2.716,7.164,5.768,10.774,8.883s7.237,6.343,10.86,9.571c7.243,6.458,14.46,12.956,21.295,18.97s13.285,11.554,18.958,16.125A125.228,125.228,0,0,0,501.523,206.5,19.52,19.52,0,0,0,506,208.54c.559.119.965.277,1.257.329a1.744,1.744,0,0,0,.332.039c.072,0,.111,0,.111,0l-.111,0a1.932,1.932,0,0,1-.331-.043c-.287-.055-.7-.224-1.247-.351a19.349,19.349,0,0,1-4.428-2.116,125.122,125.122,0,0,1-14.048-10.545c-5.584-4.665-11.925-10.312-18.646-16.446s-13.816-12.755-20.946-19.348c-3.566-3.294-7.14-6.581-10.7-9.778-1.782-1.6-3.559-3.177-5.336-4.712s-3.561-3.03-5.378-4.448c-.9-.7-1.83-1.387-2.791-2.025q-1.412-.935-2.823-1.806c-1.883-1.16-3.763-2.23-5.623-3.221a77.7,77.7,0,0,0-10.829-4.9,62.537,62.537,0,0,0-9.74-2.627,54.948,54.948,0,0,0-8.13-1.106c-2.147,0-3.186-.132-4.45-.088a16.351,16.351,0,0,1-1.181,2.811c.249-.034.886-.137,1.26-.177A33.4,33.4,0,0,1,386.973,127.8Z" fill="#bccb5a"/>
    <path id="Path_628" data-name="Path 628" d="M471.61,177.465s21.932,16.69,26.238,12.588c0,0-9.312-11.147-11.469-12.014,0,0,9.425-.567,9-3.358l-9.154-7.042s5.539-.966,6.3-4.409l-14.621-1.8c9.026-3.731,10.785-7.5,10.785-7.5s-6.751.5-10.76-.964c0,0,7.675-5.569,6.949-9.421-.312-1.651-2.684-3.953-4.306-3.669a30.676,30.676,0,0,0,3.492-2.64c7.973,2.225,10.883,9.495,13,20.4,1.436,6.755,15.378,50.1,12.4,53.782C500.772,206.205,487.674,196.234,471.61,177.465Z" fill="#36471a"/>
    <path id="Path_629" data-name="Path 629" d="M414.642,88.315c1.07-7.7,15.331-17.2,15.331-17.2-9.432-5.919-24.968,2.916-24.968,2.916-1.43-2.651,11.073-13.671,11.073-13.671-3.5-2.817-14.545,1.747-14.545,1.747s4.685-6.664,7.451-7.441a12.767,12.767,0,0,1,3.285.03c11.986,1.633,38.458,23.031,37.875,32.665a122.142,122.142,0,0,0-21.782,2.752l8.7-8.879C434.994,78.052,414.642,88.315,414.642,88.315Z" fill="#36471a"/>
    <path id="Path_630" data-name="Path 630" d="M379.281,51.048c.792-1.971,7.488-7.2,12.438-9.475a61.142,61.142,0,0,0-26.216.184s10.4-7.147,14.8-6.959a42.927,42.927,0,0,1,29.345,14.883,141.29,141.29,0,0,0-15.543,2.6l3.761-4.013C395.568,45.192,379.281,51.048,379.281,51.048Z" fill="#36471a"/>
    <path id="Path_631" data-name="Path 631" d="M265.62,143.373a77.486,77.486,0,0,1,16.411-13.853,56.9,56.9,0,0,1,16.828-7.146c1.335-.314,2.646-.556,3.919-.752.514-.074,1.018-.137,1.519-.194l-2.387,3.395c-.78.132-1.573.282-2.378.464a54.033,54.033,0,0,0-16.03,6.635,74.877,74.877,0,0,0-15.984,13.192,90.044,90.044,0,0,0-13.429,18.975c-3.794,7.218-7.379,14.867-10.7,22.772S237,202.936,234.2,211.2c-5.622,16.515-10.169,33.392-14.379,49.227-2.109,7.916-4.139,15.581-6.259,22.8a205.436,205.436,0,0,1-6.831,20.092,88.682,88.682,0,0,1-4.027,8.554c-.718,1.319-1.466,2.585-2.241,3.78q-1.075,1.647-2.228,3.115l-.782-.379q1.155-1.515,2.23-3.229,1.128-1.781,2.175-3.745a87.408,87.408,0,0,0,3.9-8.5,204.486,204.486,0,0,0,6.605-20.039c2.042-7.218,4-14.889,6.038-22.827s4.14-16.145,6.442-24.446,4.8-16.7,7.552-25.013,5.765-16.554,9.049-24.536,6.832-15.712,10.606-23.031A92.392,92.392,0,0,1,265.62,143.373Z" fill="#849f27"/>
    <g id="Group_27" data-name="Group 27">
      <g id="Group_26" data-name="Group 26">
        <path id="Path_632" data-name="Path 632" d="M273,62.356c-5.29,10.1-13.019,21.937-13.283,32.621-.31,10.513,7.805,18.3,18.016,24.416a146.254,146.254,0,0,0,16.454,8.2q2.625-.74,5.246-1.3c17.707-3.838,35.458-2.058,57.275.914,13.036,1.776,31.232,3.729,42.907,9.671,12.282,5.615,26.458,15.919,29.2,17.978,11.592,8.716,21.022,21.029,21.023,21.029-11.4-30.662-38.885-60.965-54.541-76.627-7.055-7-14.95-15.982-17.649-10.209,0,0,1.83,2.873,1.193,14.088-.462,8.112-4.864,12.393-7.336,13.977-1.954,1.252-3.934-1.331-3.837-4.849.363-13.413,8.262-21.648,5.145-32.474-.05-.174-.093-.346-.149-.52-2.383-7.563-19.692-18.374-26.484-22.242-.246-.142-.5-.287-.765-.433a146.464,146.464,0,0,0-13.441-6.472c-.059-.025-.121-.052-.181-.076-7.817-3.073-16.225-5.126-23.774-4.448-10.441.727-15.974,5.142-16.2,10.121,7.746,7.543,12.7,13.475,16.524,19.208a115.915,115.915,0,0,1,7.89,14.194c1.583,3.265,3.245,12.581-8.605,2.9a44.887,44.887,0,0,1-7.33-8.966,25.454,25.454,0,0,1-2.725-5.239c-3.2-9.333-11.394-22.61-11.394-22.61C281.244,45.927,277.859,53.074,273,62.356Z" fill="#3d571e"/>
      </g>
    </g>
    <path id="Path_633" data-name="Path 633" d="M366.629,75.03C360.5,75.2,355.7,90.237,355.7,90.237c-3.236-2.592,5.194-17.054,5.194-17.054-1.741-1.46-7.349,7.873-7.349,7.873-2.134-1.925,3.408-14.861,3.408-14.861-5.923-5.271-12.314,15.316-12.314,15.316-3.625-.476-.888-21.043-.888-21.043-5.721-1.5-12.97,11.934-12.97,11.934-2.684-3.019,5.827-18.967,5.827-18.967-4.684-6.321-11.159,10.051-11.159,10.051-3.12-2.046.888-14.438.888-14.438-8.042-2.217-11.413,16.177-11.413,16.177-4.789-4.257-3.791-16.947-3.791-16.947-5.106-.746-8.234,16.574-8.234,16.574a47.223,47.223,0,0,1-7.295-5.337q-1.782-1.834-3.8-3.8c.23-4.98,5.762-9.394,16.2-10.122,7.549-.677,15.956,1.376,23.774,4.449a146.519,146.519,0,0,1,13.622,6.547c.263.147.519.292.765.433,6.792,3.869,24.1,14.68,26.483,22.242.056.174.1.347.15.521a19.918,19.918,0,0,1,.241,9.721c-6.075,4.628-12.629,12.342-12.629,12.342C358.29,101.029,366.629,75.03,366.629,75.03Z" fill="#476920"/>
    <path id="Path_634" data-name="Path 634" d="M265.821,144.071a77.62,77.62,0,0,1,16.41-13.854,56.932,56.932,0,0,1,16.829-7.146c1.335-.314,2.646-.556,3.919-.752.257-.037.509-.067.762-.1l-2.418,3.44q-.787.146-1.591.326A54.049,54.049,0,0,0,283.7,132.62a74.823,74.823,0,0,0-15.984,13.191,89.957,89.957,0,0,0-13.43,18.976c-3.793,7.217-7.379,14.866-10.7,22.771S237.2,203.634,234.4,211.9c-5.623,16.515-10.17,33.391-14.379,49.226-2.109,7.917-4.141,15.582-6.259,22.8a205.839,205.839,0,0,1-6.83,20.09,88.586,88.586,0,0,1-4.028,8.555c-.719,1.319-1.467,2.585-2.241,3.781q-.918,1.406-1.891,2.678l-.789-.383c.652-.881,1.288-1.812,1.9-2.787q1.126-1.783,2.174-3.747a87.152,87.152,0,0,0,3.9-8.495,204.352,204.352,0,0,0,6.6-20.041c2.041-7.217,4-14.887,6.038-22.825s4.141-16.146,6.441-24.447,4.8-16.7,7.553-25.012,5.764-16.555,9.049-24.537,6.832-15.712,10.6-23.031A92.435,92.435,0,0,1,265.821,144.071Z" fill="#3d571e"/>
    <path id="Path_635" data-name="Path 635" d="M412.865,141.637a18.814,18.814,0,0,1,14.965-.827s-9.853-12.064-23.821-13.585l10.463-3.946c-5.511-4.19-11.843-7.773-20.74-3.437l3.648-8.9s-7.774-1.2-17.17,4.078L384.031,98.8s-1.428-1.789-5.066-.958c-.1-6.862-1.322-8.791-1.322-8.791,2.7-5.773,10.594,3.211,17.649,10.209,15.656,15.662,43.141,45.965,54.541,76.627a128.119,128.119,0,0,0-19.93-20.191C420.05,145.145,416.67,142.6,412.865,141.637Z" fill="#476920"/>
    <path id="Path_636" data-name="Path 636" d="M285.01,117.811c-6.755-3.207-15.922-11.469-19.2-13.891-1.109-.818-4.518-5.546-2.413-5.843,2.021-.286,6.5,2.939,7.388,3.014,1.342.114-2.864-8.212-3.606-10.866s-.913-7.637.395-6.124,6.508,12.43,8.627,13.8-1.589-7.318-3.5-16.953c-.924-4.655,4.4-19.1,5.4-18.4,1.943,1.367-.625,8.753.069,14.7.67,5.755,8.942,11.393,4.976-6.617-1.407-6.39-1.207-10.971.482-10.212,3.046,1.372,8.106,15.223,9.6,18.008s8.2,16.035,12.458,19.189,12.635,5.407,14.307,3.254-2.482-15.8-3.814-20.426c-.987-3.416-1.06-11.467.137-10.159.9.983,5.369,16.126,5.659,13.522.31-2.79-.756-9.409,1.259-12.875s5.015-2.813,5.015-2.813a39.459,39.459,0,0,0-2.48,12.99c.04,2.148,2.766,15.417,3.5,11.669s2.815-14.058,5.547-18.169,4.638-5.248,4.638-5.248-1.966,9.6-2.651,14.337c-.549,3.8-2.292,23.833-1.416,23.264.989-.642,4.439-9.128,6.321-12.7s7.833-10.692,6.988-6.228-4.849,28.2-3.111,23.539S357.3,93.442,355.873,96.1s1.021,20.144,2.423,18.4,10.351-9.773,10.215-9.156c0,.013-.006.032-.01.051h0c-.051.241-.1.482-.147.726l0,.023c-.094.483-.181.974-.258,1.47-.006.032-.01.064-.014.1-.032.209-.063.421-.092.633-.006.043-.011.086-.016.129-.066.481-.121.967-.167,1.461-.006.064-.01.129-.017.193-.015.185-.03.369-.044.555l-.015.213c-.016.241-.03.485-.042.73v.012h0c-.009.207-.017.416-.022.625,0,.139,0,.275,0,.411v.014c.067,3.3,1.964,5.625,3.838,4.424a13.317,13.317,0,0,0,1.919-1.515c.992.274.076,2.861,3.635,2.241,3.781-.658,14.314-2.265,14.314-2.265a51.774,51.774,0,0,0-4.123,5.36c-.994,1.751-5.478,9.486,2.247,4.6,2.271-1.436,15.173-2.908,15.173-2.908s-4.524,2.275-6.133,4.226-4.47,8.157-3.058,6.937,14.172,1.983,14.172,1.983a21.554,21.554,0,0,0-2.858,1.136,23.638,23.638,0,0,0-2.469,2.287q-1.185-.623-2.365-1.207h0c-.392-.192-.78-.382-1.169-.567l-.007,0q-.585-.277-1.165-.543c-11.675-5.942-29.871-7.9-42.907-9.671-21.817-2.972-39.568-4.752-57.275-.914q-.631.137-1.262.283c-.4.093-.8.19-1.2.288l-.038.009q-1.249.309-2.5.656C291.667,123.155,290.922,120.62,285.01,117.811Z" fill="#36471a"/>
    <path id="Path_637" data-name="Path 637" d="M307.81,78.128s.309.572-1.3,2.523c-1.161,1.408,1.972-.273,4.26-1.847.317.531.625,1.063.929,1.6a28.74,28.74,0,0,1-1.843,3.079c-1.162,1.653,2.031,2.936,5.19,3.247.391.786.782,1.582,1.178,2.4a11.051,11.051,0,0,1,1.088,5c-.3.709-.6,1.348-.854,1.862-1.193.835-3.789.16-8.839-3.967a44.759,44.759,0,0,1-7.3-8.929.417.417,0,0,1-.011-.051c1.313-1.306,2.642-2.639,3.973-3.984Z" fill="#476920"/>
  </g>
</svg>
